<?xml version="1.0" encoding="UTF-8"?>
<svg version="1.1" xmlns="http://www.w3.org/2000/svg" width="500" height="500">
<path d="M0 0 C102.96 0 205.92 0 312 0 C312 11.25003633 312 11.25003633 311.58391762 15.74605751 C311.44469019 17.28684973 311.44469019 17.28684973 311.30265009 18.85876906 C311.14711305 20.50294092 311.14711305 20.50294092 310.98843384 22.18032837 C310.82516666 23.9648071 310.82516666 23.9648071 310.65860116 25.7853359 C310.35793018 29.06142986 310.05318746 32.3371145 309.74665737 35.61266446 C309.41610052 39.15580765 309.09086237 42.69943968 308.76493835 46.24301147 C308.12639451 53.17630872 307.48296653 60.10914432 306.83784749 67.04183252 C306.08547497 75.12898385 305.33787636 83.21657438 304.59043507 91.30418269 C303.25549108 105.74692399 301.91608365 120.18924789 300.57421875 134.63134766 C299.27485456 148.61605431 297.97884898 162.60106691 296.68652344 176.58642578 C295.05159542 194.27929657 293.41370711 211.97189085 291.773367 229.66426069 C291.25201736 235.28835304 290.73170659 240.91254094 290.21175003 246.53676224 C289.57673056 253.40493279 288.93975744 260.27291912 288.30041839 267.14068897 C287.97486026 270.63823502 287.6500735 274.13584759 287.32754707 277.63367462 C286.66830768 284.77380013 285.99479774 291.91209158 285.28796434 299.04767275 C285.02173539 301.77715996 284.77449059 304.50780545 284.52891159 307.23920822 C284.38107263 308.7109234 284.23187659 310.18250332 284.0809021 311.65390015 C283.96609686 312.85886831 283.85129162 314.06383648 283.73300743 315.30531883 C283 318 283 318 281.04572487 319.36147499 C276.72739231 320.70934116 272.4929854 321.39517504 268 322 C268 322.66 268 323.32 268 324 C266.9275 323.95875 265.855 323.9175 264.75 323.875 C261.2176046 323.99274651 259.91989975 324.28833463 257 326 C253.79382111 326.91401091 250.52966031 327.47684637 247.25 328.0625 C246.26515625 328.23910156 245.2803125 328.41570312 244.265625 328.59765625 C243.51796875 328.73042969 242.7703125 328.86320312 242 329 C242 329.66 242 330.32 242 331 C240.9275 330.95875 239.855 330.9175 238.75 330.875 C235.23058248 330.99231392 233.87820768 331.21352627 231 333 C227.40553872 335.10709799 224.12632898 335.51859495 220 336 C218.52071074 336.18653034 217.04154215 336.37402029 215.5625 336.5625 C214.386875 336.706875 213.21125 336.85125 212 337 C212 337.66 212 338.32 212 339 C210.9275 339.144375 209.855 339.28875 208.75 339.4375 C204.29449678 340.10582548 201.75141999 340.49905334 198 343 C195.95703125 343.1953125 195.95703125 343.1953125 193.8125 343.125 C192.554375 343.08375 191.29625 343.0425 190 343 C190 343.66 190 344.32 190 345 C184.75614911 346.7479503 180.52677733 347.19392201 175 347 C175 347.66 175 348.32 175 349 C173.9275 349.144375 172.855 349.28875 171.75 349.4375 C169.07138022 349.83929297 166.59610051 350.28383434 164 351 C161.15669616 351.75942944 158.35634659 352.30721034 155.4375 352.6875 C154.67308594 352.79449219 153.90867188 352.90148437 153.12109375 353.01171875 C151 353 151 353 148 351 C144.36835424 348.66537059 141.24637673 348.83667782 137 349 C137 348.34 137 347.68 137 347 C135.2365625 347.061875 135.2365625 347.061875 133.4375 347.125 C129.27590326 347.13983635 125.93512333 346.31170778 122 345 C122 344.34 122 343.68 122 343 C120.01432292 343.06510417 118.02864583 343.13020833 116.04296875 343.1953125 C114 343 114 343 111 341 C107.43295801 339.85345079 103.70300784 339.49848182 100 339 C100 338.34 100 337.68 100 337 C98.824375 336.855625 97.64875 336.71125 96.4375 336.5625 C92.61787728 336.08589824 88.80889981 335.55546456 85 335 C85 334.34 85 333.68 85 333 C77.28352737 331.52992534 77.28352737 331.52992534 69.5 330.5 C66 330 66 330 63 328 C58.07855455 325.76395196 53.38306008 324.62112232 48 324 C45.7392342 323.54784684 44.17756362 323.10408902 42.1875 321.9375 C39.10171663 320.61502141 36.31522068 320.87249151 33 321 C33 320.34 33 319.68 33 319 C31.68 318.67 30.36 318.34 29 318 C27.06979083 303.90960318 25.79080967 289.76235054 24.48520803 275.60298753 C24.15715824 272.05140733 23.8261332 268.50010416 23.49552917 264.94876099 C22.85053064 258.01485286 22.20833373 251.08068811 21.56726359 244.14641578 C21.04606128 238.50893965 20.52399485 232.87154418 20.00133133 227.23420334 C18.35549123 209.48157798 16.71270504 191.7286726 15.07221718 173.97555189 C13.77969688 159.98939918 12.48242466 146.00369187 11.18298297 132.01818068 C9.84602697 117.62836907 8.51248808 103.23824438 7.18254912 88.84778249 C6.43688656 80.78014393 5.68984752 72.71263848 4.93915939 64.64546585 C4.30073328 57.78437287 3.6655082 50.92299273 3.03438924 44.06122358 C2.71264213 40.56404384 2.38944258 37.06701502 2.06221962 33.57034302 C1.70775407 29.77404922 1.35895989 25.97727489 1.01156616 22.18032837 C0.9078748 21.0842138 0.80418343 19.98809922 0.69734991 18.85876906 C0.55812248 17.31797684 0.55812248 17.31797684 0.41608238 15.74605751 C0.33514694 14.87150118 0.25421149 13.99694486 0.17082345 13.09588683 C-0.0696975 8.7368505 0 4.36566696 0 0 Z " fill="#1F63AF" transform="translate(94,117)"/>
<path d="M0 0 C64.68 0 129.36 0 196 0 C195.34 7.92 194.68 15.84 194 24 C194.12375 26.76375 194.2475 29.5275 194.375 32.375 C193.87109375 35.8828125 193.87109375 35.8828125 192 39 C185.84476444 43.25485265 178.45218036 45.37394743 171.43261719 47.77001953 C165.84132335 49.77350021 160.46984132 52.23864947 155.0625 54.6875 C145.43614081 58.96089064 135.75497159 63.02575232 126 67 C114.12 71.95 114.12 71.95 102 77 C130.71 77.33 159.42 77.66 189 78 C188.38173822 86.65566496 187.73951719 95.29092895 186.94921875 103.9296875 C186.74499336 106.19075137 186.54081225 108.45181925 186.33666992 110.71289062 C186.23067474 111.88182861 186.12467957 113.0507666 186.01547241 114.25512695 C183.54763414 141.49297053 181.23052636 168.7417949 179 196 C173.03019884 198.49137658 167.13328797 200.67977465 160.875 202.3125 C159.30035953 202.73671897 157.72616338 203.16258959 156.15234375 203.58984375 C155.3207373 203.81526855 154.48913086 204.04069336 153.63232422 204.27294922 C148.88446286 205.58431363 144.16293699 206.985437 139.4375 208.375 C136.36348655 209.27193885 133.28897397 210.16714931 130.21435547 211.06201172 C128.01460169 211.70392681 125.81574818 212.34893287 123.61767578 212.99658203 C120.24803925 213.98725613 116.87453209 214.96365012 113.5 215.9375 C111.95203735 216.39745361 111.95203735 216.39745361 110.37280273 216.86669922 C102.51659624 219.11280747 96.17856141 220.06895871 88.25 217.375 C87.12722656 217.00761719 86.00445312 216.64023437 84.84765625 216.26171875 C83.92750732 215.95693604 83.92750732 215.95693604 82.98876953 215.64599609 C79.24140795 214.42877062 75.46279971 213.31440523 71.6875 212.1875 C70.84888428 211.93605225 70.01026855 211.68460449 69.14624023 211.42553711 C62.37698284 209.39973775 55.59641418 207.41359028 48.8125 205.4375 C47.80654785 205.14431885 46.8005957 204.8511377 45.76416016 204.54907227 C41.08909696 203.18751054 36.41291175 201.83004666 31.734375 200.48046875 C30.17706939 200.0286939 28.61977681 199.57687411 27.0625 199.125 C26.35262939 198.92189209 25.64275879 198.71878418 24.91137695 198.50952148 C20.1131293 197.1131293 20.1131293 197.1131293 19 196 C18.79071706 194.66603687 18.64189802 193.32248523 18.51928711 191.9777832 C18.43927963 191.12211258 18.35927216 190.26644196 18.27684021 189.38484192 C18.19450638 188.4496019 18.11217255 187.51436188 18.02734375 186.55078125 C17.93997452 185.58657761 17.85260529 184.62237396 17.7625885 183.62895203 C17.57795862 181.57534926 17.39569572 179.52153257 17.21557617 177.4675293 C16.94258259 174.3701666 16.65835494 171.27398377 16.37304688 168.17773438 C16.19461938 166.17714503 16.01686552 164.17649547 15.83984375 162.17578125 C15.75548569 161.26685623 15.67112762 160.35793121 15.58421326 159.42146301 C14.93658839 151.86581124 15 144.6710931 15 137 C27.87 137 40.74 137 54 137 C54.99 146.9 55.98 156.8 57 167 C65.03556633 169.21067552 65.03556633 169.21067552 73.078125 171.39453125 C76.6160182 172.3492638 80.14713562 173.32213255 83.671875 174.32421875 C85.03103478 174.69609997 86.39039484 175.06725038 87.75 175.4375 C89.50570312 175.93056641 89.50570312 175.93056641 91.296875 176.43359375 C100.26034079 177.80458799 108.4776476 175.24227066 117 172.625 C118.01578125 172.32078125 119.0315625 172.0165625 120.078125 171.703125 C124.00438304 170.52524759 127.9270183 169.33881688 131.8359375 168.10449219 C132.71507812 167.83024414 133.59421875 167.55599609 134.5 167.2734375 C135.2734375 167.02770996 136.046875 166.78198242 136.84375 166.52880859 C139 166 139 166 143 166 C143 160.72 143 155.44 143 150 C143.66 138.78 144.32 127.56 145 116 C100.78 116 56.56 116 11 116 C8.67857143 88.14285714 8.67857143 88.14285714 9 78 C16.45933259 74.13351812 24.06616486 70.74772947 31.8125 67.5 C32.89853516 67.03980469 33.98457031 66.57960938 35.10351562 66.10546875 C40.52288456 63.82193644 45.95905955 61.6148913 51.45703125 59.52734375 C58.34968862 56.90092763 65.11052048 54.00079728 71.875 51.0625 C81.5253067 46.8749369 91.22690785 42.90923686 101 39 C69.32 38.67 37.64 38.34 5 38 C2.89966398 25.39798386 1.27124412 12.71244117 0 0 Z " fill="#F0F1F1" transform="translate(151,182)"/>
<path d="M0 0 C41.58 0 83.16 0 126 0 C126 5.39701305 125.97266012 9.81589897 125.24511719 14.99804688 C124.90763464 17.75437843 124.81219087 20.5007674 124.71659851 23.27453613 C124.38639144 32.19843302 123.62187522 41.01901709 122.61328125 49.890625 C121.13202157 63.32324242 119.94999967 76.76802311 118.86569214 90.23779297 C118.33812294 96.78421784 117.79779478 103.32958973 117.2578125 109.875 C117.09722603 111.82442505 117.09722603 111.82442505 116.93339539 113.81323242 C115.99046803 125.21401985 114.98458859 136.60834635 113.9375 148 C113.81654465 149.31653564 113.81654465 149.31653564 113.69314575 150.65966797 C113.2914873 155.02584878 112.88810191 159.39186773 112.48388672 163.7578125 C111.72923595 171.91851308 110.9905974 180.08067371 110.25018311 188.24267578 C109.8378737 192.7868304 109.42480802 197.33091622 109.01171875 201.875 C108.92984314 202.77581299 108.84796753 203.67662598 108.76361084 204.60473633 C108.23434657 210.42651425 107.70404144 216.24819663 107.17312622 222.06982422 C106.80732291 226.08135897 106.44185698 230.09292442 106.07641602 234.10449219 C105.90308158 236.00620023 105.72958412 237.90789342 105.5559082 239.80957031 C105.31419497 242.45634202 105.07307935 245.10316765 104.83203125 247.75 C104.75719513 248.56726563 104.68235901 249.38453125 104.60525513 250.2265625 C104.10043111 255.7748501 103.64871861 261.32555849 103.25268555 266.8828125 C103 269 103 269 102 271 C100.12084961 271.71435547 100.12084961 271.71435547 97.65234375 272.3671875 C96.74484375 272.61098145 95.83734375 272.85477539 94.90234375 273.10595703 C93.92394531 273.35974121 92.94554687 273.61352539 91.9375 273.875 C90.93976563 274.14038574 89.94203125 274.40577148 88.9140625 274.67919922 C81.99281743 276.51057488 75.05414846 278.26906975 68.09375 279.9453125 C64.52208815 280.83634318 60.9904585 281.85288316 57.453125 282.87109375 C50.07758454 284.99293182 42.66982941 286.97710905 35.25 288.9375 C25.83104918 291.43225231 16.42026656 293.94941844 7.05175781 296.62866211 C2.20864051 298 2.20864051 298 0 298 C-0.33 284.8 -0.66 271.6 -1 258 C2.403125 257.13375 5.80625 256.2675 9.3125 255.375 C17.77468215 253.19259374 26.13869211 250.81716686 34.44262695 248.09326172 C39.28414221 246.50912811 44.15361158 245.11808642 49.07324219 243.79663086 C54.23530597 242.39157463 59.36585692 240.87829748 64.5 239.375 C66.10488281 238.90707031 66.10488281 238.90707031 67.7421875 238.4296875 C73.39291497 236.78510502 73.39291497 236.78510502 79 235 C79.05375793 234.37551971 79.10751587 233.75103943 79.16290283 233.1076355 C79.42628032 230.04831692 79.68970042 226.98900202 79.953125 223.9296875 C80.05330429 222.76609711 80.15348358 221.60250671 80.25669861 220.40365601 C80.81517613 213.91844057 81.37438383 207.43328915 81.93481445 200.94824219 C82.16620876 198.27018491 82.39756565 195.59212441 82.62890625 192.9140625 C82.68685678 192.24333206 82.74480732 191.57260162 82.80451393 190.88154602 C83.50265039 182.79884213 84.19551914 174.71571795 84.8788147 166.63174438 C85.23048806 162.47471648 85.58506733 158.31793916 85.94006348 154.16119385 C86.10303264 152.24379365 86.26460777 150.32627437 86.42468262 148.40863037 C86.64794916 145.735637 86.87620608 143.06310985 87.10546875 140.390625 C87.16677475 139.6407431 87.22808075 138.89086121 87.29124451 138.11825562 C87.91013994 131.00979955 88.98510898 124.10423715 90 117 C60.96 117 31.92 117 2 117 C3.343444 114.313112 4.5980934 114.15619514 7.36328125 113.0390625 C8.29962402 112.65572754 9.2359668 112.27239258 10.20068359 111.87744141 C11.22758301 111.46413574 12.25448242 111.05083008 13.3125 110.625 C15.49929639 109.73062859 17.6854686 108.83472984 19.87109375 107.9375 C21.02851074 107.463125 22.18592773 106.98875 23.37841797 106.5 C30.7454942 103.44867761 38.05934815 100.27223899 45.38012695 97.11181641 C51.19405649 94.60825078 57.02301298 92.17010452 62.90869141 89.84033203 C65.39230885 88.84236201 67.82485908 87.75726778 70.25 86.625 C74.65031582 84.60714089 79.06319078 82.62358307 83.5 80.6875 C84.6653125 80.17574219 85.830625 79.66398437 87.03125 79.13671875 C90 78 90 78 93 78 C93.07347656 76.72382813 93.07347656 76.72382813 93.1484375 75.421875 C93.62469616 67.70320025 94.24271922 60.00894551 95 52.3125 C95.0829834 51.45172852 95.1659668 50.59095703 95.25146484 49.70410156 C95.37448975 48.48352051 95.37448975 48.48352051 95.5 47.23828125 C95.5721875 46.51680908 95.644375 45.79533691 95.71875 45.05200195 C96 43 96 43 97 39 C64.99 39 32.98 39 0 39 C0 26.13 0 13.26 0 0 Z " fill="#3D9BD6" transform="translate(250,143)"/>
<path d="M0 0 C12.87 0 25.74 0 39 0 C39.99 9.9 40.98 19.8 42 30 C59.88615254 34.97555208 59.88615254 34.97555208 78 39 C77.01 39.495 77.01 39.495 76 40 C76 40.66 76 41.32 76 42 C78.64 42 81.28 42 84 42 C84 54.87 84 67.74 84 81 C79.04356921 81.99128616 77.92932946 81.96268843 73.4375 80.4375 C71.71273437 79.87289062 71.71273437 79.87289062 69.953125 79.296875 C69.32083984 79.08740234 68.68855469 78.87792969 68.03710938 78.66210938 C64.27375638 77.43892945 60.47923034 76.31895772 56.6875 75.1875 C55.84912598 74.93613281 55.01075195 74.68476563 54.14697266 74.42578125 C47.37748651 72.39984905 40.59666102 70.41366218 33.8125 68.4375 C32.80654785 68.14431885 31.8005957 67.8511377 30.76416016 67.54907227 C26.08909696 66.18751054 21.41291175 64.83004666 16.734375 63.48046875 C15.17706939 63.0286939 13.61977681 62.57687411 12.0625 62.125 C10.99769409 61.82033813 10.99769409 61.82033813 9.91137695 61.50952148 C5.1131293 60.1131293 5.1131293 60.1131293 4 59 C3.79071706 57.66603687 3.64189802 56.32248523 3.51928711 54.9777832 C3.43927963 54.12211258 3.35927216 53.26644196 3.27684021 52.38484192 C3.15333946 50.98198189 3.15333946 50.98198189 3.02734375 49.55078125 C2.93997452 48.58657761 2.85260529 47.62237396 2.7625885 46.62895203 C2.57795862 44.57534926 2.39569572 42.52153257 2.21557617 40.4675293 C1.94258259 37.3701666 1.65835494 34.27398377 1.37304688 31.17773438 C1.19461938 29.17714503 1.01686552 27.17649547 0.83984375 25.17578125 C0.71330666 23.81239372 0.71330666 23.81239372 0.58421326 22.42146301 C-0.06341161 14.86581124 0 7.6710931 0 0 Z " fill="#E0E1E1" transform="translate(166,319)"/>
<path d="M0 0 C16.17 0 32.34 0 49 0 C49 7.26 49 14.52 49 22 C43.72 22.33 38.44 22.66 33 23 C33.78375 23.94875 34.5675 24.8975 35.375 25.875 C35.91125 26.52855469 36.4475 27.18210937 37 27.85546875 C38.98473146 30.10628139 38.98473146 30.10628139 41.625 31.98828125 C44.375 34.1875 44.375 34.1875 49 40 C49 46.6 49 53.2 49 60 C32.83 60 16.66 60 0 60 C0 52.74 0 45.48 0 38 C5.94 37.505 5.94 37.505 12 37 C11.21753906 36.24074219 10.43507813 35.48148438 9.62890625 34.69921875 C8.60650804 33.69558014 7.58438701 32.69165911 6.5625 31.6875 C5.7880957 30.93823242 5.7880957 30.93823242 4.99804688 30.17382812 C2.59409824 27.80130365 1.08343207 26.25029621 0 23 C0 15.41 0 7.82 0 0 Z " fill="#000000" transform="translate(294,31)"/>
<path d="M0 0 C16.17 0 32.34 0 49 0 C49 7.26 49 14.52 49 22 C43.72 22.33 38.44 22.66 33 23 C33.78375 23.94875 34.5675 24.8975 35.375 25.875 C35.91125 26.52855469 36.4475 27.18210937 37 27.85546875 C38.98473146 30.10628139 38.98473146 30.10628139 41.625 31.98828125 C44.375 34.1875 44.375 34.1875 49 40 C49 46.6 49 53.2 49 60 C32.83 60 16.66 60 0 60 C0 52.74 0 45.48 0 38 C5.94 37.505 5.94 37.505 12 37 C11.13375 35.989375 10.2675 34.97875 9.375 33.9375 C-2.0051084 20.66070687 0 22.84806013 0 0 Z " fill="#000000" transform="translate(226,31)"/>
<path d="M0 0 C16.17 0 32.34 0 49 0 C49 7.92 49 15.84 49 24 C40.75 24 32.5 24 24 24 C24 28.62 24 33.24 24 38 C32.25 38 40.5 38 49 38 C49 45.26 49 52.52 49 60 C32.83 60 16.66 60 0 60 C0 40.2 0 20.4 0 0 Z M22 22 C22 27.94 22 33.88 22 40 C22.33 40 22.66 40 23 40 C23 34.06 23 28.12 23 22 C22.67 22 22.34 22 22 22 Z " fill="#000000" transform="translate(157,31)"/>
<path d="M0 0 C15.18 0 30.36 0 46 0 C46 11.80734449 45.81570089 23.37945466 45 35.125 C44.90310522 36.58459963 44.8067498 38.04423516 44.7109375 39.50390625 C44.48011973 43.00303666 44.24219934 46.50163664 44 50 C32.46722192 53.41585814 20.93020152 56.82021664 9.3125 59.9375 C8.54252686 60.14850342 7.77255371 60.35950684 6.97924805 60.5769043 C3.2438231 61.56361242 -0.1294167 62.25193146 -4 62 C-2.02 61.505 -2.02 61.505 0 61 C0 40.87 0 20.74 0 0 Z " fill="#3D9BD5" transform="translate(250,298)"/>
<path d="M0 0 C0.024727 4.35994067 0.04287281 8.71984414 0.05493164 13.07983398 C0.05995903 14.56291413 0.06678185 16.04598933 0.07543945 17.52905273 C0.08757482 19.66130801 0.09324425 21.79349773 0.09765625 23.92578125 C0.10289307 25.20880127 0.10812988 26.49182129 0.11352539 27.8137207 C0 31 0 31 -1 34 C-1 34.99 -1 35.98 -1 37 C-0.01 36.67 0.98 36.34 2 36 C4.81591242 35.93739889 7.60418234 35.93340295 10.41870117 35.97827148 C11.70682961 35.9926828 11.70682961 35.9926828 13.02098083 36.00738525 C15.86172656 36.04038734 18.70231908 36.08071515 21.54296875 36.12109375 C23.51165729 36.14539368 25.48035152 36.1692373 27.4490509 36.19264221 C32.63258329 36.25549576 37.81601519 36.32455888 42.99945068 36.39489746 C48.28799867 36.46556938 53.57661794 36.53039319 58.86523438 36.59570312 C69.24356793 36.72473186 79.62180475 36.86031801 90 37 C89.67 41.62 89.34 46.24 89 51 C88.67 51 88.34 51 88 51 C87.9727585 49.58344207 87.95349533 48.16672955 87.9375 46.75 C87.92589844 45.96109375 87.91429687 45.1721875 87.90234375 44.359375 C88 42 88 42 89 38 C33.23 38 -22.54 38 -80 38 C-80 37.01 -80 36.02 -80 35 C-80.66 34.34 -81.32 33.68 -82 33 C-78.25182665 31.37926244 -74.50216142 29.76202799 -70.7512207 28.14770508 C-69.48162404 27.60076008 -68.21240327 27.05294151 -66.94360352 26.50415039 C-59.44189046 23.26024672 -51.90506729 20.17038349 -44.26196289 17.27075195 C-38.38073067 14.97962002 -32.60237916 12.44865872 -26.8125 9.9375 C-13.3827175 4.12590854 -13.3827175 4.12590854 -7.32421875 1.62890625 C-6.55553467 1.31123291 -5.78685059 0.99355957 -4.99487305 0.66625977 C-3 0 -3 0 0 0 Z " fill="#E6EAEB" transform="translate(250,223)"/>
<path d="M0 0 C102.96 0 205.92 0 312 0 C312 0.33 312 0.66 312 1 C209.04 1 106.08 1 0 1 C0 0.67 0 0.34 0 0 Z " fill="#127FED" transform="translate(94,115)"/>
<path d="M0 0 C4.21538228 6.32307343 4.2275696 13.95580452 3.97265625 21.359375 C3.93814074 24.57960006 3.93814074 24.57960006 5 30 C32.72 30 60.44 30 89 30 C89.495 31.485 89.495 31.485 90 33 C60.96 33 31.92 33 2 33 C0 9 0 9 0 0 Z " fill="#C0D0E3" transform="translate(160,265)"/>
<path d="M0 0 C0.33 0 0.66 0 1 0 C1.74926071 3.66305234 2.2380014 6.42355152 1 10 C1.66 10.33 2.32 10.66 3 11 C2.67 11.99 2.34 12.98 2 14 C2.69842532 17.36632328 3.60353228 20.65118946 4.50390625 23.96875 C5 27 5 27 3 30 C35.01 30 67.02 30 100 30 C100 30.33 100 30.66 100 31 C67.66 31 35.32 31 2 31 C-1.48214286 10.10714286 -1.48214286 10.10714286 0 0 Z " fill="#D8E6F6" transform="translate(154,189)"/>
<path d="M0 0 C31.35 0 62.7 0 95 0 C93.6045933 2.79081339 91.98580959 3.03903006 89.125 4.1875 C88.24070312 4.55230469 87.35640625 4.91710937 86.4453125 5.29296875 C84 6 84 6 81 5 C81.66 5 82.32 5 83 5 C83.33 4.01 83.66 3.02 84 2 C56.28 1.67 28.56 1.34 0 1 C0 0.67 0 0.34 0 0 Z " fill="#1C589D" transform="translate(156,221)"/>
<path d="M0 0 C29.04 0 58.08 0 88 0 C87.67 6.93 87.34 13.86 87 21 C86.67 21 86.34 21 86 21 C86 15.06 86 9.12 86 3 C85.34 3 84.68 3 84 3 C84 2.34 84 1.68 84 1 C56.28 1 28.56 1 0 1 C0 0.67 0 0.34 0 0 Z " fill="#F6FEFD" transform="translate(251,261)"/>
<path d="M0 0 C0.90726334 0.00202423 1.81452667 0.00404846 2.74928284 0.00613403 C3.67535843 0.00517731 4.60143402 0.00422058 5.55557251 0.00323486 C7.51849943 0.00255291 9.48142858 0.00440822 11.4443512 0.00857544 C14.45555171 0.01391746 17.46660265 0.00863406 20.47779846 0.00222778 C22.38079358 0.00288868 24.28378861 0.00417008 26.18678284 0.00613403 C27.54464149 0.00309769 27.54464149 0.00309769 28.92993164 0 C29.76742447 0.00315216 30.6049173 0.00630432 31.4677887 0.009552 C32.20645676 0.0103476 32.94512482 0.01114319 33.70617676 0.01196289 C35.53443909 0.13894653 35.53443909 0.13894653 37.53443909 1.13894653 C36.87443909 5.09894653 36.21443909 9.05894653 35.53443909 13.13894653 C35.20443909 13.13894653 34.87443909 13.13894653 34.53443909 13.13894653 C34.53443909 9.17894653 34.53443909 5.21894653 34.53443909 1.13894653 C21.33443909 1.13894653 8.13443909 1.13894653 -5.46556091 1.13894653 C-5.46556091 3.77894653 -5.46556091 6.41894653 -5.46556091 9.13894653 C-5.79556091 9.13894653 -6.12556091 9.13894653 -6.46556091 9.13894653 C-7.34446716 2.98660278 -7.34446716 2.98660278 -7.46556091 1.13894653 C-5.52133039 -0.80528399 -2.5871617 0.00977436 0 0 Z " fill="#285F9B" transform="translate(170.46556091308594,316.8610534667969)"/>
<path d="M0 0 C4.24821621 6.37232432 4.16261568 13.98873719 4.00390625 21.4375 C3.99889751 24.72323477 4.42576432 27.76992431 5 31 C4.01 31.33 3.02 31.66 2 32 C1.66002426 28.35475481 1.32925063 24.70872831 1 21.0625 C0.90460938 20.04091797 0.80921875 19.01933594 0.7109375 17.96679688 C0.17253448 11.94822031 -0.10081112 6.04236648 0 0 Z " fill="#CCDAE6" transform="translate(160,265)"/>
<path d="M0 0 C0.33 0 0.66 0 1 0 C1 19.47 1 38.94 1 59 C0.67 59 0.34 59 0 59 C0 39.53 0 20.06 0 0 Z " fill="#000000" transform="translate(155,32)"/>
<path d="M0 0 C0.33 0 0.66 0 1 0 C1.74926071 3.66305234 2.2380014 6.42355152 1 10 C1.66 10.33 2.32 10.66 3 11 C2.67 11.99 2.34 12.98 2 14 C2.39975316 16.24476772 2.88965599 18.47421022 3.4375 20.6875 C3.72496094 21.86699219 4.01242188 23.04648438 4.30859375 24.26171875 C4.53675781 25.16535156 4.76492187 26.06898438 5 27 C4.34 27.33 3.68 27.66 3 28 C2.34 27.67 1.68 27.34 1 27 C-1.23172458 17.9686935 -1.12701147 9.1683906 0 0 Z " fill="#CBD7E1" transform="translate(154,189)"/>
<path d="M0 0 C16.17 0 32.34 0 49 0 C49 0.33 49 0.66 49 1 C32.83 1 16.66 1 0 1 C0 0.67 0 0.34 0 0 Z " fill="#000000" transform="translate(294,92)"/>
<path d="M0 0 C16.17 0 32.34 0 49 0 C49 0.33 49 0.66 49 1 C32.83 1 16.66 1 0 1 C0 0.67 0 0.34 0 0 Z " fill="#000000" transform="translate(226,92)"/>
<path d="M0 0 C16.17 0 32.34 0 49 0 C49 0.33 49 0.66 49 1 C32.83 1 16.66 1 0 1 C0 0.67 0 0.34 0 0 Z " fill="#000000" transform="translate(157,92)"/>
<path d="M0 0 C16.17 0 32.34 0 49 0 C49 0.33 49 0.66 49 1 C32.83 1 16.66 1 0 1 C0 0.67 0 0.34 0 0 Z " fill="#000000" transform="translate(226,29)"/>
<path d="M0 0 C15.84 0 31.68 0 48 0 C48 0.33 48 0.66 48 1 C32.16 1 16.32 1 0 1 C0 0.67 0 0.34 0 0 Z " fill="#000000" transform="translate(294,29)"/>
<path d="M0 0 C15.84 0 31.68 0 48 0 C48 0.33 48 0.66 48 1 C32.16 1 16.32 1 0 1 C0 0.67 0 0.34 0 0 Z " fill="#000000" transform="translate(158,29)"/>
<path d="M0 0 C0 0.66 0 1.32 0 2 C-0.99 2 -1.98 2 -3 2 C-3.33 2.99 -3.66 3.98 -4 5 C-8.725109 7.41726629 -13.71529678 8.40651563 -19 8 C-15.71414149 5.24020259 -12.37771204 3.81690532 -8.375 2.3125 C-7.22773438 1.87550781 -6.08046875 1.43851563 -4.8984375 0.98828125 C-2 0 -2 0 0 0 Z " fill="#CCDFF0" transform="translate(211,239)"/>
<path d="M0 0 C-3.45581315 1.50585523 -6.91504753 3.00368289 -10.375 4.5 C-11.35984375 4.92925781 -12.3446875 5.35851562 -13.359375 5.80078125 C-14.30039062 6.20683594 -15.24140625 6.61289062 -16.2109375 7.03125 C-17.08024902 7.40830078 -17.94956055 7.78535156 -18.84521484 8.17382812 C-21 9 -21 9 -23 9 C-23 8.01 -23 7.02 -23 6 C-21.2675 5.62875 -21.2675 5.62875 -19.5 5.25 C-15.62734926 4.29557012 -12.34833241 2.81262002 -8.859375 0.90234375 C-5.41827444 -0.76760211 -3.69845723 -1.23281908 0 0 Z " fill="#E0F8FD" transform="translate(272,251)"/>
<path d="M0 0 C0.33 0 0.66 0 1 0 C1.16311941 8.71782637 0.65655389 17.31238511 0 26 C-0.33 26 -0.66 26 -1 26 C-1.19386492 23.35448944 -1.38038267 20.70882217 -1.5625 18.0625 C-1.61857422 17.30775391 -1.67464844 16.55300781 -1.73242188 15.77539062 C-1.86176157 13.85254042 -1.93516912 11.92610452 -2 10 C-1.67 9.67 -1.34 9.34 -1 9 C-0.76807135 7.48530552 -0.58784762 5.96245438 -0.4375 4.4375 C-0.35371094 3.61121094 -0.26992188 2.78492188 -0.18359375 1.93359375 C-0.12300781 1.29550781 -0.06242187 0.65742188 0 0 Z " fill="#D6F4FC" transform="translate(333,319)"/>
<path d="M0 0 C1.98 0 3.96 0 6 0 C4.6045933 2.79081339 2.98580959 3.03903006 0.125 4.1875 C-0.75929687 4.55230469 -1.64359375 4.91710937 -2.5546875 5.29296875 C-5 6 -5 6 -8 5 C-7.34 5 -6.68 5 -6 5 C-5.67 4.01 -5.34 3.02 -5 2 C-3.35 2 -1.7 2 0 2 C0 1.34 0 0.68 0 0 Z " fill="#2A619C" transform="translate(245,221)"/>
<path d="M0 0 C2.64 0 5.28 0 8 0 C5.09091772 1.93938819 2.59137621 2.96774957 -0.6875 4.125 C-2.17830078 4.65480469 -2.17830078 4.65480469 -3.69921875 5.1953125 C-4.45847656 5.46085937 -5.21773437 5.72640625 -6 6 C-5.67 5.01 -5.34 4.02 -5 3 C-3.67696283 2.6278958 -2.34262065 2.29369827 -1 2 C-0.67 1.34 -0.34 0.68 0 0 Z " fill="#2D64A3" transform="translate(170,252)"/>
<path d="M0 0 C2.97 0.495 2.97 0.495 6 1 C3.57869669 3.42130331 2.19888623 3.52840504 -1.125 4.125 C-2.03507812 4.29257812 -2.94515625 4.46015625 -3.8828125 4.6328125 C-4.58148438 4.75398438 -5.28015625 4.87515625 -6 5 C-6 4.34 -6 3.68 -6 3 C-5.195625 2.87625 -4.39125 2.7525 -3.5625 2.625 C-2.716875 2.41875 -1.87125 2.2125 -1 2 C-0.67 1.34 -0.34 0.68 0 0 Z " fill="#E7FCFE" transform="translate(284,388)"/>
<path d="M0 0 C0.33 0 0.66 0 1 0 C1 7.26 1 14.52 1 22 C0.67 22 0.34 22 0 22 C0 14.74 0 7.48 0 0 Z " fill="#000000" transform="translate(292,32)"/>
<path d="M0 0 C0.33 0 0.66 0 1 0 C1 7.26 1 14.52 1 22 C0.67 22 0.34 22 0 22 C0 14.74 0 7.48 0 0 Z " fill="#000000" transform="translate(224,32)"/>
<path d="M0 0 C0 0.33 0 0.66 0 1 C-9.41002278 3.29612756 -9.41002278 3.29612756 -14 3 C-11.39395012 1.26263341 -9.92766764 0.54996173 -7 -0.1875 C-6.319375 -0.36667969 -5.63875 -0.54585938 -4.9375 -0.73046875 C-3 -1 -3 -1 0 0 Z " fill="#57A0CC" transform="translate(275,396)"/>
<path d="M0 0 C0.33 0 0.66 0 1 0 C1 6.93 1 13.86 1 21 C0.67 21 0.34 21 0 21 C0 14.07 0 7.14 0 0 Z " fill="#000000" transform="translate(344,32)"/>
<path d="M0 0 C0.33 0 0.66 0 1 0 C1 6.93 1 13.86 1 21 C0.67 21 0.34 21 0 21 C0 14.07 0 7.14 0 0 Z " fill="#000000" transform="translate(276,32)"/>
<path d="M0 0 C0.33 0 0.66 0 1 0 C1 6.93 1 13.86 1 21 C0.67 21 0.34 21 0 21 C0 14.07 0 7.14 0 0 Z " fill="#000000" transform="translate(207,32)"/>
<path d="M0 0 C4.571279 0.54855348 8.67435795 1.41744803 13 3 C9.85174359 4.0494188 9.01298497 3.98655124 5.9375 3.1875 C5.24527344 3.01605469 4.55304688 2.84460938 3.83984375 2.66796875 C2 2 2 2 0 0 Z " fill="#3D6FA5" transform="translate(215,392)"/>
<path d="M0 0 C0.33 0 0.66 0 1 0 C1 6.6 1 13.2 1 20 C0.67 20 0.34 20 0 20 C0 13.4 0 6.8 0 0 Z " fill="#000000" transform="translate(344,71)"/>
<path d="M0 0 C0.33 0 0.66 0 1 0 C1 6.6 1 13.2 1 20 C0.67 20 0.34 20 0 20 C0 13.4 0 6.8 0 0 Z " fill="#000000" transform="translate(276,71)"/>
<path d="M0 0 C0 0.66 0 1.32 0 2 C-2.61941217 3.74627478 -4.03824877 4.38722388 -7 5 C-6.625 3.0625 -6.625 3.0625 -6 1 C-4 0 -4 0 0 0 Z " fill="#2770BF" transform="translate(365,436)"/>
<path d="M0 0 C0 0.66 0 1.32 0 2 C-3.4019487 4.09350689 -6.05272412 4.17942163 -10 4 C-7.02096266 1.02096266 -4.19714671 0 0 0 Z " fill="#D4E7F5" transform="translate(178,253)"/>
<path d="M0 0 C-1 3 -1 3 -3 4 C-4.99960012 4.039992 -7.00047242 4.04346799 -9 4 C-6.10130984 1.70103884 -3.84906588 0 0 0 Z " fill="#C4D5E8" transform="translate(235,229)"/>
<path d="M0 0 C0 2.31 0 4.62 0 7 C-0.2475 6.38125 -0.495 5.7625 -0.75 5.125 C-2.20628639 2.64931313 -3.37812506 2.04874998 -6 1 C-3 0 -3 0 0 0 Z " fill="#C6D1DF" transform="translate(250,223)"/>
<path d="M0 0 C0.33 0 0.66 0 1 0 C1 6.27 1 12.54 1 19 C0.67 19 0.34 19 0 19 C0 12.73 0 6.46 0 0 Z " fill="#000000" transform="translate(292,71)"/>
<path d="M0 0 C0.33 0 0.66 0 1 0 C1 6.27 1 12.54 1 19 C0.67 19 0.34 19 0 19 C0 12.73 0 6.46 0 0 Z " fill="#000000" transform="translate(224,71)"/>
<path d="M0 0 C0.33 0 0.66 0 1 0 C1 6.27 1 12.54 1 19 C0.67 19 0.34 19 0 19 C0 12.73 0 6.46 0 0 Z " fill="#000000" transform="translate(207,71)"/>
<path d="M0 0 C0.66 0.33 1.32 0.66 2 1 C0 4 0 4 -1.9453125 4.51171875 C-2.66460937 4.56972656 -3.38390625 4.62773437 -4.125 4.6875 C-6.043125 4.8421875 -6.043125 4.8421875 -8 5 C-5.56159764 2.56159764 -3.14759102 1.37707107 0 0 Z " fill="#579ECF" transform="translate(316,231)"/>
<path d="M0 0 C0 0.66 0 1.32 0 2 C-4.38461538 5 -4.38461538 5 -7 5 C-7 4.01 -7 3.02 -7 2 C-4.35261084 0.5393715 -3.10551666 0 0 0 Z " fill="#4D9DCC" transform="translate(282,247)"/>
<path d="M0 0 C5.28 0 10.56 0 16 0 C16 0.33 16 0.66 16 1 C11.05 1.33 6.1 1.66 1 2 C0.67 1.34 0.34 0.68 0 0 Z " fill="#000000" transform="translate(327,54)"/>
<path d="M0 0 C5.28 0 10.56 0 16 0 C16 0.33 16 0.66 16 1 C11.05 1.33 6.1 1.66 1 2 C0.67 1.34 0.34 0.68 0 0 Z " fill="#000000" transform="translate(259,54)"/>
<path d="M0 0 C0.33 0 0.66 0 1 0 C1 3.96 1 7.92 1 12 C0.67 12 0.34 12 0 12 C0 8.04 0 4.08 0 0 Z " fill="#0E50AB" transform="translate(382,386)"/>
<path d="M0 0 C0.33 0 0.66 0 1 0 C1 3.96 1 7.92 1 12 C0.67 12 0.34 12 0 12 C0 8.04 0 4.08 0 0 Z " fill="#0B4C95" transform="translate(117,386)"/>
<path d="M0 0 C0.33 0 0.66 0 1 0 C1 3.96 1 7.92 1 12 C0.67 12 0.34 12 0 12 C0 8.04 0 4.08 0 0 Z " fill="#19488A" transform="translate(387,332)"/>
<path d="M0 0 C0.33 0 0.66 0 1 0 C1 3.96 1 7.92 1 12 C0.67 12 0.34 12 0 12 C0 8.04 0 4.08 0 0 Z " fill="#144485" transform="translate(112,332)"/>
<path d="M0 0 C0.33 0 0.66 0 1 0 C1 3.63 1 7.26 1 11 C0.67 11 0.34 11 0 11 C0 7.37 0 3.74 0 0 Z " fill="#1C5996" transform="translate(379,419)"/>
<path d="M0 0 C0.33 0 0.66 0 1 0 C1 3.63 1 7.26 1 11 C0.67 11 0.34 11 0 11 C0 7.37 0 3.74 0 0 Z " fill="#0F5494" transform="translate(384,365)"/>
<path d="M0 0 C0.33 0 0.66 0 1 0 C1 3.63 1 7.26 1 11 C0.67 11 0.34 11 0 11 C0 7.37 0 3.74 0 0 Z " fill="#115293" transform="translate(115,365)"/>
<path d="M0 0 C0.33 0 0.66 0 1 0 C1 3.63 1 7.26 1 11 C0.67 11 0.34 11 0 11 C0 7.37 0 3.74 0 0 Z " fill="#1C589F" transform="translate(389,311)"/>
<path d="M0 0 C0.33 0 0.66 0 1 0 C1 3.63 1 7.26 1 11 C0.67 11 0.34 11 0 11 C0 7.37 0 3.74 0 0 Z " fill="#1A508D" transform="translate(110,311)"/>
<path d="M0 0 C0.33 0 0.66 0 1 0 C1 3.63 1 7.26 1 11 C0.67 11 0.34 11 0 11 C0 7.37 0 3.74 0 0 Z " fill="#1359AC" transform="translate(392,278)"/>
<path d="M0 0 C0.33 0 0.66 0 1 0 C1 3.63 1 7.26 1 11 C0.67 11 0.34 11 0 11 C0 7.37 0 3.74 0 0 Z " fill="#0E4EA1" transform="translate(107,278)"/>
<path d="M0 0 C0.33 0 0.66 0 1 0 C1 3.63 1 7.26 1 11 C0.67 11 0.34 11 0 11 C0 7.37 0 3.74 0 0 Z " fill="#1455AF" transform="translate(394,257)"/>
<path d="M0 0 C0.33 0 0.66 0 1 0 C1 3.63 1 7.26 1 11 C0.67 11 0.34 11 0 11 C0 7.37 0 3.74 0 0 Z " fill="#1558B4" transform="translate(105,257)"/>
<path d="M0 0 C0.33 0 0.66 0 1 0 C1 3.63 1 7.26 1 11 C0.67 11 0.34 11 0 11 C0 7.37 0 3.74 0 0 Z " fill="#236491" transform="translate(397,224)"/>
<path d="M0 0 C0.33 0 0.66 0 1 0 C1 3.63 1 7.26 1 11 C0.67 11 0.34 11 0 11 C0 7.37 0 3.74 0 0 Z " fill="#22658F" transform="translate(102,224)"/>
<path d="M0 0 C0.33 0 0.66 0 1 0 C1 3.63 1 7.26 1 11 C0.67 11 0.34 11 0 11 C0 7.37 0 3.74 0 0 Z " fill="#1C5D9D" transform="translate(399,203)"/>
<path d="M0 0 C0.33 0 0.66 0 1 0 C1 3.63 1 7.26 1 11 C0.67 11 0.34 11 0 11 C0 7.37 0 3.74 0 0 Z " fill="#205897" transform="translate(100,203)"/>
<path d="M0 0 C0.33 0 0.66 0 1 0 C1 3.63 1 7.26 1 11 C0.67 11 0.34 11 0 11 C0 7.37 0 3.74 0 0 Z " fill="#0F4CA5" transform="translate(402,170)"/>
<path d="M0 0 C0.33 0 0.66 0 1 0 C1 3.63 1 7.26 1 11 C0.67 11 0.34 11 0 11 C0 7.37 0 3.74 0 0 Z " fill="#1254AF" transform="translate(97,170)"/>
<path d="M0 0 C0.33 0 0.66 0 1 0 C1 3.3 1 6.6 1 10 C0.67 10 0.34 10 0 10 C0 6.7 0 3.4 0 0 Z " fill="#215497" transform="translate(120,420)"/>
<path d="M0 0 C0.33 0 0.66 0 1 0 C1 3.3 1 6.6 1 10 C0.67 10 0.34 10 0 10 C0 6.7 0 3.4 0 0 Z " fill="#094CA6" transform="translate(380,408)"/>
<path d="M0 0 C0.33 0 0.66 0 1 0 C1 3.3 1 6.6 1 10 C0.67 10 0.34 10 0 10 C0 6.7 0 3.4 0 0 Z " fill="#064CA4" transform="translate(119,408)"/>
<path d="M0 0 C0.33 0 0.66 0 1 0 C1 3.3 1 6.6 1 10 C0.67 10 0.34 10 0 10 C0 6.7 0 3.4 0 0 Z " fill="#2970AB" transform="translate(381,398)"/>
<path d="M0 0 C0.33 0 0.66 0 1 0 C1 3.3 1 6.6 1 10 C0.67 10 0.34 10 0 10 C0 6.7 0 3.4 0 0 Z " fill="#2870B5" transform="translate(118,398)"/>
<path d="M0 0 C0.33 0 0.66 0 1 0 C1 3.3 1 6.6 1 10 C0.67 10 0.34 10 0 10 C0 6.7 0 3.4 0 0 Z " fill="#2562A3" transform="translate(116,376)"/>
<path d="M0 0 C0.33 0 0.66 0 1 0 C1 3.3 1 6.6 1 10 C0.67 10 0.34 10 0 10 C0 6.7 0 3.4 0 0 Z " fill="#185995" transform="translate(383,376)"/>
<path d="M0 0 C0.33 0 0.66 0 1 0 C1 3.3 1 6.6 1 10 C0.67 10 0.34 10 0 10 C0 6.7 0 3.4 0 0 Z " fill="#205C9D" transform="translate(114,354)"/>
<path d="M0 0 C0.33 0 0.66 0 1 0 C1 3.3 1 6.6 1 10 C0.67 10 0.34 10 0 10 C0 6.7 0 3.4 0 0 Z " fill="#175297" transform="translate(385,354)"/>
<path d="M0 0 C0.33 0 0.66 0 1 0 C1 3.3 1 6.6 1 10 C0.67 10 0.34 10 0 10 C0 6.7 0 3.4 0 0 Z " fill="#0F519E" transform="translate(386,344)"/>
<path d="M0 0 C0.33 0 0.66 0 1 0 C1 3.3 1 6.6 1 10 C0.67 10 0.34 10 0 10 C0 6.7 0 3.4 0 0 Z " fill="#0C4EAD" transform="translate(113,344)"/>
<path d="M0 0 C0.33 0 0.66 0 1 0 C1 3.3 1 6.6 1 10 C0.67 10 0.34 10 0 10 C0 6.7 0 3.4 0 0 Z " fill="#14599B" transform="translate(388,322)"/>
<path d="M0 0 C0.33 0 0.66 0 1 0 C1 3.3 1 6.6 1 10 C0.67 10 0.34 10 0 10 C0 6.7 0 3.4 0 0 Z " fill="#105B97" transform="translate(111,322)"/>
<path d="M0 0 C0.33 0 0.66 0 1 0 C1 3.3 1 6.6 1 10 C0.67 10 0.34 10 0 10 C0 6.7 0 3.4 0 0 Z " fill="#145B9D" transform="translate(390,300)"/>
<path d="M0 0 C0.33 0 0.66 0 1 0 C1 3.3 1 6.6 1 10 C0.67 10 0.34 10 0 10 C0 6.7 0 3.4 0 0 Z " fill="#105D99" transform="translate(109,300)"/>
<path d="M0 0 C0.33 0 0.66 0 1 0 C1 3.3 1 6.6 1 10 C0.67 10 0.34 10 0 10 C0 6.7 0 3.4 0 0 Z " fill="#185585" transform="translate(391,290)"/>
<path d="M0 0 C0.33 0 0.66 0 1 0 C1 3.3 1 6.6 1 10 C0.67 10 0.34 10 0 10 C0 6.7 0 3.4 0 0 Z " fill="#1A4A7E" transform="translate(108,290)"/>
<path d="M0 0 C0.33 0 0.66 0 1 0 C1 3.3 1 6.6 1 10 C0.67 10 0.34 10 0 10 C0 6.7 0 3.4 0 0 Z " fill="#144886" transform="translate(106,268)"/>
<path d="M0 0 C0.33 0 0.66 0 1 0 C1 3.3 1 6.6 1 10 C0.67 10 0.34 10 0 10 C0 6.7 0 3.4 0 0 Z " fill="#154D96" transform="translate(393,268)"/>
<path d="M0 0 C0.33 0 0.66 0 1 0 C1 3.3 1 6.6 1 10 C0.67 10 0.34 10 0 10 C0 6.7 0 3.4 0 0 Z " fill="#154B8E" transform="translate(395,246)"/>
<path d="M0 0 C0.33 0 0.66 0 1 0 C1 3.3 1 6.6 1 10 C0.67 10 0.34 10 0 10 C0 6.7 0 3.4 0 0 Z " fill="#1D5A93" transform="translate(104,246)"/>
<path d="M0 0 C0.33 0 0.66 0 1 0 C1 3.3 1 6.6 1 10 C0.67 10 0.34 10 0 10 C0 6.7 0 3.4 0 0 Z " fill="#1658A4" transform="translate(396,236)"/>
<path d="M0 0 C0.33 0 0.66 0 1 0 C1 3.3 1 6.6 1 10 C0.67 10 0.34 10 0 10 C0 6.7 0 3.4 0 0 Z " fill="#12569C" transform="translate(103,236)"/>
<path d="M0 0 C0.33 0 0.66 0 1 0 C1 3.3 1 6.6 1 10 C0.67 10 0.34 10 0 10 C0 6.7 0 3.4 0 0 Z " fill="#084894" transform="translate(101,214)"/>
<path d="M0 0 C0.33 0 0.66 0 1 0 C1 3.3 1 6.6 1 10 C0.67 10 0.34 10 0 10 C0 6.7 0 3.4 0 0 Z " fill="#094698" transform="translate(400,192)"/>
<path d="M0 0 C0.33 0 0.66 0 1 0 C1 3.3 1 6.6 1 10 C0.67 10 0.34 10 0 10 C0 6.7 0 3.4 0 0 Z " fill="#0A4D99" transform="translate(99,192)"/>
<path d="M0 0 C0.33 0 0.66 0 1 0 C1 3.3 1 6.6 1 10 C0.67 10 0.34 10 0 10 C0 6.7 0 3.4 0 0 Z " fill="#195FAA" transform="translate(401,181)"/>
<path d="M0 0 C0.33 0 0.66 0 1 0 C1 3.3 1 6.6 1 10 C0.67 10 0.34 10 0 10 C0 6.7 0 3.4 0 0 Z " fill="#1A599B" transform="translate(98,181)"/>
<path d="M0 0 C0.33 0 0.66 0 1 0 C1 3.3 1 6.6 1 10 C0.67 10 0.34 10 0 10 C0 6.7 0 3.4 0 0 Z " fill="#0C4596" transform="translate(403,159)"/>
<path d="M0 0 C0.33 0 0.66 0 1 0 C1 3.3 1 6.6 1 10 C0.67 10 0.34 10 0 10 C0 6.7 0 3.4 0 0 Z " fill="#0E55A4" transform="translate(404,149)"/>
<path d="M0 0 C0.33 0 0.66 0 1 0 C1 3.3 1 6.6 1 10 C0.67 10 0.34 10 0 10 C0 6.7 0 3.4 0 0 Z " fill="#1258A9" transform="translate(95,149)"/>
<path d="M0 0 C0.33 0 0.66 0 1 0 C1 3.3 1 6.6 1 10 C0.67 10 0.34 10 0 10 C0 6.7 0 3.4 0 0 Z " fill="#0F4692" transform="translate(405,137)"/>
<path d="M0 0 C0.33 0 0.66 0 1 0 C1 3.3 1 6.6 1 10 C0.67 10 0.34 10 0 10 C0 6.7 0 3.4 0 0 Z " fill="#124A92" transform="translate(94,137)"/>
<path d="M0 0 C0.33 0 0.66 0 1 0 C1 3.3 1 6.6 1 10 C0.67 10 0.34 10 0 10 C0 6.7 0 3.4 0 0 Z " fill="#115BB3" transform="translate(406,127)"/>
<path d="M0 0 C0.33 0 0.66 0 1 0 C1 3.3 1 6.6 1 10 C0.67 10 0.34 10 0 10 C0 6.7 0 3.4 0 0 Z " fill="#155BB7" transform="translate(93,127)"/>
<path d="M0 0 C0.33 0 0.66 0 1 0 C1 2.97 1 5.94 1 9 C0.67 9 0.34 9 0 9 C0 6.03 0 3.06 0 0 Z " fill="#0950AE" transform="translate(398,214)"/>
<path d="M0 0 C0.33 0 0.66 0 1 0 C1 2.97 1 5.94 1 9 C0.67 9 0.34 9 0 9 C0 6.03 0 3.06 0 0 Z " fill="#114C95" transform="translate(96,160)"/>
<path d="M0 0 C0.33 0 0.66 0 1 0 C1 2.97 1 5.94 1 9 C0.67 9 0.34 9 0 9 C0 6.03 0 3.06 0 0 Z " fill="#143C8D" transform="translate(407,118)"/>
<path d="M0 0 C0.33 0 0.66 0 1 0 C1 2.97 1 5.94 1 9 C0.67 9 0.34 9 0 9 C0 6.03 0 3.06 0 0 Z " fill="#163E90" transform="translate(92,118)"/>
<path d="M0 0 C4 1 4 1 4 1 Z " fill="#0B4A96" transform="translate(258,467)"/>
<path d="M0 0 C4 1 4 1 4 1 Z " fill="#1F59A0" transform="translate(238,467)"/>
<path d="M0 0 C4 1 4 1 4 1 Z " fill="#062FAE" transform="translate(269,464)"/>
<path d="M0 0 C4 1 4 1 4 1 Z " fill="#23B1DB" transform="translate(227,464)"/>
<path d="M0 0 C4 1 4 1 4 1 Z " fill="#0D489A" transform="translate(295,457)"/>
<path d="M0 0 C4 1 4 1 4 1 Z " fill="#0D469F" transform="translate(201,457)"/>
<path d="M0 0 C4 1 4 1 4 1 Z " fill="#054588" transform="translate(306,454)"/>
<path d="M0 0 C4 1 4 1 4 1 Z " fill="#0A469B" transform="translate(190,454)"/>
<path d="M0 0 C4 1 4 1 4 1 Z " fill="#154B98" transform="translate(310,453)"/>
<path d="M0 0 C4 1 4 1 4 1 Z " fill="#0E4089" transform="translate(186,453)"/>
<path d="M0 0 C4 1 4 1 4 1 Z " fill="#0549A7" transform="translate(175,450)"/>
<path d="M0 0 C4 1 4 1 4 1 Z " fill="#1A669F" transform="translate(325,449)"/>
<path d="M0 0 C4 1 4 1 4 1 Z " fill="#255F95" transform="translate(171,449)"/>
<path d="M0 0 C4 1 4 1 4 1 Z " fill="#1E5BAD" transform="translate(336,446)"/>
<path d="M0 0 C4 1 4 1 4 1 Z " fill="#043B84" transform="translate(149,443)"/>
<path d="M0 0 C4 1 4 1 4 1 Z " fill="#2058DE" transform="translate(351,442)"/>
<path d="M0 0 C4 1 4 1 4 1 Z " fill="#1E5BE1" transform="translate(145,442)"/>
<path d="M0 0 C4 1 4 1 4 1 Z " fill="#29599F" transform="translate(362,439)"/>
<path d="M0 0 C4 1 4 1 4 1 Z " fill="#2757B3" transform="translate(134,439)"/>
<path d="M0 0 C4 1 4 1 4 1 Z " fill="#278AD6" transform="translate(373,436)"/>
<path d="M0 0 C4 1 4 1 4 1 Z " fill="#379FD7" transform="translate(123,436)"/>
<path d="M0 0 C1 4 1 4 1 4 Z " fill="#0A40AE" transform="translate(378,430)"/>
<path d="M0 0 C1 4 1 4 1 4 Z " fill="#063EA5" transform="translate(121,430)"/>
<path d="M0 0 C3 1 3 1 3 1 Z " fill="#356294" transform="translate(251,469)"/>
<path d="M0 0 C3 1 3 1 3 1 Z " fill="#1E5FC2" transform="translate(235,466)"/>
<path d="M0 0 C3 1 3 1 3 1 Z " fill="#0F5EAB" transform="translate(284,460)"/>
<path d="M0 0 C3 1 3 1 3 1 Z " fill="#1059AF" transform="translate(213,460)"/>
<path d="M0 0 C3 1 3 1 3 1 Z " fill="#115DB7" transform="translate(329,448)"/>
<path d="M0 0 C3 1 3 1 3 1 Z " fill="#0B5C99" transform="translate(168,448)"/>
<path d="M0 0 C3 1 3 1 3 1 Z " fill="#125B99" transform="translate(340,445)"/>
<path d="M0 0 C3 1 3 1 3 1 Z " fill="#1294BF" transform="translate(344,444)"/>
<path d="M0 0 C3 1 3 1 3 1 Z " fill="#0E59A4" transform="translate(153,444)"/>
<path d="M0 0 C3 1 3 1 3 1 Z " fill="#3076B6" transform="translate(355,441)"/>
<path d="M0 0 C3 1 3 1 3 1 Z " fill="#1A66A8" transform="translate(142,441)"/>
<path d="M0 0 C3 1 3 1 3 1 Z " fill="#0C5B9B" transform="translate(366,438)"/>
<path d="M0 0 C3 1 3 1 3 1 Z " fill="#075BB0" transform="translate(131,438)"/>
<path d="M0 0 C0.66 0 1.32 0 2 0 C1.67 0.66 1.34 1.32 1 2 C0.67 1.34 0.34 0.68 0 0 Z " fill="#000000" transform="translate(340,67)"/>
<path d="M0 0 C0.66 0 1.32 0 2 0 C1.67 0.66 1.34 1.32 1 2 C0.67 1.34 0.34 0.68 0 0 Z " fill="#000000" transform="translate(338,65)"/>
<path d="" fill="#000000" transform="translate(0,0)"/>
<path d="" fill="#000000" transform="translate(0,0)"/>
<path d="" fill="#000000" transform="translate(0,0)"/>
<path d="" fill="#000000" transform="translate(0,0)"/>
<path d="" fill="#000000" transform="translate(0,0)"/>
<path d="" fill="#000000" transform="translate(0,0)"/>
<path d="" fill="#000000" transform="translate(0,0)"/>
<path d="" fill="#000000" transform="translate(0,0)"/>
<path d="" fill="#000000" transform="translate(0,0)"/>
<path d="" fill="#000000" transform="translate(0,0)"/>
<path d="" fill="#000000" transform="translate(0,0)"/>
<path d="" fill="#000000" transform="translate(0,0)"/>
<path d="" fill="#000000" transform="translate(0,0)"/>
<path d="" fill="#000000" transform="translate(0,0)"/>
<path d="" fill="#000000" transform="translate(0,0)"/>
<path d="" fill="#000000" transform="translate(0,0)"/>
<path d="" fill="#000000" transform="translate(0,0)"/>
<path d="" fill="#000000" transform="translate(0,0)"/>
<path d="" fill="#000000" transform="translate(0,0)"/>
<path d="" fill="#000000" transform="translate(0,0)"/>
<path d="" fill="#000000" transform="translate(0,0)"/>
<path d="" fill="#000000" transform="translate(0,0)"/>
<path d="" fill="#000000" transform="translate(0,0)"/>
<path d="" fill="#000000" transform="translate(0,0)"/>
<path d="" fill="#000000" transform="translate(0,0)"/>
<path d="" fill="#000000" transform="translate(0,0)"/>
<path d="" fill="#000000" transform="translate(0,0)"/>
<path d="" fill="#000000" transform="translate(0,0)"/>
<path d="" fill="#000000" transform="translate(0,0)"/>
<path d="" fill="#000000" transform="translate(0,0)"/>
<path d="" fill="#000000" transform="translate(0,0)"/>
<path d="" fill="#000000" transform="translate(0,0)"/>
<path d="" fill="#000000" transform="translate(0,0)"/>
<path d="" fill="#000000" transform="translate(0,0)"/>
<path d="" fill="#000000" transform="translate(0,0)"/>
</svg>
