<?xml version="1.0" encoding="UTF-8"?>
<svg version="1.1" xmlns="http://www.w3.org/2000/svg" width="500" height="209">
<path d="M0 0 C0.81339844 -0.01933594 1.62679687 -0.03867188 2.46484375 -0.05859375 C9.79123614 1.34058194 15.13545005 8.22732927 20.15722656 13.2734375 C21.05221863 14.16492493 21.94721069 15.05641235 22.86932373 15.97491455 C25.31172082 18.40823361 27.74779703 20.84778842 30.182477 23.28882599 C32.73565445 25.84708413 35.29372752 28.40043961 37.85101318 30.95458984 C42.14158311 35.24152747 46.42793273 39.5326509 50.71191406 43.82617188 C55.66264907 48.7878039 60.62056651 53.74217128 65.58224893 58.69285393 C69.84762544 62.94915316 74.10909051 67.20933911 78.36731315 71.47279549 C80.90828124 74.01687905 83.45057531 76.55959799 85.99640656 79.09881592 C88.83180627 81.92736294 91.65895914 84.76401504 94.48535156 87.6015625 C95.75082825 88.86096649 95.75082825 88.86096649 97.04187012 90.14581299 C97.81005066 90.91963318 98.5782312 91.69345337 99.36968994 92.49072266 C100.03849308 93.16027985 100.70729622 93.82983704 101.39636612 94.51968384 C104.2533297 97.80821365 105.35244232 100.5364053 105.375 104.875 C105.39175781 105.61621094 105.40851563 106.35742188 105.42578125 107.12109375 C104.67422321 111.9132864 101.47898751 115.27088995 98.14659119 118.60064697 C97.35442703 119.39700562 96.56226288 120.19336426 95.74609375 121.01385498 C94.88105225 121.87327698 94.01601074 122.73269897 93.12475586 123.61816406 C92.21069473 124.53412354 91.29663361 125.45008301 90.35487366 126.39379883 C87.85542366 128.89808265 85.34979071 131.3960939 82.84284663 133.89287281 C80.21929545 136.50762461 77.60103361 139.1276631 74.98207092 141.74700928 C70.58642092 146.14172382 66.1869209 150.53255374 61.78491211 154.92089844 C56.69247847 159.9975834 51.60531382 165.07949953 46.52111524 170.16443086 C41.63002685 175.05612899 36.73609027 179.94496661 31.84054756 184.83220673 C29.75647344 186.91274667 27.67325396 188.9941369 25.59068108 191.0761795 C22.68706669 193.97860538 19.77921836 196.8767523 16.87084961 199.77441406 C16.00378387 200.64193298 15.13671814 201.5094519 14.24337769 202.40325928 C13.45403336 203.18833862 12.66468903 203.97341797 11.85142517 204.7822876 C11.16397689 205.46806004 10.47652861 206.15383247 9.76824856 206.86038589 C6.92722507 209.48716122 4.7308762 209.72616985 0.9375 209.9375 C0.02742188 210.0096875 -0.88265625 210.081875 -1.8203125 210.15625 C-9.77091299 208.32302883 -16.48590055 199.03248149 -22.09155273 193.4128418 C-22.968936 192.53721085 -23.84631927 191.6615799 -24.75028992 190.75941467 C-27.13185422 188.38147151 -29.51118035 186.00133423 -31.88933825 183.61998725 C-34.38574419 181.12103226 -36.88460858 178.62453747 -39.3830719 176.12763977 C-43.56992334 171.9426006 -47.75467711 167.75547262 -51.93823242 163.56713867 C-56.77616083 158.72374808 -61.6177099 153.88399913 -66.46111339 149.04608411 C-70.62785199 144.8838781 -74.79264564 140.71973346 -78.95580822 136.55395061 C-81.43905787 134.06914174 -83.92297891 131.58501415 -86.40865898 129.10263634 C-89.17170452 126.34300656 -91.93066578 123.57931626 -94.68920898 120.81518555 C-95.51461182 119.99180695 -96.34001465 119.16842834 -97.19042969 118.32009888 C-98.31106056 117.19523827 -98.31106056 117.19523827 -99.45433044 116.0476532 C-100.43289835 115.06851975 -100.43289835 115.06851975 -101.43123531 114.06960583 C-104.02717912 111.25678345 -104.2028103 109.0589304 -104.375 105.3125 C-104.43558594 104.40242188 -104.49617188 103.49234375 -104.55859375 102.5546875 C-102.63025852 92.87662769 -91.22827042 84.47624403 -84.4453125 77.75 C-83.13065514 76.43907862 -81.81644297 75.12771066 -80.50265503 73.81591797 C-77.06464081 70.38549413 -73.62066067 66.9611225 -70.175354 63.5380249 C-66.65230425 60.03553314 -63.13499796 56.5272838 -59.6171875 53.01953125 C-52.72953119 46.15324367 -45.8355512 39.29334343 -38.9375 32.4375 C-33.43542448 35.02542142 -29.47608347 39.33764817 -25.18139648 43.54833984 C-24.14452071 44.55707765 -23.09788641 45.55588157 -22.04174805 46.54443359 C-13.21374822 54.80993896 -13.21374822 54.80993896 -12.53637695 58.80078125 C-12.84375 60.9140625 -12.84375 60.9140625 -13.9375 64.4375 C-12.45468162 69.12008436 -10.70764643 72.2754417 -6.9375 75.4375 C-6.2775 75.7675 -5.6175 76.0975 -4.9375 76.4375 C-4.79830702 84.0435071 -4.69178219 91.64938171 -4.62662697 99.25637341 C-4.5953501 102.78896852 -4.55294935 106.32069058 -4.48486328 109.8527832 C-4.40702674 113.91626218 -4.3780527 117.97882833 -4.3515625 122.04296875 C-4.32059479 123.3077153 -4.28962708 124.57246185 -4.25772095 125.87553406 C-4.25442018 134.47619286 -4.25442018 134.47619286 -6.26702881 137.30856323 C-7.89208984 138.65454102 -7.89208984 138.65454102 -10.9375 140.4375 C-13.62961739 144.37952903 -14.27222039 148.37834543 -13.5625 153.0625 C-12.15634052 158.04875877 -9.38867329 160.89526485 -4.9375 163.4375 C0.02865294 164.97249273 3.58911544 164.43151541 8.265625 162.46484375 C11.59567538 160.56092364 13.38383781 157.79482438 15.0625 154.4375 C15.87447272 147.9017852 14.89881462 143.76571475 11.0625 138.4375 C10.36545959 137.99298996 9.66841919 137.54847992 8.95025635 137.09049988 C7.0625 135.4375 7.0625 135.4375 6.58148193 132.91279602 C6.5948056 131.40389046 6.5948056 131.40389046 6.60839844 129.86450195 C6.60870056 128.72354568 6.60900269 127.58258942 6.60931396 126.40705872 C6.62995911 125.17573715 6.65060425 123.94441559 6.671875 122.67578125 C6.67753479 121.41485153 6.68319458 120.15392181 6.68902588 118.8547821 C6.70763944 115.50554732 6.74356434 112.15740283 6.7878418 108.80847168 C6.82879143 105.38998837 6.84703612 101.97139236 6.8671875 98.55273438 C6.91133789 91.84735451 6.97831358 85.14249021 7.0625 78.4375 C12.55483512 81.05511952 16.45845493 85.18495515 20.8125 89.375 C21.70066406 90.18001953 22.58882813 90.98503906 23.50390625 91.81445312 C29.79292644 97.90543197 29.79292644 97.90543197 30.5859375 102.41235352 C30.546875 105.375 30.546875 105.375 30.24121094 108.0859375 C29.99860207 111.27829904 31.14314758 112.95833645 33.0625 115.4375 C33.0625 116.0975 33.0625 116.7575 33.0625 117.4375 C34.238125 117.9015625 34.238125 117.9015625 35.4375 118.375 C38.0625 119.4375 38.0625 119.4375 40.0625 120.4375 C45.63585568 120.80905705 49.29901851 120.68532829 54.0625 117.4375 C57.73806775 113.16589424 59.47228483 109.04840003 59.0625 103.4375 C58.04773608 99.53456183 56.50081011 96.59073964 53.328125 94.046875 C49.51710873 91.85496706 49.51710873 91.85496706 45.21069336 91.72998047 C40.96828315 92.30533611 38.76728817 91.92395608 35.18041992 89.44824219 C32.49643022 87.15989364 30.00885289 84.69342873 27.55688477 82.16015625 C26.00391332 80.5665158 24.40681558 79.03006994 22.79882812 77.4921875 C15.45204539 70.22271253 15.45204539 70.22271253 14.44042969 65.58666992 C14.48046875 62.92578125 14.48046875 62.92578125 14.83666992 60.58325195 C15.256874 56.59063178 13.46502849 54.53549726 11.0625 51.4375 C8.48170069 49.31308114 8.48170069 49.31308114 5.0625 48.4375 C3.5882855 48.66370131 2.11435572 48.89176164 0.640625 49.12109375 C-3.91451698 49.17054293 -6.22723591 47.80938144 -9.57418823 44.75428772 C-12.31581851 42.05246862 -14.94773673 39.2615391 -17.5625 36.4375 C-18.6708067 35.27897771 -19.78146574 34.12270096 -20.89453125 32.96875 C-23.60340554 30.15022871 -26.278404 27.30299825 -28.9375 24.4375 C-27.49998766 21.1553557 -25.72180651 18.96467609 -23.19921875 16.43359375 C-22.46123047 15.69302734 -21.72324219 14.95246094 -20.96289062 14.18945312 C-20.19138672 13.42568359 -19.41988281 12.66191406 -18.625 11.875 C-17.48514648 10.72354492 -17.48514648 10.72354492 -16.32226562 9.54882812 C-15.20948242 8.43991211 -15.20948242 8.43991211 -14.07421875 7.30859375 C-13.40092529 6.63755615 -12.72763184 5.96651855 -12.03393555 5.27514648 C-8.24650573 1.95524614 -5.08837033 0.0080385 0 0 Z " fill="#EF5233" transform="translate(103.9375,-0.4375)"/>
<path d="M0 0 C0.87205078 -0.00386719 1.74410156 -0.00773437 2.64257812 -0.01171875 C3.9197168 -0.00978516 3.9197168 -0.00978516 5.22265625 -0.0078125 C5.98457275 -0.00668457 6.74648926 -0.00555664 7.53149414 -0.00439453 C9.9375 0.125 9.9375 0.125 12.63500977 0.61352539 C16.92803711 1.27840986 21.15397701 1.35767153 25.4921875 1.44140625 C26.39373566 1.46218735 27.29528381 1.48296844 28.22415161 1.50437927 C31.0868614 1.5694458 33.94965819 1.62855914 36.8125 1.6875 C38.76042544 1.73072607 40.70834229 1.77434164 42.65625 1.81835938 C47.41657904 1.92581144 52.17697976 2.02520319 56.9375 2.125 C56.9375 8.065 56.9375 14.005 56.9375 20.125 C51.3275 20.785 45.7175 21.445 39.9375 22.125 C40.741875 23.548125 41.54625 24.97125 42.375 26.4375 C46.78979443 35.34234103 46.8886474 44.68406087 43.9375 54.125 C39.81656214 63.63378567 33.18013859 69.54473392 23.6875 73.5 C18.23951602 75.54744496 13.54080726 76.24605895 7.71875 75.94140625 C6.53925781 75.90208984 5.35976563 75.86277344 4.14453125 75.82226562 C1.67203353 75.7323803 -0.79962043 75.61514996 -3.26953125 75.47070312 C-9.66768943 75.05377383 -9.66768943 75.05377383 -15.01953125 77.93701172 C-16.28936638 79.96561805 -17.25919709 81.87442146 -18.0625 84.125 C-16.68868164 84.20016846 -16.68868164 84.20016846 -15.28710938 84.27685547 C-11.80522772 84.47004996 -8.323701 84.66827417 -4.84228516 84.86962891 C-3.35118369 84.95489858 -1.85997439 85.03830821 -0.36865234 85.11962891 C38.70480548 87.25666475 38.70480548 87.25666475 48.9375 96.125 C55.37922394 104.16914283 55.68787146 112.03786361 54.9375 122.125 C53.33455309 129.74382596 50.06092133 136.21588426 43.9375 141.125 C23.25265865 153.75444244 -3.6745593 155.46224801 -27.0625 150.125 C-35.03102873 147.99124705 -42.23691935 145.86698518 -47.375 139.0625 C-50.9920857 132.76609156 -50.76970405 126.22061399 -50.0625 119.125 C-48.2071472 114.26397568 -44.93028646 110.56303241 -41.0625 107.125 C-41.48402344 106.72667969 -41.90554688 106.32835937 -42.33984375 105.91796875 C-42.88769531 105.38816406 -43.43554688 104.85835938 -44 104.3125 C-44.54527344 103.79042969 -45.09054688 103.26835937 -45.65234375 102.73046875 C-48.71321254 99.24565691 -48.39715229 95.01084198 -48.33984375 90.6171875 C-47.9271693 86.90892975 -46.44767346 84.94954751 -44.0625 82.125 C-43.60359375 81.55007812 -43.1446875 80.97515625 -42.671875 80.3828125 C-39.47034302 76.45672328 -36.04232327 73.252004 -32.0625 70.125 C-32.76375 69.444375 -33.465 68.76375 -34.1875 68.0625 C-35.1481078 67.08556459 -36.10625801 66.10620915 -37.0625 65.125 C-37.56652344 64.62871094 -38.07054687 64.13242188 -38.58984375 63.62109375 C-45.97723995 55.82015374 -47.67146476 46.82167142 -47.53295898 36.40283203 C-47.10018486 26.0785726 -43.50804704 17.41424739 -36.0625 10.125 C-25.11968789 1.84542196 -13.4115585 -0.05973968 0 0 Z M-14.3125 26.5 C-17.95735737 31.96728606 -18.79662321 36.63259786 -18.0625 43.125 C-16.37736224 47.82564745 -14.38706659 50.60233616 -10.0625 53.125 C-1.66523706 55.68240818 4.43623467 55.50302697 12.25 51.375 C16.0864665 48.16307456 17.64098563 45.5483644 18.25390625 40.5390625 C18.52419534 34.1741903 17.93259467 30.14447792 13.9375 25.125 C8.59098859 20.68853308 3.80849184 20.56937528 -3.03125 20.8046875 C-8.12029122 21.34244701 -10.83529507 22.82961702 -14.3125 26.5 Z M-23.5625 114.40234375 C-25.44280058 117.81528518 -26.0625 120.2203729 -26.0625 124.125 C-24.57237634 127.24716386 -23.19013408 128.65792794 -19.97949219 129.98779297 C-13.75443771 131.91828457 -8.12819024 132.60312056 -1.625 132.5 C-0.70920166 132.49129883 0.20659668 132.48259766 1.15014648 132.47363281 C12.41887123 132.25165692 12.41887123 132.25165692 22.1796875 127.23828125 C24.25044679 125.11539384 24.25044679 125.11539384 24.5 121.5625 C24.31400255 118.07524337 24.31400255 118.07524337 21.96875 116.48046875 C17.94375594 114.68063249 14.24026975 114.34478204 9.875 114 C9.00681641 113.92579834 8.13863281 113.85159668 7.24414062 113.77514648 C5.41315628 113.62393561 3.58157601 113.47979464 1.74951172 113.34228516 C-1.06465853 113.12483321 -3.87312195 112.86596107 -6.68359375 112.60546875 C-8.47635765 112.46353427 -10.26932373 112.3241261 -12.0625 112.1875 C-12.90433838 112.1054834 -13.74617676 112.0234668 -14.61352539 111.93896484 C-19.57534398 111.57847528 -19.57534398 111.57847528 -23.5625 114.40234375 Z " fill="#403000" transform="translate(299.0625,50.875)"/>
<path d="M0 0 C6.6 0 13.2 0 20 0 C20.495 14.355 20.495 14.355 21 29 C30.57 29.33 40.14 29.66 50 30 C50 36.93 50 43.86 50 51 C40.1 51 30.2 51 20 51 C20.09731321 57.65315019 20.20028034 64.3057318 20.31738281 70.95849609 C20.35549144 73.21820882 20.39037475 75.47797846 20.421875 77.73779297 C20.46792123 80.99988042 20.52584814 84.26158204 20.5859375 87.5234375 C20.59748871 88.52176605 20.60903992 89.5200946 20.62094116 90.54867554 C20.47622717 101.26066733 20.47622717 101.26066733 24.46054077 110.73495483 C28.04476633 113.68027948 31.90293339 113.00844057 36.3125 112.625 C38.02953125 112.47611328 38.02953125 112.47611328 39.78125 112.32421875 C43.21093844 111.97875256 46.59840827 111.55374749 50 111 C52.80659704 117.25105705 55.15441523 123.03943649 55 130 C39.39870665 135.96721001 21.44954051 140.88637805 5.01171875 134.9140625 C-2.4730671 131.51320835 -6.51066781 126.89104357 -9.38671875 119.35546875 C-11.42063467 111.54367702 -11.13133215 103.53960787 -11.09765625 95.53125 C-11.0962413 94.25519897 -11.09482635 92.97914795 -11.09336853 91.66442871 C-11.08874011 88.29761844 -11.07977971 84.93087793 -11.06866455 81.56408691 C-11.0583733 78.11825152 -11.0538545 74.67240888 -11.04882812 71.2265625 C-11.03783326 64.48435349 -11.02058634 57.74218627 -11 51 C-15.95 51 -20.9 51 -26 51 C-26 44.73 -26 38.46 -26 32 C-24.515 31.608125 -23.03 31.21625 -21.5 30.8125 C-14.68217315 28.71989968 -9.10630128 26.3297687 -5.1875 20.125 C-2.02004817 13.82219889 -1.17923195 6.88919719 0 0 Z " fill="#402F00" transform="translate(445,19)"/>
<path d="M0 0 C13.86 0 27.72 0 42 0 C42.06058594 6.12433594 42.12117188 12.24867187 42.18359375 18.55859375 C42.22406649 22.42774179 42.26482865 26.29688239 42.30664062 30.16601562 C42.37304626 36.31353296 42.43835291 42.46104875 42.49731445 48.60864258 C42.5448924 53.56236462 42.59723256 58.51601512 42.65294075 63.46965218 C42.67339418 65.36395561 42.6921022 67.25827868 42.70907402 69.1526165 C42.73305216 71.796397 42.7631153 74.44004098 42.79467773 77.08374023 C42.80331093 78.27056648 42.80331093 78.27056648 42.81211853 79.48136902 C42.53509915 83.03670696 42.53509915 83.03670696 44 86 C46.01311449 86.39569108 48.03597208 86.74252191 50.0625 87.0625 C53.0015625 87.5265625 53.0015625 87.5265625 56 88 C56 93.61 56 99.22 56 105 C36.86 105 17.72 105 -2 105 C-2 99.39 -2 93.78 -2 88 C4.435 87.01 4.435 87.01 11 86 C10.505 54.32 10.505 54.32 10 22 C6.04 20.35 2.08 18.7 -2 17 C-1.125 5.625 -1.125 5.625 0 0 Z " fill="#403000" transform="translate(366,51)"/>
<path d="M0 0 C1.20269531 -0.02578125 2.40539062 -0.0515625 3.64453125 -0.078125 C8.44258389 0.3662371 11.67140382 2.07081408 15.4375 5 C19.27971065 9.93998513 19.93009241 16.1584216 19.1875 22.25 C18.18729678 26.53993412 16.95080722 29.48669278 13.8125 32.625 C7.26387994 36.67890766 0.62478239 37.45715784 -6.90625 35.78515625 C-11.62042211 34.0380179 -13.99700864 31.22481133 -16.8125 27.25 C-18.8634828 21.09705161 -18.66421714 13.80515143 -16.625 7.6875 C-11.96512551 1.42077223 -7.56749938 0.09670926 0 0 Z " fill="#3F3001" transform="translate(389.8125,-0.25)"/>
<path d="M0 0 C0.33 1.32 0.66 2.64 1 4 C-3.29 4 -7.58 4 -12 4 C-12.33 3.34 -12.66 2.68 -13 2 C-8.49646738 0.24252386 -4.82360189 -0.19294408 0 0 Z " fill="#CD5F48" transform="translate(111,44)"/>
<path d="M0 0 C0 4.35637821 -2.27897057 6.05610053 -5.109375 9.19140625 C-7.24427494 11.23367623 -9.12212703 12.30233382 -12 13 C-8.19524578 8.43969176 -4.25030379 4.14910608 0 0 Z " fill="#E05C41" transform="translate(28,69)"/>
<path d="M0 0 C0 3.77910478 -0.99703962 4.46106101 -3.5 7.1875 C-4.1496875 7.90292969 -4.799375 8.61835937 -5.46875 9.35546875 C-5.9740625 9.89816406 -6.479375 10.44085938 -7 11 C-7.99 10.67 -8.98 10.34 -10 10 C-6.7 6.7 -3.4 3.4 0 0 Z " fill="#E25B40" transform="translate(49,48)"/>
<path d="M0 0 C0.99 2.97 1.98 5.94 3 9 C-3.875 3.25 -3.875 3.25 -5 1 C-2 0 -2 0 0 0 Z " fill="#DC5A39" transform="translate(18,122)"/>
<path d="M0 0 C3.0916909 2.52956528 3.90931332 5.22454612 5 9 C3.85073734 8.04578192 2.70569459 7.08647955 1.5625 6.125 C0.92441406 5.59132812 0.28632812 5.05765625 -0.37109375 4.5078125 C-2 3 -2 3 -3 1 C-2.01 0.67 -1.02 0.34 0 0 Z " fill="#DB5B39" transform="translate(80,186)"/>
<path d="M0 0 C3.0916909 2.52956528 3.90931332 5.22454612 5 9 C3.85073734 8.04578192 2.70569459 7.08647955 1.5625 6.125 C0.92441406 5.59132812 0.28632812 5.05765625 -0.37109375 4.5078125 C-2 3 -2 3 -3 1 C-2.01 0.67 -1.02 0.34 0 0 Z " fill="#DB5B39" transform="translate(64,170)"/>
<path d="M0 0 C3.0916909 2.52956528 3.90931332 5.22454612 5 9 C3.85073734 8.04578192 2.70569459 7.08647955 1.5625 6.125 C0.92441406 5.59132812 0.28632812 5.05765625 -0.37109375 4.5078125 C-2 3 -2 3 -3 1 C-2.01 0.67 -1.02 0.34 0 0 Z " fill="#DB5B39" transform="translate(48,154)"/>
<path d="M0 0 C2.875 0.625 2.875 0.625 6 2 C7.375 5.125 7.375 5.125 8 8 C6.85073734 7.04578192 5.70569459 6.08647955 4.5625 5.125 C3.92441406 4.59132812 3.28632812 4.05765625 2.62890625 3.5078125 C1 2 1 2 0 0 Z " fill="#DA5B3B" transform="translate(29,139)"/>
<path d="M0 0 C1.98 1.65 3.96 3.3 6 5 C4 6 4 6 1.4375 5.1875 C-1 4 -1 4 -2 2 C-1.34 2 -0.68 2 0 2 C0 1.34 0 0.68 0 0 Z " fill="#DB593F" transform="translate(188,78)"/>
<path d="M0 0 C1.98 1.65 3.96 3.3 6 5 C4 6 4 6 1.4375 5.1875 C-1 4 -1 4 -2 2 C-1.34 2 -0.68 2 0 2 C0 1.34 0 0.68 0 0 Z " fill="#DB593F" transform="translate(172,62)"/>
<path d="M0 0 C0.66 0.33 1.32 0.66 2 1 C1.60196439 3.88575819 1.20990931 4.82189513 -1.0625 6.75 C-1.701875 7.1625 -2.34125 7.575 -3 8 C-3.66 7.67 -4.32 7.34 -5 7 C-4.360625 6.21625 -3.72125 5.4325 -3.0625 4.625 C-1.01857687 2.20460719 -1.01857687 2.20460719 0 0 Z " fill="#DA5831" transform="translate(162,111)"/>
<path d="M0 0 C1.65 1.65 3.3 3.3 5 5 C3.02 5 1.04 5 -1 5 C-0.67 3.35 -0.34 1.7 0 0 Z " fill="#DA5A41" transform="translate(123,13)"/>
</svg>
