<?xml version="1.0" encoding="UTF-8"?>
<svg version="1.1" xmlns="http://www.w3.org/2000/svg" width="500" height="250">
<path d="M0 0 C165 0 330 0 500 0 C500 82.5 500 165 500 250 C335 250 170 250 0 250 C0 167.5 0 85 0 0 Z " fill="#020202" transform="translate(0,0)"/>
<path d="M0 0 C82.5 0 165 0 250 0 C250 82.5 250 165 250 250 C167.5 250 85 250 0 250 C0 167.5 0 85 0 0 Z " fill="#FDFDFD" transform="translate(0,0)"/>
<path d="M0 0 C9.47851438 -0.28782923 17.54584915 1.30405624 26.54296875 4.19921875 C27.52136719 4.48796875 28.49976563 4.77671875 29.5078125 5.07421875 C40.46636295 8.59604845 49.80305462 15.8678733 58.54296875 23.19921875 C59.43048828 23.94171875 59.43048828 23.94171875 60.3359375 24.69921875 C67.82057762 31.55014792 74.31514187 41.45928369 77 51.26171875 C77.57401782 53.49990031 77.57401782 53.49990031 79.10546875 56.63671875 C80.65197983 60.46937666 81.41453273 64.10251134 82.11328125 68.16015625 C82.34598701 70.18427236 82.34598701 70.18427236 83.54296875 71.19921875 C84.66584766 85.49186319 82.22175187 98.42922043 78.54296875 112.19921875 C77.88296875 112.19921875 77.22296875 112.19921875 76.54296875 112.19921875 C75.55296875 115.49921875 74.56296875 118.79921875 73.54296875 122.19921875 C72.88296875 122.19921875 72.22296875 122.19921875 71.54296875 122.19921875 C71.17171875 123.80796875 71.17171875 123.80796875 70.79296875 125.44921875 C69.51097152 129.29521045 68.46042354 130.55527535 65.54296875 133.19921875 C65.25421875 133.81925781 64.96546875 134.43929687 64.66796875 135.078125 C63.31679575 137.6256491 61.72344956 139.07336394 59.54296875 140.94921875 C58.84171875 141.5628125 58.14046875 142.17640625 57.41796875 142.80859375 C55.54296875 144.19921875 55.54296875 144.19921875 53.54296875 144.19921875 C53.54296875 144.85921875 53.54296875 145.51921875 53.54296875 146.19921875 C49.98740284 149.5894095 47.58721343 151.75413834 42.54296875 152.19921875 C42.21296875 153.18921875 41.88296875 154.17921875 41.54296875 155.19921875 C35.86867953 158.68429258 30.21925533 161.07003874 23.54296875 160.19921875 C22.54296875 159.19921875 22.54296875 159.19921875 22.42944336 156.05639648 C22.42960242 154.66519178 22.43529369 153.27398114 22.4453125 151.8828125 C22.44672745 151.15175797 22.4481424 150.42070343 22.44960022 149.66749573 C22.45521467 147.32386243 22.46776953 144.98032336 22.48046875 142.63671875 C22.48548189 141.05143367 22.49004512 139.46614709 22.49414062 137.88085938 C22.50518878 133.98694265 22.52246303 130.0930967 22.54296875 126.19921875 C21.88296875 126.19921875 21.22296875 126.19921875 20.54296875 126.19921875 C17.54296875 120.44921875 17.54296875 120.44921875 17.54296875 118.19921875 C18.3421875 118.06386719 19.14140625 117.92851562 19.96484375 117.7890625 C29.86758118 115.84803298 39.39420737 112.51022868 46.04296875 104.51171875 C51.67977499 95.68961667 52.91677352 87.05420199 53.04296875 76.76171875 C53.07076416 75.3219165 53.07076416 75.3219165 53.09912109 73.85302734 C53.04912611 68.28201808 52.65577554 65.3038652 48.54296875 61.19921875 C48.54296875 60.53921875 48.54296875 59.87921875 48.54296875 59.19921875 C47.88296875 59.19921875 47.22296875 59.19921875 46.54296875 59.19921875 C45.2506116 54.28419117 45.43161358 49.42631773 45.48046875 44.38671875 C45.48498047 43.50306641 45.48949219 42.61941406 45.49414062 41.70898438 C45.50587009 39.53903316 45.5238038 37.36911703 45.54296875 35.19921875 C39.13703589 36.30612627 32.82933019 37.53867044 26.54296875 39.19921875 C26.54296875 39.85921875 26.54296875 40.51921875 26.54296875 41.19921875 C23.54767364 42.6968663 20.6053544 42.02575769 17.35546875 41.76171875 C5.70968235 40.93381924 -5.72231131 40.9191984 -17.3359375 42.2734375 C-21.06054246 42.18486742 -23.27175372 41.06248636 -26.45703125 39.19921875 C-26.45703125 38.53921875 -26.45703125 37.87921875 -26.45703125 37.19921875 C-27.44703125 37.05484375 -28.43703125 36.91046875 -29.45703125 36.76171875 C-30.01390625 36.68050781 -30.57078125 36.59929688 -31.14453125 36.515625 C-34.57822642 36.04581198 -38.01767372 35.62555578 -41.45703125 35.19921875 C-41.43608398 35.83947998 -41.41513672 36.47974121 -41.39355469 37.1394043 C-41.31013841 40.0550145 -41.25829156 42.97037327 -41.20703125 45.88671875 C-41.15675781 47.39782227 -41.15675781 47.39782227 -41.10546875 48.93945312 C-41.00561217 56.50358934 -41.00561217 56.50358934 -43.36328125 60.13671875 C-44.05421875 60.81734375 -44.74515625 61.49796875 -45.45703125 62.19921875 C-50.20587549 71.78550508 -49.87384606 84.58153127 -46.89453125 94.63671875 C-43.716324 102.87319952 -38.35285206 110.01177221 -30.45703125 114.19921875 C-24.96551005 116.16787729 -19.18199813 117.11642823 -13.45703125 118.19921875 C-13.45703125 119.51921875 -13.45703125 120.83921875 -13.45703125 122.19921875 C-14.44703125 122.69421875 -14.44703125 122.69421875 -15.45703125 123.19921875 C-16.18778773 125.51328095 -16.85841383 127.84750744 -17.45703125 130.19921875 C-22.71113242 131.73271239 -28.04188718 131.82516282 -33.45703125 131.19921875 C-37.52622116 128.78784695 -39.74765955 125.83955071 -42.45703125 122.07421875 C-45.03009148 118.51358711 -47.20090029 116.6481144 -51.45703125 115.19921875 C-54.20849399 114.94637508 -54.20849399 114.94637508 -56.45703125 115.19921875 C-56.78703125 116.18921875 -57.11703125 117.17921875 -57.45703125 118.19921875 C-56.40515625 118.47765625 -56.40515625 118.47765625 -55.33203125 118.76171875 C-49.32167477 121.76689699 -46.0896443 127.27725206 -43.51171875 133.3046875 C-42.01414343 135.9947765 -41.00420591 137.36478562 -38.45703125 139.19921875 C-34.8979771 139.97996587 -31.33803102 140.2171442 -27.70703125 140.44921875 C-26.72347656 140.5265625 -25.73992187 140.60390625 -24.7265625 140.68359375 C-22.30412562 140.87174419 -19.88170165 141.04299326 -17.45703125 141.19921875 C-17.43013021 143.9909493 -17.41024072 146.78242223 -17.39453125 149.57421875 C-17.38615234 150.36828125 -17.37777344 151.16234375 -17.36914062 151.98046875 C-17.34375 157.97265625 -17.34375 157.97265625 -18.45703125 160.19921875 C-28.05658494 161.75941709 -33.85724678 157.40850745 -41.45703125 152.19921875 C-42.40964844 151.65910156 -43.36226562 151.11898437 -44.34375 150.5625 C-45.04113281 150.11261719 -45.73851562 149.66273438 -46.45703125 149.19921875 C-46.45703125 148.53921875 -46.45703125 147.87921875 -46.45703125 147.19921875 C-47.00875 146.96976563 -47.56046875 146.7403125 -48.12890625 146.50390625 C-61.62623009 138.93996974 -70.68573699 122.23068848 -75.45703125 108.19921875 C-80.21109342 90.68991809 -81.02190198 69.32769376 -73.5078125 52.55078125 C-72.42329157 50.21652051 -72.42329157 50.21652051 -71.625 47.78515625 C-65.81731451 31.07811579 -50.9154016 17.30344919 -35.64453125 9.01171875 C-31.11541591 6.85807819 -26.31409133 5.52186371 -21.5078125 4.12890625 C-18.49677248 3.26372712 -18.49677248 3.26372712 -15.8359375 2.12109375 C-10.7918837 0.16641937 -5.34831099 0.30820775 0 0 Z " fill="#060606" transform="translate(123.45703125,21.80078125)"/>
<path d="M0 0 C0 0.66 0 1.32 0 2 C0.7425 2.226875 1.485 2.45375 2.25 2.6875 C5.59878921 4.28578576 6.72429565 6.07409441 9 9 C10.25825606 10.05682472 11.53058442 11.09700231 12.8125 12.125 C20.09836452 18.38163459 24.20621694 26.89768363 27.95703125 35.58984375 C28.95235722 37.98041685 28.95235722 37.98041685 30.12890625 40.11328125 C31.35342335 42.76548645 31.13085118 45.12127396 31 48 C31.66 48 32.32 48 33 48 C37.78995527 65.02144818 34.41100928 81.33670855 30 98 C29.34 98 28.68 98 28 98 C27.731875 99.03125 27.46375 100.0625 27.1875 101.125 C25.46343518 107.75601854 21.79606988 112.83146252 17.5625 118.0625 C17.08490234 118.66126953 16.60730469 119.26003906 16.11523438 119.87695312 C15.18080413 121.04723407 14.24307948 122.21489368 13.30175781 123.37963867 C12.12783064 124.84088298 10.97835779 126.32169208 9.83203125 127.8046875 C7.54158246 130.5493191 5.03166844 132.12036557 2 134 C1.0925 134.61875 0.185 135.2375 -0.75 135.875 C-17.25111441 146.66419019 -17.25111441 146.66419019 -25 146 C-26.87721259 144.12278741 -26.19784113 140.90806811 -26.24609375 138.40234375 C-26.27907418 137.02929151 -26.31228501 135.65624478 -26.34570312 134.28320312 C-26.39281066 132.11991791 -26.437149 129.95664787 -26.47680664 127.79321289 C-26.65796745 116.74711265 -26.65796745 116.74711265 -29 106 C-29.66 106 -30.32 106 -31 106 C-31 105.34 -31 104.68 -31 104 C-21.58997722 101.70387244 -21.58997722 101.70387244 -17 102 C-17 101.34 -17 100.68 -17 100 C-15.02 99.67 -13.04 99.34 -11 99 C-11 98.34 -11 97.68 -11 97 C-9.5390625 95.8515625 -9.5390625 95.8515625 -7.625 94.625 C-4.82018746 92.71546096 -3.10809333 91.32428 -2 88 C-1.34 88 -0.68 88 0 88 C0.30744141 86.82630859 0.30744141 86.82630859 0.62109375 85.62890625 C1.02521484 84.11103516 1.02521484 84.11103516 1.4375 82.5625 C1.70433594 81.55316406 1.97117187 80.54382813 2.24609375 79.50390625 C3 77 3 77 4 76 C4.30985177 72.48820412 4.27859591 68.96126545 4.3125 65.4375 C4.34150391 64.45974609 4.37050781 63.48199219 4.40039062 62.47460938 C4.47072744 54.39669685 2.40339992 49.60509989 -2 43 C-2.11652949 39.42400141 -2.04380717 35.90855017 -1.921875 32.3359375 C-1.83222367 28.0625573 -2.0075125 24.90714346 -4 21 C-9.72883227 20.58665387 -12.73693474 21.63767406 -17.625 24.5625 C-23.57432721 27.82206878 -27.82746378 28.44202471 -34.5234375 27.47265625 C-38.52733802 26.92830573 -42.40345612 26.85422923 -46.4375 26.875 C-47.50750244 26.87669189 -47.50750244 26.87669189 -48.59912109 26.87841797 C-54.5430851 26.9229471 -60.42038526 27.328417 -66.33984375 27.87890625 C-69 28 -69 28 -71 27 C-71 26.34 -71 25.68 -71 25 C-71.78246094 24.79503906 -72.56492187 24.59007812 -73.37109375 24.37890625 C-74.38300781 24.10949219 -75.39492188 23.84007812 -76.4375 23.5625 C-77.44683594 23.29566406 -78.45617187 23.02882812 -79.49609375 22.75390625 C-82 22 -82 22 -83 21 C-84.99958364 20.95919217 -87.00045254 20.95745644 -89 21 C-90.3626328 26.24249564 -89.97032819 31.40228734 -89.69726562 36.76171875 C-89.57410887 41.91605688 -90.35176191 44.12077477 -94 48 C-97.10007831 54.04977969 -97.27727811 60.53124097 -97.3125 67.1875 C-97.32071777 68.32771606 -97.32071777 68.32771606 -97.32910156 69.4909668 C-97.19686108 79.94822478 -93.25617105 87.22425342 -86.30078125 94.8671875 C-79.55877637 101.18487039 -70.81912156 102.43502018 -62 104 C-62.45261358 105.43931117 -62.91232979 106.87638999 -63.375 108.3125 C-63.75785156 109.51326172 -63.75785156 109.51326172 -64.1484375 110.73828125 C-65 113 -65 113 -67 116 C-71.94757981 117.64919327 -76.84792492 117.7007356 -82 117 C-86.18333109 114.85641368 -88.50883678 111.74418669 -91.0625 107.875 C-93.35154063 104.47835907 -95.37426787 102.88538071 -99 101 C-102.25177852 100.66405867 -102.25177852 100.66405867 -105 101 C-103.58361994 104.37582811 -101.94652324 106.03730433 -99.0625 108.25 C-95.40157183 111.31282321 -94.11682783 113.64421212 -92.7734375 118.13671875 C-91.3796677 121.49443691 -88.95172984 122.97068574 -86 125 C-83.40742331 125.86419223 -81.65962293 126.17580932 -78.98828125 126.31640625 C-78.23095703 126.35830078 -77.47363281 126.40019531 -76.69335938 126.44335938 C-75.90767578 126.48267578 -75.12199219 126.52199219 -74.3125 126.5625 C-73.11657227 126.62727539 -73.11657227 126.62727539 -71.89648438 126.69335938 C-69.93118553 126.79927368 -67.96561504 126.90012551 -66 127 C-65.94619422 129.79192205 -65.90642331 132.5828141 -65.875 135.375 C-65.85824219 136.1690625 -65.84148437 136.963125 -65.82421875 137.78125 C-65.80664527 139.85492015 -65.89664832 141.92883241 -66 144 C-68 146 -68 146 -70.9375 146.5 C-76.61815421 146.34646881 -81.2565868 142.8126436 -86 140 C-87.58186028 139.16387385 -89.16508547 138.33032212 -90.75 137.5 C-100.58204334 131.9891572 -109.18094088 122.61317093 -115 113 C-115 112.01 -115 111.02 -115 110 C-115.99 109.67 -116.98 109.34 -118 109 C-119.0625 106.8125 -119.0625 106.8125 -120 104 C-120.33773438 103.01 -120.67546875 102.02 -121.0234375 101 C-121.63369556 99.12528723 -122.24319721 97.25032786 -122.8515625 95.375 C-123.23441406 94.199375 -123.23441406 94.199375 -123.625 93 C-123.84414063 92.29875 -124.06328125 91.5975 -124.2890625 90.875 C-125.02766398 88.71618881 -125.02766398 88.71618881 -127 86 C-130.65983226 64.25629071 -127.96964157 41.92381422 -115.49609375 23.375 C-109.74978277 15.36652495 -102.82579576 7.99422654 -95 2 C-94.34 2 -93.68 2 -93 2 C-93 1.34 -93 0.68 -93 0 C-65.25491838 -20.86135872 -28.44932116 -15.45959896 0 0 Z " fill="#F8F8F8" transform="translate(422,36)"/>
<path d="M0 0 C1.39456452 0.00667256 2.78911118 0.01863093 4.18359375 0.03515625 C4.89451172 0.03966797 5.60542969 0.04417969 6.33789062 0.04882812 C8.09899388 0.06064761 9.86005411 0.07858362 11.62109375 0.09765625 C11.95109375 0.75765625 12.28109375 1.41765625 12.62109375 2.09765625 C15.59109375 2.09765625 18.56109375 2.09765625 21.62109375 2.09765625 C21.62109375 11.33765625 21.62109375 20.57765625 21.62109375 30.09765625 C18.98109375 30.09765625 16.34109375 30.09765625 13.62109375 30.09765625 C13.29109375 29.43765625 12.96109375 28.77765625 12.62109375 28.09765625 C11.96109375 28.42765625 11.30109375 28.75765625 10.62109375 29.09765625 C8.68749789 29.24617469 6.74767278 29.31896458 4.80859375 29.34765625 C3.77089844 29.3734375 2.73320313 29.39921875 1.6640625 29.42578125 C-1.8624319 29.04551741 -3.59183072 28.27431965 -6.37890625 26.09765625 C-9.57984714 22.11039728 -9.73484775 18.93708061 -9.62890625 13.91015625 C-9.6134375 12.67910156 -9.59796875 11.44804687 -9.58203125 10.1796875 C-9.37890625 7.09765625 -9.37890625 7.09765625 -8.37890625 5.09765625 C-7.71890625 5.09765625 -7.05890625 5.09765625 -6.37890625 5.09765625 C-5.91484375 4.13859375 -5.91484375 4.13859375 -5.44140625 3.16015625 C-3.87108264 0.111881 -3.87108264 0.111881 0 0 Z " fill="#D4D4D4" transform="translate(80.37890625,198.90234375)"/>
<path d="M0 0 C1.08410156 -0.00257813 2.16820312 -0.00515625 3.28515625 -0.0078125 C5.9375 0.125 5.9375 0.125 6.9375 1.125 C6.97813832 2.79117115 6.980221 4.45888095 6.9375 6.125 C6.16664063 6.16238281 5.39578125 6.19976562 4.6015625 6.23828125 C3.09722656 6.33689453 3.09722656 6.33689453 1.5625 6.4375 C0.56476563 6.49550781 -0.43296875 6.55351562 -1.4609375 6.61328125 C-2.31945312 6.78214844 -3.17796875 6.95101562 -4.0625 7.125 C-6.14383467 10.247002 -6.3362822 11.05766989 -6.3125 14.625 C-6.31765625 15.3984375 -6.3228125 16.171875 -6.328125 16.96875 C-6.18988062 19.42013844 -6.18988062 19.42013844 -4.0625 22.125 C-0.99693402 22.85843428 -0.99693402 22.85843428 1.9375 23.125 C1.9375 21.475 1.9375 19.825 1.9375 18.125 C0.6175 18.125 -0.7025 18.125 -2.0625 18.125 C-2.105221 16.45888095 -2.10313832 14.79117115 -2.0625 13.125 C-1.7325 12.795 -1.4025 12.465 -1.0625 12.125 C1.46182378 12.17476266 3.97242279 12.32252431 6.4921875 12.48046875 C9.07543294 12.35382815 9.07543294 12.35382815 10.77734375 10.28515625 C12.20189807 8.12466892 12.20189807 8.12466892 11.625 5.375 C11.398125 4.6325 11.17125 3.89 10.9375 3.125 C14.4025 2.63 14.4025 2.63 17.9375 2.125 C17.9375 11.45833333 17.9375 20.79166667 17.9375 30.125 C15.2975 30.125 12.6575 30.125 9.9375 30.125 C9.6075 29.465 9.2775 28.805 8.9375 28.125 C7.9475 28.455 6.9575 28.785 5.9375 29.125 C3.7959021 29.29532265 1.64786073 29.39117837 -0.5 29.4375 C-2.19962891 29.49357422 -2.19962891 29.49357422 -3.93359375 29.55078125 C-7.73326068 29.03372295 -8.75673262 28.12407328 -11.0625 25.125 C-14.54087424 19.9463342 -13.75757876 13.06413831 -13.0625 7.125 C-10.20440674 1.10069189 -6.25858216 -0.01491915 0 0 Z " fill="#F6F6F6" transform="translate(334.0625,198.875)"/>
<path d="M0 0 C1.98 0 3.96 0 6 0 C6 2.64 6 5.28 6 8 C7.2375 7.896875 8.475 7.79375 9.75 7.6875 C13.00433521 7.71635049 13.78922408 7.84191806 16.5 9.875 C18.60082233 14.25171319 18.64205178 18.22194026 18 23 C17.01 25.475 17.01 25.475 16 28 C10.72 28 5.44 28 0 28 C0 18.76 0 9.52 0 0 Z " fill="#CFCFCF" transform="translate(412,200)"/>
<path d="M0 0 C1.98 0 3.96 0 6 0 C6 2.97 6 5.94 6 9 C6.66 8.67 7.32 8.34 8 8 C13.36899365 7.54306437 13.36899365 7.54306437 15.8125 9.3125 C17.87255934 12.23995275 18.15787018 14.90238525 18.1875 18.375 C18.20167969 19.12523437 18.21585938 19.87546875 18.23046875 20.6484375 C18 23 18 23 16 28 C10.72 28 5.44 28 0 28 C0 18.76 0 9.52 0 0 Z " fill="#272727" transform="translate(162,200)"/>
<path d="M0 0 C1.98 0 3.96 0 6 0 C6 3.3 6 6.6 6 10 C8.64 10 11.28 10 14 10 C14 6.7 14 3.4 14 0 C15.98 0 17.96 0 20 0 C20 9.24 20 18.48 20 28 C18.02 28 16.04 28 14 28 C14 24.04 14 20.08 14 16 C11.36 16 8.72 16 6 16 C6 19.96 6 23.92 6 28 C4.02 28 2.04 28 0 28 C0 18.76 0 9.52 0 0 Z " fill="#E5E5E5" transform="translate(369,200)"/>
<path d="M0 0 C1.98 0 3.96 0 6 0 C6 3.63 6 7.26 6 11 C8.64 11 11.28 11 14 11 C14 7.37 14 3.74 14 0 C15.98 0 17.96 0 20 0 C20 9.24 20 18.48 20 28 C18.02 28 16.04 28 14 28 C14 24.04 14 20.08 14 16 C11.36 16 8.72 16 6 16 C6 19.96 6 23.92 6 28 C4.02 28 2.04 28 0 28 C0 18.76 0 9.52 0 0 Z " fill="#121212" transform="translate(119,200)"/>
<path d="M0 0 C1.1859375 0.00257813 2.371875 0.00515625 3.59375 0.0078125 C4.7796875 0.00523437 5.965625 0.00265625 7.1875 0 C10.09375 0.1328125 10.09375 0.1328125 11.09375 1.1328125 C11.13438832 2.79898365 11.136471 4.46669345 11.09375 6.1328125 C10.32289062 6.17019531 9.55203125 6.20757812 8.7578125 6.24609375 C7.25347656 6.34470703 7.25347656 6.34470703 5.71875 6.4453125 C4.72101563 6.50332031 3.72328125 6.56132812 2.6953125 6.62109375 C1.83679688 6.78996094 0.97828125 6.95882812 0.09375 7.1328125 C-2.38307859 10.84805538 -2.34163538 13.82919544 -1.90625 18.1328125 C-1.02410113 21.01496137 -1.02410113 21.01496137 0.09375 23.1328125 C2.40375 23.4628125 4.71375 23.7928125 7.09375 24.1328125 C7.09375 22.1528125 7.09375 20.1728125 7.09375 18.1328125 C5.77375 18.1328125 4.45375 18.1328125 3.09375 18.1328125 C3.09375 16.4828125 3.09375 14.8328125 3.09375 13.1328125 C6.06375 13.1328125 9.03375 13.1328125 12.09375 13.1328125 C12.12060095 15.61205051 12.14051547 18.0910009 12.15625 20.5703125 C12.16462891 21.27736328 12.17300781 21.98441406 12.18164062 22.71289062 C12.19028588 24.51974809 12.14595011 26.32668853 12.09375 28.1328125 C10.30805839 29.91850411 7.75721262 29.34749353 5.34375 29.3828125 C4.29703125 29.40859375 3.2503125 29.434375 2.171875 29.4609375 C-1.37604342 29.082733 -3.10507533 28.32420765 -5.90625 26.1328125 C-9.10719089 22.14555353 -9.2621915 18.97223686 -9.15625 13.9453125 C-9.14078125 12.71425781 -9.1253125 11.48320312 -9.109375 10.21484375 C-8.90625 7.1328125 -8.90625 7.1328125 -7.90625 5.1328125 C-7.24625 5.1328125 -6.58625 5.1328125 -5.90625 5.1328125 C-5.4421875 4.17375 -5.4421875 4.17375 -4.96875 3.1953125 C-3.40278792 0.15550375 -3.40278792 0.15550375 0 0 Z " fill="#262626" transform="translate(79.90625,198.8671875)"/>
<path d="M0 0 C1.98 0 3.96 0 6 0 C6 4.62 6 9.24 6 14 C7.65 14 9.3 14 11 14 C11 9.38 11 4.76 11 0 C12.98 0 14.96 0 17 0 C17 6.27 17 12.54 17 19 C14.56625 19.04125 12.1325 19.0825 9.625 19.125 C8.86010254 19.14320801 8.09520508 19.16141602 7.30712891 19.18017578 C5.53712725 19.1948117 3.76727545 19.09928514 2 19 C0 17 0 17 -0.1953125 13.0859375 C-0.18200376 11.51550649 -0.15813602 9.94513779 -0.125 8.375 C-0.11597656 7.57320312 -0.10695313 6.77140625 -0.09765625 5.9453125 C-0.07406223 3.96341477 -0.03819065 1.98167019 0 0 Z " fill="#C1C1C1" transform="translate(392,209)"/>
<path d="M0 0 C1.98 0 3.96 0 6 0 C6 4.62 6 9.24 6 14 C7.65 14 9.3 14 11 14 C11 9.38 11 4.76 11 0 C12.98 0 14.96 0 17 0 C17 6.27 17 12.54 17 19 C14.56625 19.04125 12.1325 19.0825 9.625 19.125 C8.86010254 19.14320801 8.09520508 19.16141602 7.30712891 19.18017578 C5.53712725 19.1948117 3.76727545 19.09928514 2 19 C0 17 0 17 -0.1953125 13.0859375 C-0.18200376 11.51550649 -0.15813602 9.94513779 -0.125 8.375 C-0.11597656 7.57320312 -0.10695312 6.77140625 -0.09765625 5.9453125 C-0.07406223 3.96341477 -0.03819065 1.98167019 0 0 Z " fill="#242424" transform="translate(142,209)"/>
<path d="M0 0 C0 9.33333333 0 18.66666667 0 28 C-6.0546875 28.1953125 -6.0546875 28.1953125 -8 28 C-10 26 -10 26 -10.1953125 22.5234375 C-10.18201493 21.14049032 -10.15816232 19.75761346 -10.125 18.375 C-10.11597656 17.66859375 -10.10695313 16.9621875 -10.09765625 16.234375 C-10.07407603 14.48943902 -10.03820461 12.74467705 -10 11 C-12.97 11 -15.94 11 -19 11 C-19 10.67 -19 10.34 -19 10 C-18.31292969 10.04640625 -17.62585938 10.0928125 -16.91796875 10.140625 C-16.01691406 10.17671875 -15.11585938 10.2128125 -14.1875 10.25 C-12.84751953 10.31960937 -12.84751953 10.31960937 -11.48046875 10.390625 C-8.8666432 10.22832468 -8.8666432 10.22832468 -7.15625 8.15625 C-5.73596612 5.99865102 -5.73596612 5.99865102 -6.3125 3.25 C-6.539375 2.5075 -6.76625 1.765 -7 1 C-4.53721199 -0.231394 -2.7204945 -0.07159196 0 0 Z " fill="#474747" transform="translate(352,201)"/>
<path d="M0 0 C2.31 0 4.62 0 7 0 C7 1.65 7 3.3 7 5 C8.32 5 9.64 5 11 5 C11 6.98 11 8.96 11 11 C9.68 11 8.36 11 7 11 C7 13.97 7 16.94 7 20 C8.32 20 9.64 20 11 20 C11 21.65 11 23.3 11 25 C9.54207116 25.05399736 8.08357288 25.09279177 6.625 25.125 C5.40683594 25.15980469 5.40683594 25.15980469 4.1640625 25.1953125 C2 25 2 25 0 23 C-0.1953125 20.1796875 -0.1953125 20.1796875 -0.125 16.875 C-0.10695313 15.77929688 -0.08890625 14.68359375 -0.0703125 13.5546875 C-0.04710937 12.71164063 -0.02390625 11.86859375 0 11 C-0.99 11 -1.98 11 -3 11 C-2.67 9.35 -2.34 7.7 -2 6 C-1.34 6 -0.68 6 0 6 C0 4.02 0 2.04 0 0 Z " fill="#D8D8D8" transform="translate(356,203)"/>
<path d="M0 0 C1.98 0 3.96 0 6 0 C6 1.98 6 3.96 6 6 C7.65 6 9.3 6 11 6 C11 7.65 11 9.3 11 11 C9.68 11 8.36 11 7 11 C7 13.97 7 16.94 7 20 C8.32 20 9.64 20 11 20 C11 21.65 11 23.3 11 25 C9.741875 25.04125 8.48375 25.0825 7.1875 25.125 C6.47980469 25.14820313 5.77210937 25.17140625 5.04296875 25.1953125 C3 25 3 25 0 23 C-0.29296875 20.1796875 -0.29296875 20.1796875 -0.1875 16.875 C-0.16042969 15.77929688 -0.13335937 14.68359375 -0.10546875 13.5546875 C-0.07066406 12.71164063 -0.03585938 11.86859375 0 11 C-0.99 11 -1.98 11 -3 11 C-2.67 9.35 -2.34 7.7 -2 6 C-1.34 6 -0.68 6 0 6 C0 4.02 0 2.04 0 0 Z " fill="#282828" transform="translate(106,203)"/>
<path d="M0 0 C0.66 0 1.32 0 2 0 C2 0.99 2 1.98 2 3 C5.465 2.505 5.465 2.505 9 2 C6 4 6 4 4 4 C4.66 5.98 5.32 7.96 6 10 C5.01 10.33 4.02 10.66 3 11 C2.67 11.99 2.34 12.98 2 14 C-1.3 14 -4.6 14 -8 14 C-8.33 15.65 -8.66 17.3 -9 19 C-7.68 19 -6.36 19 -5 19 C-5 20.65 -5 22.3 -5 24 C-10.37662338 24.47792208 -10.37662338 24.47792208 -12.875 22.5625 C-14.52907002 18.79489607 -14.72688008 15.04772437 -14 11 C-12.83203125 8.734375 -12.83203125 8.734375 -11 7 C-8.30078125 6.609375 -8.30078125 6.609375 -5.3125 6.75 C-4.31863281 6.78609375 -3.32476562 6.8221875 -2.30078125 6.859375 C-1.54152344 6.90578125 -0.78226562 6.9521875 0 7 C-0.185625 6.030625 -0.37125 5.06125 -0.5625 4.0625 C-0.706875 3.051875 -0.85125 2.04125 -1 1 C-0.67 0.67 -0.34 0.34 0 0 Z " fill="#141414" transform="translate(341,198)"/>
<path d="M0 0 C1.65 0 3.3 0 5 0 C5 2.64 5 5.28 5 8 C7.31 8 9.62 8 12 8 C11.67 9.32 11.34 10.64 11 12 C9.35 12 7.7 12 6 12 C6 15.63 6 19.26 6 23 C8.64 23 11.28 23 14 23 C14.33 23.99 14.66 24.98 15 26 C10.05 26 5.1 26 0 26 C0 17.42 0 8.84 0 0 Z " fill="#F1F1F1" transform="translate(412,201)"/>
<path d="M0 0 C1.98 0 3.96 0 6 0 C6 8.91 6 17.82 6 27 C3.69 27 1.38 27 -1 27 C-1 4.625 -1 4.625 0 0 Z " fill="#6B6B6B" transform="translate(96,201)"/>
<path d="M0 0 C2.55949546 1.85342775 2.97918798 2.93756393 4 6 C4.40579751 11.03943886 4.36486077 15.41808226 2 20 C0.02 20 -1.96 20 -4 20 C-2.68 19.34 -1.36 18.68 0 18 C-0.33 17.34 -0.66 16.68 -1 16 C-1.66 16.33 -2.32 16.66 -3 17 C-4.65 16.67 -6.3 16.34 -8 16 C-8 12.04 -8 8.08 -8 4 C-6.68 3.67 -5.36 3.34 -4 3 C-5.32 2.34 -6.64 1.68 -8 1 C-5.20129973 -0.39935013 -3.09501208 -0.25265405 0 0 Z " fill="#222222" transform="translate(176,208)"/>
<path d="M0 0 C1.08410156 -0.00257813 2.16820312 -0.00515625 3.28515625 -0.0078125 C5.9375 0.125 5.9375 0.125 6.9375 1.125 C6.97813832 2.79117115 6.980221 4.45888095 6.9375 6.125 C6.16664063 6.16238281 5.39578125 6.19976562 4.6015625 6.23828125 C3.09722656 6.33689453 3.09722656 6.33689453 1.5625 6.4375 C0.56476563 6.49550781 -0.43296875 6.55351562 -1.4609375 6.61328125 C-2.31945312 6.78214844 -3.17796875 6.95101562 -4.0625 7.125 C-6.08600324 10.16025486 -6.38374018 11.31926202 -6.6875 14.8125 C-6.76226562 15.62074219 -6.83703125 16.42898437 -6.9140625 17.26171875 C-6.96304687 17.87660156 -7.01203125 18.49148437 -7.0625 19.125 C-7.3925 19.125 -7.7225 19.125 -8.0625 19.125 C-8.3925 16.155 -8.7225 13.185 -9.0625 10.125 C-9.7225 10.125 -10.3825 10.125 -11.0625 10.125 C-11.3925 13.755 -11.7225 17.385 -12.0625 21.125 C-12.3925 21.125 -12.7225 21.125 -13.0625 21.125 C-13.92360474 7.15596751 -13.92360474 7.15596751 -10.6875 3.3125 C-6.8410231 0.10710258 -4.95080928 -0.01180169 0 0 Z " fill="#DDDDDD" transform="translate(334.0625,198.875)"/>
<path d="M0 0 C2.64 0 5.28 0 8 0 C8 3.3 8 6.6 8 10 C9.98 10 11.96 10 14 10 C14 6.7 14 3.4 14 0 C16.64 0 19.28 0 22 0 C22 3.3 22 6.6 22 10 C22.66 10 23.32 10 24 10 C24 15.61 24 21.22 24 27 C23.34 27 22.68 27 22 27 C21.67 27.66 21.34 28.32 21 29 C21 19.76 21 10.52 21 1 C19.02 1 17.04 1 15 1 C15 4.3 15 7.6 15 11 C12.36 11 9.72 11 7 11 C7 7.7 7 4.4 7 1 C5.02 1 3.04 1 1 1 C1 10.24 1 19.48 1 29 C0.34 29 -0.32 29 -1 29 C-0.67 19.43 -0.34 9.86 0 0 Z " fill="#363636" transform="translate(368,199)"/>
<path d="M0 0 C2.64 0 5.28 0 8 0 C8 3.63 8 7.26 8 11 C10.31 11 12.62 11 15 11 C15 11.33 15 11.66 15 12 C12.36 12 9.72 12 7 12 C7 8.37 7 4.74 7 1 C5.02 1 3.04 1 1 1 C1 10.24 1 19.48 1 29 C0.34 29 -0.32 29 -1 29 C-1 27.35 -1 25.7 -1 24 C-2.32 24 -3.64 24 -5 24 C-5 21.03 -5 18.06 -5 15 C-3.68 15 -2.36 15 -1 15 C-1 13.35 -1 11.7 -1 10 C-2.65 10 -4.3 10 -6 10 C-6 8.35 -6 6.7 -6 5 C-5.67 6.32 -5.34 7.64 -5 9 C-3.35 9 -1.7 9 0 9 C0 6.03 0 3.06 0 0 Z " fill="#BEBEBE" transform="translate(118,199)"/>
<path d="M0 0 C1.98 0 3.96 0 6 0 C6 2.97 6 5.94 6 9 C8.97 9 11.94 9 15 9 C15 13.62 15 18.24 15 23 C15.99 23 16.98 23 18 23 C18 18.38 18 13.76 18 9 C20.31 9 22.62 9 25 9 C25 9.33 25 9.66 25 10 C23.02 10 21.04 10 19 10 C19 14.62 19 19.24 19 24 C17.35 24 15.7 24 14 24 C14 19.38 14 14.76 14 10 C12.02 10 10.04 10 8 10 C8.03480469 11.20398438 8.06960937 12.40796875 8.10546875 13.6484375 C8.1336028 15.22394442 8.16090337 16.79946638 8.1875 18.375 C8.21263672 19.1690625 8.23777344 19.963125 8.26367188 20.78125 C8.29004405 22.85586148 8.15486462 24.93100865 8 27 C7.01 27.66 6.02 28.32 5 29 C5 19.76 5 10.52 5 1 C3.35 1 1.7 1 0 1 C0 0.67 0 0.34 0 0 Z " fill="#CACACA" transform="translate(134,199)"/>
<path d="M0 0 C2.97 0 5.94 0 9 0 C9.08252495 4.78644729 9.14242743 9.31604754 8 14 C5.59454362 15.20272819 4.05003047 15.10071472 1.375 15.0625 C0.14910156 15.04896484 0.14910156 15.04896484 -1.1015625 15.03515625 C-2.04128906 15.01775391 -2.04128906 15.01775391 -3 15 C-3 12 -3 12 -2 11 C-0.00041636 10.95919217 2.00045254 10.95745644 4 11 C4 9.02 4 7.04 4 5 C2.68 5 1.36 5 0 5 C0 3.35 0 1.7 0 0 Z " fill="#090909" transform="translate(83,212)"/>
<path d="M0 0 C1.98 0 3.96 0 6 0 C6 6.27 6 12.54 6 19 C4.02 19 2.04 19 0 19 C0 12.73 0 6.46 0 0 Z " fill="#DFDFDF" transform="translate(345,209)"/>
<path d="M0 0 C1.32 0 2.64 0 4 0 C4.33 2.64 4.66 5.28 5 8 C7.475 8.99 7.475 8.99 10 10 C10 10.33 10 10.66 10 11 C8.35 11 6.7 11 5 11 C5 11.66 5 12.32 5 13 C4.34 13 3.68 13 3 13 C3 15.64 3 18.28 3 21 C2.01 21 1.02 21 0 21 C0 14.07 0 7.14 0 0 Z " fill="#040404" transform="translate(163,201)"/>
<path d="M0 0 C3.3 0 6.6 0 10 0 C10 4.95 10 9.9 10 15 C7.15161879 16.4241906 4.67212092 16.16995508 1.5 16.1875 C0.3346875 16.20167969 -0.830625 16.21585938 -2.03125 16.23046875 C-5 16 -5 16 -7 14 C-1.72 14 3.56 14 9 14 C8.67 10.7 8.34 7.4 8 4 C7.01 4 6.02 4 5 4 C5 6.31 5 8.62 5 11 C2.69 11 0.38 11 -2 11 C-2 10.67 -2 10.34 -2 10 C-0.02 10 1.96 10 4 10 C4 8.35 4 6.7 4 5 C2.68 5 1.36 5 0 5 C0 3.35 0 1.7 0 0 Z " fill="#CDCDCD" transform="translate(332,212)"/>
<path d="M0 0 C1.98 0 3.96 0 6 0 C6 9.24 6 18.48 6 28 C4.02 28 2.04 28 0 28 C0 24.04 0 20.08 0 16 C1 18 2 20 3 22 C3.75277515 19.26750659 4.16641703 16.71899317 4.31640625 13.890625 C4.35830078 13.13652344 4.40019531 12.38242188 4.44335938 11.60546875 C4.48267578 10.82816406 4.52199219 10.05085937 4.5625 9.25 C4.60568359 8.45722656 4.64886719 7.66445312 4.69335938 6.84765625 C4.79902991 4.89862185 4.89997966 2.94933252 5 1 C3.68 1 2.36 1 1 1 C1 3.97 1 6.94 1 10 C0.67 10 0.34 10 0 10 C0 6.7 0 3.4 0 0 Z " fill="#292929" transform="translate(133,200)"/>
<path d="M0 0 C1.65 0 3.3 0 5 0 C5 4.95 5 9.9 5 15 C3.35 15.66 1.7 16.32 0 17 C0 11.39 0 5.78 0 0 Z " fill="#F2F2F2" transform="translate(392,209)"/>
<path d="M0 0 C6.27 0.33 12.54 0.66 19 1 C19.020625 3.76375 19.04125 6.5275 19.0625 9.375 C19.071604 10.24431152 19.08070801 11.11362305 19.09008789 12.00927734 C19.11111111 17.77777778 19.11111111 17.77777778 18 20 C16.41820385 20.10867302 14.83422847 20.18589827 13.25 20.25 C12.36828125 20.29640625 11.4865625 20.3428125 10.578125 20.390625 C8 20 8 20 4 16 C8.29 16.99 12.58 17.98 17 19 C17 13.39 17 7.78 17 2 C12.15333889 2.07901826 12.15333889 2.07901826 7.30712891 2.18017578 C5.53712725 2.1948117 3.76727545 2.09928514 2 2 C1.34 1.34 0.68 0.68 0 0 Z " fill="#6D6D6D" transform="translate(87,162)"/>
<path d="M0 0 C0.66 0 1.32 0 2 0 C2.33 0.66 2.66 1.32 3 2 C3.99 2.33 4.98 2.66 6 3 C6.38133299 4.9914056 6.71325582 6.99279077 7 9 C6.67 9.33 6.34 9.66 6 10 C5.84379445 11.41327947 5.74943827 12.8335459 5.68359375 14.25390625 C5.64169922 15.10791016 5.59980469 15.96191406 5.55664062 16.84179688 C5.51732422 17.73962891 5.47800781 18.63746094 5.4375 19.5625 C5.39431641 20.46419922 5.35113281 21.36589844 5.30664062 22.29492188 C5.20021858 24.52978485 5.09820012 26.76476308 5 29 C7.31 29 9.62 29 12 29 C12 29.33 12 29.66 12 30 C9.36 30 6.72 30 4 30 C4 23.4 4 16.8 4 10 C3.34 10 2.68 10 2 10 C2 9.01 2 8.02 2 7 C-1.96 7 -5.92 7 -10 7 C-10 6.67 -10 6.34 -10 6 C-6.37 6 -2.74 6 1 6 C0.67 4.02 0.34 2.04 0 0 Z " fill="#DEDEDE" transform="translate(90,199)"/>
<path d="M0 0 C2.31 0 4.62 0 7 0 C7 1.65 7 3.3 7 5 C8.32 5 9.64 5 11 5 C11 6.98 11 8.96 11 11 C9.68 11 8.36 11 7 11 C7 13.97 7 16.94 7 20 C8.32 20 9.64 20 11 20 C11 21.65 11 23.3 11 25 C8.03 25 5.06 25 2 25 C2 24.67 2 24.34 2 24 C4.31 24 6.62 24 9 24 C9 23.34 9 22.68 9 22 C7.35 22 5.7 22 4 22 C4.33 21.01 4.66 20.02 5 19 C5.06665376 17.60560336 5.08538199 16.20830125 5.0625 14.8125 C5.041875 13.554375 5.02125 12.29625 5 11 C6.65 10.67 8.3 10.34 10 10 C10 8.68 10 7.36 10 6 C8.68 6 7.36 6 6 6 C6 4.35 6 2.7 6 1 C4.35 1 2.7 1 1 1 C1 2.65 1 4.3 1 6 C0.67 6 0.34 6 0 6 C0 4.02 0 2.04 0 0 Z " fill="#9E9E9E" transform="translate(356,203)"/>
<path d="M0 0 C0.66 0.33 1.32 0.66 2 1 C2.33 0.67 2.66 0.34 3 0 C3.33 0 3.66 0 4 0 C4 1.98 4 3.96 4 6 C3.01 6.495 3.01 6.495 2 7 C1.34786708 9.02463255 1.34786708 9.02463255 1 11 C1.99 11 2.98 11 4 11 C4 14.63 4 18.26 4 22 C2.68 22 1.36 22 0 22 C-0.19502282 19.08365878 -0.38129328 16.16720455 -0.5625 13.25 C-0.61857422 12.425 -0.67464844 11.6 -0.73242188 10.75 C-0.78076172 9.95078125 -0.82910156 9.1515625 -0.87890625 8.328125 C-0.9260376 7.5949707 -0.97316895 6.86181641 -1.02172852 6.10644531 C-0.99913793 3.91642774 -0.61487456 2.09512813 0 0 Z " fill="#EFEFEF" transform="translate(102,203)"/>
<path d="M0 0 C1.32 0 2.64 0 4 0 C4 5.61 4 11.22 4 17 C2.02 16.67 0.04 16.34 -2 16 C-1.67 15.01 -1.34 14.02 -1 13 C-0.77548542 10.77425665 -0.59217122 8.54418481 -0.4375 6.3125 C-0.35371094 5.13300781 -0.26992188 3.95351562 -0.18359375 2.73828125 C-0.12300781 1.83464844 -0.06242187 0.93101562 0 0 Z " fill="#FBFBFB" transform="translate(404,210)"/>
<path d="M0 0 C1.65 0 3.3 0 5 0 C6.20504323 2.41008646 6.35524446 4.38421288 6.625 7.0625 C6.72039062 7.96097656 6.81578125 8.85945312 6.9140625 9.78515625 C6.94242187 10.51605469 6.97078125 11.24695313 7 12 C6.67 12.33 6.34 12.66 6 13 C7.32 13.33 8.64 13.66 10 14 C10 14.66 10 15.32 10 16 C7.69 16 5.38 16 3 16 C1.61773984 13.23547967 1.90474613 10.9538637 1.9375 7.875 C1.94652344 6.77929688 1.95554687 5.68359375 1.96484375 4.5546875 C1.97644531 3.71164063 1.98804688 2.86859375 2 2 C1.34 2 0.68 2 0 2 C0 1.34 0 0.68 0 0 Z " fill="#FCFCFC" transform="translate(355,211)"/>
<path d="M0 0 C1.32 0 2.64 0 4 0 C4 5.61 4 11.22 4 17 C1.69 16.67 -0.62 16.34 -3 16 C-2.34 15.01 -1.68 14.02 -1 13 C-0.5396236 9.80193335 -0.5396236 9.80193335 -0.375 6.3125 C-0.30023438 5.13300781 -0.22546875 3.95351562 -0.1484375 2.73828125 C-0.09945312 1.83464844 -0.05046875 0.93101562 0 0 Z " fill="#040404" transform="translate(154,210)"/>
<path d="M0 0 C1.32 0 2.64 0 4 0 C4 5.61 4 11.22 4 17 C2.68 17 1.36 17 0 17 C0 11.39 0 5.78 0 0 Z " fill="#010101" transform="translate(96,210)"/>
<path d="M0 0 C0.33 0 0.66 0 1 0 C1 3.96 1 7.92 1 12 C-1.88211302 12.96070434 -3.69850044 13.10581883 -6.6875 13.0625 C-7.89986328 13.04896484 -7.89986328 13.04896484 -9.13671875 13.03515625 C-10.05904297 13.01775391 -10.05904297 13.01775391 -11 13 C-11.33 12.34 -11.66 11.68 -12 11 C-9.36 10.34 -6.72 9.68 -4 9 C-3.67 6.69 -3.34 4.38 -3 2 C-2.01 2 -1.02 2 0 2 C0 1.34 0 0.68 0 0 Z " fill="#FBFBFB" transform="translate(340,214)"/>
<path d="M0 0 C1.65 0 3.3 0 5 0 C6.60725635 3.21451269 6.05748185 6.43612536 6 10 C4.02 10 2.04 10 0 10 C0 6.7 0 3.4 0 0 Z " fill="#BEBEBE" transform="translate(168,213)"/>
<path d="M0 0 C1.65 0 3.3 0 5 0 C6.49106457 2.98212913 6.11941467 5.71609658 6 9 C5.67 9.33 5.34 9.66 5 10 C3.35 10 1.7 10 0 10 C0 6.7 0 3.4 0 0 Z " fill="#212121" transform="translate(418,213)"/>
<path d="M0 0 C0.33 0.66 0.66 1.32 1 2 C3.01669827 3.13350534 3.01669827 3.13350534 5 4 C4.68289063 4.56203125 4.36578125 5.1240625 4.0390625 5.703125 C2.93125475 8.15196317 2.61024601 10.08387855 2.375 12.75 C2.30023438 13.54921875 2.22546875 14.3484375 2.1484375 15.171875 C2.09945313 15.77515625 2.05046875 16.3784375 2 17 C1.67 17 1.34 17 1 17 C0.67 14.03 0.34 11.06 0 8 C-0.66 8 -1.32 8 -2 8 C-2.33 11.63 -2.66 15.26 -3 19 C-3.33 19 -3.66 19 -4 19 C-4.10853983 16.77191841 -4.18583307 14.54230068 -4.25 12.3125 C-4.29640625 11.07113281 -4.3428125 9.82976562 -4.390625 8.55078125 C-3.94119343 4.46544831 -2.82179677 2.90511754 0 0 Z " fill="#CECECE" transform="translate(325,201)"/>
<path d="M0 0 C0.33 0 0.66 0 1 0 C1 4.95 1 9.9 1 15 C-0.65 14.67 -2.3 14.34 -4 14 C-4 11.03 -4 8.06 -4 5 C-2.68 5 -1.36 5 0 5 C0 3.35 0 1.7 0 0 Z " fill="#090909" transform="translate(367,209)"/>
<path d="M0 0 C7.38461538 0.49230769 7.38461538 0.49230769 10.5 3.0625 C10.995 3.701875 11.49 4.34125 12 5 C9.69 4.67 7.38 4.34 5 4 C5.33 5.32 5.66 6.64 6 8 C2.535 6.02 2.535 6.02 -1 4 C-0.67 2.68 -0.34 1.36 0 0 Z " fill="#CBCBCB" transform="translate(67,136)"/>
<path d="M0 0 C1.26582219 3.86723631 1.1118765 7.73151262 1.0625 11.75 C1.05798828 12.44738281 1.05347656 13.14476563 1.04882812 13.86328125 C1.0371002 15.57555803 1.01916653 17.28779033 1 19 C0.67 19 0.34 19 0 19 C-0.33 13.39 -0.66 7.78 -1 2 C-3.59875 2.4640625 -3.59875 2.4640625 -6.25 2.9375 C-7.22453125 3.11152344 -8.1990625 3.28554688 -9.203125 3.46484375 C-11.49721795 3.90379729 -13.74291971 4.40348592 -16 5 C-15.67 4.01 -15.34 3.02 -15 2 C-9.86308839 0.00813631 -5.47549707 -0.1921227 0 0 Z " fill="#4B4B4B" transform="translate(170,55)"/>
<path d="M0 0 C0.33 0 0.66 0 1 0 C1 4.62 1 9.24 1 14 C2.65 14 4.3 14 6 14 C5.67 14.99 5.34 15.98 5 17 C6.32 17.33 7.64 17.66 9 18 C5.37 18 1.74 18 -2 18 C-2 17.01 -2 16.02 -2 15 C-1.67 15 -1.34 15 -1 15 C-0.67 10.05 -0.34 5.1 0 0 Z " fill="#D6D6D6" transform="translate(397,209)"/>
<path d="M0 0 C0.33 0 0.66 0 1 0 C1.3690205 9.41002278 1.3690205 9.41002278 -1 14 C-2.98 14 -4.96 14 -7 14 C-5.68 13.34 -4.36 12.68 -3 12 C-3.33 11.34 -3.66 10.68 -4 10 C-4.99 10.495 -4.99 10.495 -6 11 C-7.67654729 10.72057545 -9.34608154 10.39171753 -11 10 C-11 9.67 -11 9.34 -11 9 C-9.02 9 -7.04 9 -5 9 C-5 6.36 -5 3.72 -5 1 C-4.67 1 -4.34 1 -4 1 C-4 3.31 -4 5.62 -4 8 C-2.68 8 -1.36 8 0 8 C0 5.36 0 2.72 0 0 Z " fill="#3B3B3B" transform="translate(179,214)"/>
<path d="M0 0 C1.65 0 3.3 0 5 0 C5 2.97 5 5.94 5 9 C3.35 9 1.7 9 0 9 C0 6.03 0 3.06 0 0 Z " fill="#F5F5F5" transform="translate(113,214)"/>
<path d="M0 0 C1.9765625 1.3125 1.9765625 1.3125 4 4 C4.57128102 7.67098102 4.46598518 11.29355115 4.375 15 C4.37371094 15.99773437 4.37242187 16.99546875 4.37109375 18.0234375 C4.27377861 26.08978122 4.27377861 26.08978122 2 30 C2.01047363 29.44650879 2.02094727 28.89301758 2.03173828 28.32275391 C2.34836853 14.03572158 2.34836853 14.03572158 0 0 Z " fill="#A5A5A5" transform="translate(173,84)"/>
<path d="M0 0 C0.33 0.66 0.66 1.32 1 2 C0.34 2 -0.32 2 -1 2 C-1 3.98 -1 5.96 -1 8 C-1.99 8.495 -1.99 8.495 -3 9 C-4.13350534 11.01669827 -4.13350534 11.01669827 -5 13 C-5 11.02 -5 9.04 -5 7 C-5.66 6.67 -6.32 6.34 -7 6 C-6.3125 3.5625 -6.3125 3.5625 -5 1 C-2.375 0.1875 -2.375 0.1875 0 0 Z " fill="#121212" transform="translate(357,201)"/>
<path d="M0 0 C3.3 0 6.6 0 10 0 C10 1.32 10 2.64 10 4 C6.7 4 3.4 4 0 4 C0 2.68 0 1.36 0 0 Z " fill="#040404" transform="translate(80,200)"/>
<path d="M0 0 C0.042721 1.66611905 0.04063832 3.33382885 0 5 C-1 6 -1 6 -3.5625 6.0625 C-4.7690625 6.0315625 -4.7690625 6.0315625 -6 6 C-6.33 4.35 -6.66 2.7 -7 1 C-4.53721199 -0.231394 -2.7204945 -0.07159196 0 0 Z " fill="#C9C9C9" transform="translate(352,201)"/>
<path d="M0 0 C0.66 0.33 1.32 0.66 2 1 C-5.54166667 10.77623457 -5.54166667 10.77623457 -11 13 C-11 13.66 -11 14.32 -11 15 C-11.66 14.67 -12.32 14.34 -13 14 C-8.83295817 9.14256071 -4.58155004 4.46980492 0 0 Z " fill="#3D3D3D" transform="translate(74,40)"/>
<path d="M0 0 C0.66 0.33 1.32 0.66 2 1 C-1.9700218 5.21814817 -6.30840284 8.61227103 -11 12 C-11.66 11.67 -12.32 11.34 -13 11 C-11.54712339 9.66072279 -10.08752741 8.32873153 -8.625 7 C-7.81289063 6.2575 -7.00078125 5.515 -6.1640625 4.75 C-4 3 -4 3 -2 3 C-2 2.34 -2 1.68 -2 1 C-1.34 0.67 -0.68 0.34 0 0 Z " fill="#C2C2C2" transform="translate(331,35)"/>
<path d="M0 0 C-0.33 0.763125 -0.66 1.52625 -1 2.3125 C-2.17436686 4.99069135 -2.17436686 4.99069135 -2 8 C-4.97 7.505 -4.97 7.505 -8 7 C-6.53112033 2.34854772 -6.53112033 2.34854772 -4 0.6875 C-2 0 -2 0 0 0 Z " fill="#DEDEDE" transform="translate(340,31)"/>
<path d="M0 0 C2.31 0.66 4.62 1.32 7 2 C6.67 2.99 6.34 3.98 6 5 C-0.0546875 5.1953125 -0.0546875 5.1953125 -2 5 C-2.66 4.34 -3.32 3.68 -4 3 C-2.68 2.67 -1.36 2.34 0 2 C0 1.34 0 0.68 0 0 Z " fill="#151515" transform="translate(147,222)"/>
<path d="M0 0 C1.24546405 2.49092811 0.7767578 3.41080733 0 6 C-0.66 6 -1.32 6 -2 6 C-2.99 9.3 -3.98 12.6 -5 16 C-6.09190042 12.72429875 -6.28600189 10.43202271 -6 7 C-4.6875 5.375 -4.6875 5.375 -3 4 C-1.98199424 2.68036291 -0.97751635 1.34990354 0 0 Z " fill="#252525" transform="translate(202,128)"/>
<path d="M0 0 C1.65 0.33 3.3 0.66 5 1 C4.67 2.65 4.34 4.3 4 6 C2.35 5.67 0.7 5.34 -1 5 C-0.67 3.35 -0.34 1.7 0 0 Z " fill="#242424" transform="translate(96,201)"/>
<path d="M0 0 C0.66 0.33 1.32 0.66 2 1 C0.8359375 2.95703125 0.8359375 2.95703125 -1 5 C-3.5234375 5.57421875 -3.5234375 5.57421875 -6.375 5.6875 C-10.0248119 5.86345512 -13.42971856 6.20155524 -17 7 C-17 6.34 -17 5.68 -17 5 C-7.58997722 2.70387244 -7.58997722 2.70387244 -3 3 C-3 2.34 -3 1.68 -3 1 C-2.01 0.67 -1.02 0.34 0 0 Z " fill="#C0C0C0" transform="translate(408,135)"/>
<path d="M0 0 C0.99 0.33 1.98 0.66 3 1 C3 3.31 3 5.62 3 8 C1.68 8 0.36 8 -1 8 C-1.04241723 5.66705225 -1.04092937 3.33297433 -1 1 C-0.67 0.67 -0.34 0.34 0 0 Z " fill="#030303" transform="translate(176,214)"/>
<path d="M0 0 C5.75 1.875 5.75 1.875 8 3 C8 3.66 8 4.32 8 5 C8.66 5.33 9.32 5.66 10 6 C9.01 6 8.02 6 7 6 C7 5.34 7 4.68 7 4 C6.401875 4.350625 5.80375 4.70125 5.1875 5.0625 C3 6 3 6 0 5 C0 3.35 0 1.7 0 0 Z " fill="#D6D6D6" transform="translate(414,33)"/>
<path d="M0 0 C1.98 0.495 1.98 0.495 4 1 C3.67 1.66 3.34 2.32 3 3 C4.32 3.33 5.64 3.66 7 4 C7 4.66 7 5.32 7 6 C4.69 6 2.38 6 0 6 C-1.125 2.25 -1.125 2.25 0 0 Z " fill="#F4F3F4" transform="translate(358,221)"/>
<path d="M0 0 C0.66 0.33 1.32 0.66 2 1 C2.33 0.67 2.66 0.34 3 0 C3.33 0 3.66 0 4 0 C4 1.98 4 3.96 4 6 C3.01 6.495 3.01 6.495 2 7 C0.86649466 9.01669827 0.86649466 9.01669827 0 11 C-1.28571429 3.57142857 -1.28571429 3.57142857 0 0 Z " fill="#E9E9E9" transform="translate(102,203)"/>
<path d="M0 0 C2.875 -0.125 2.875 -0.125 6 0 C6.66 0.66 7.32 1.32 8 2 C7.01 2.66 6.02 3.32 5 4 C4.67 4.66 4.34 5.32 4 6 C2.68 5.34 1.36 4.68 0 4 C0 2.68 0 1.36 0 0 Z " fill="#3C3C3C" transform="translate(317,136)"/>
<path d="M0 0 C0 0.33 0 0.66 0 1 C-1.175625 1.2475 -2.35125 1.495 -3.5625 1.75 C-7.90806003 2.81896129 -11.21724066 4.63577541 -15 7 C-15.66 6.34 -16.32 5.68 -17 5 C-11.18524285 1.72408048 -6.75479274 -0.7342166 0 0 Z " fill="#5E5E5E" transform="translate(418,56)"/>
<path d="M0 0 C1.32 0.33 2.64 0.66 4 1 C4 2.98 4 4.96 4 7 C2.68 7 1.36 7 0 7 C0 4.69 0 2.38 0 0 Z " fill="#FAFAFA" transform="translate(169,215)"/>
<path d="M0 0 C2.40072955 2.88087546 4.47291037 5.56404834 6 9 C4.33388095 9.042721 2.66617115 9.04063832 1 9 C0 8 0 8 -0.09765625 6.15234375 C-0.06510417 4.1015625 -0.03255208 2.05078125 0 0 Z " fill="#D6D6D6" transform="translate(327,120)"/>
<path d="M0 0 C1.32 0 2.64 0 4 0 C4 1.65 4 3.3 4 5 C1.36 5 -1.28 5 -4 5 C-2.68 4.67 -1.36 4.34 0 4 C0 2.68 0 1.36 0 0 Z " fill="#343434" transform="translate(113,223)"/>
<path d="M0 0 C0.66 0.33 1.32 0.66 2 1 C2 1.66 2 2.32 2 3 C3.98 3 5.96 3 8 3 C5.09907498 4.93395001 4.10325263 5.30131941 0.8125 5.625 C-0.445625 5.74875 -1.70375 5.8725 -3 6 C-2.34 5.67 -1.68 5.34 -1 5 C-0.34444881 2.47266765 -0.34444881 2.47266765 0 0 Z " fill="#E7E7E7" transform="translate(328,220)"/>
<path d="M0 0 C0.66 0 1.32 0 2 0 C2 0.99 2 1.98 2 3 C5.465 2.505 5.465 2.505 9 2 C6 4 6 4 4 4 C3.67 5.32 3.34 6.64 3 8 C2.67 7.01 2.34 6.02 2 5 C1.01 5.495 1.01 5.495 0 6 C-0.38218767 4.34385343 -0.71395102 2.67542976 -1 1 C-0.67 0.67 -0.34 0.34 0 0 Z " fill="#2D2D2D" transform="translate(341,198)"/>
<path d="M0 0 C0.33 0.66 0.66 1.32 1 2 C0.06553465 4.03144641 -0.93224776 6.03533587 -2 8 C-2.99 8 -3.98 8 -5 8 C-4.45773019 4.20411134 -2.79872437 2.52788007 0 0 Z " fill="#CECECE" transform="translate(357,144)"/>
<path d="M0 0 C0.6875 1.8125 0.6875 1.8125 1 4 C-0.375 5.5625 -0.375 5.5625 -2 7 C-2.33 7.99 -2.66 8.98 -3 10 C-3.66 10 -4.32 10 -5 10 C-3.14285714 2.42857143 -3.14285714 2.42857143 0 0 Z " fill="#464646" transform="translate(57,60)"/>
<path d="M0 0 C-0.25 1.875 -0.25 1.875 -1 4 C-3.0625 5.25 -3.0625 5.25 -5 6 C-5.99 5.34 -6.98 4.68 -8 4 C-2.25 0 -2.25 0 0 0 Z " fill="#3B3B3B" transform="translate(88,32)"/>
<path d="M0 0 C1.98 0.99 3.96 1.98 6 3 C5.01 3.33 4.02 3.66 3 4 C2.67 4.99 2.34 5.98 2 7 C0.4375 5.75 0.4375 5.75 -1 4 C-0.6875 1.8125 -0.6875 1.8125 0 0 Z " fill="#DEDEDE" transform="translate(73,224)"/>
<path d="M0 0 C0.66 1.32 1.32 2.64 2 4 C-0.31 4.33 -2.62 4.66 -5 5 C-4.67 4.01 -4.34 3.02 -4 2 C-4.66 1.67 -5.32 1.34 -6 1 C-4.7934375 1.0309375 -4.7934375 1.0309375 -3.5625 1.0625 C-1.06645115 1.29633621 -1.06645115 1.29633621 0 0 Z " fill="#0D0D0D" transform="translate(175,223)"/>
<path d="M0 0 C1.98 0 3.96 0 6 0 C5.67 1.32 5.34 2.64 5 4 C3.35 4 1.7 4 0 4 C0 2.66666667 0 1.33333333 0 0 Z " fill="#ECECEC" transform="translate(418,209)"/>
<path d="M0 0 C0.33 0 0.66 0 1 0 C1.33 4.29 1.66 8.58 2 13 C1.34 13 0.68 13 0 13 C-1.06671952 9.79984144 -0.94845472 8.11455706 -0.5625 4.8125 C-0.46066406 3.91144531 -0.35882813 3.01039063 -0.25390625 2.08203125 C-0.17011719 1.39496094 -0.08632812 0.70789063 0 0 Z " fill="#151515" transform="translate(111,214)"/>
<path d="M0 0 C0.66 0.33 1.32 0.66 2 1 C0.02 3.31 -1.96 5.62 -4 8 C-4.33 7.34 -4.66 6.68 -5 6 C-5.66 5.67 -6.32 5.34 -7 5 C-6.030625 4.360625 -5.06125 3.72125 -4.0625 3.0625 C-1.23963731 1.3034741 -1.23963731 1.3034741 0 0 Z " fill="#545454" transform="translate(420,171)"/>
<path d="M0 0 C1.65 0 3.3 0 5 0 C5 0.66 5 1.32 5 2 C5.66 2 6.32 2 7 2 C7 2.66 7 3.32 7 4 C6.01 4.33 5.02 4.66 4 5 C2.68 3.35 1.36 1.7 0 0 Z " fill="#161616" transform="translate(64,157)"/>
<path d="M0 0 C-5.445 1.485 -5.445 1.485 -11 3 C-10.67 2.01 -10.34 1.02 -10 0 C-6.05523353 -0.80688405 -4.00001715 -1.00000429 0 0 Z " fill="#B3B3B3" transform="translate(105,26)"/>
</svg>
