<svg xmlns="http://www.w3.org/2000/svg" version="1.0" width="250.000000pt" height="250.000000pt" viewBox="0 0 250.000000 250.000000" preserveAspectRatio="xMidYMid meet" transform="matrix(1, 0, 0, 1, 0, 0)">

<g transform="translate(0.000000,250.000000) scale(0.100000,-0.100000)" fill="#7551ea" stroke="none">
<path d="M125 2485 c-50 -18 -100 -71 -114 -122 -15 -54 -15 -2173 0 -2228 14 -51 73 -110 124 -124 56 -15 2174 -15 2230 0 51 14 110 73 124 124 15 56 15 2174 0 2230 -14 51 -73 110 -124 124 -28 8 -362 11 -1120 11 -905 -1 -1086 -3 -1120 -15z m1210 -325 c338 -90 599 -363 680 -710 23 -99 23 -297 0 -400 -65 -286 -260 -528 -528 -656 -165 -78 -394 -104 -577 -66 -112 23 -225 68 -310 123 l-61 39 63 76 c98 117 138 166 197 238 30 36 60 66 66 66 6 0 19 -6 30 -14 61 -42 228 -60 316 -32 137 41 238 131 290 255 58 138 43 294 -41 419 -120 180 -358 243 -558 149 -25 -11 -47 -16 -52 -11 -4 5 -76 90 -159 189 l-151 180 28 23 c66 56 240 125 392 156 61 12 296 -3 375 -24z" fill="#7551ea"/>
</g>
</svg>