<?xml version="1.0" encoding="UTF-8"?>
<svg version="1.1" xmlns="http://www.w3.org/2000/svg" width="860" height="860">
<path d="M0 0 C201.3 0 402.6 0 610 0 C608.85137571 21.82386154 608.85137571 21.82386154 608.05202484 30.60789776 C607.96168679 31.63200637 607.87134874 32.65611498 607.77827317 33.71125719 C607.48020443 37.08096803 607.17732171 40.45022697 606.87438965 43.81950378 C606.65533343 46.28443063 606.43657823 48.74938424 606.2180953 51.21436197 C605.74522335 56.5416283 605.27025074 61.86870089 604.79335594 67.19560814 C604.08422035 75.11675239 603.37907012 83.03824803 602.67468072 90.95981557 C601.48905046 104.29209982 600.30020574 117.62409559 599.10945129 130.95592308 C597.93097558 144.15030304 596.75381079 157.34479881 595.57841492 170.53945351 C595.5051524 171.36186279 595.43188989 172.18427207 595.3564073 173.03160285 C595.05899152 176.37029067 594.76158484 179.70897929 594.46419034 183.04766901 C591.67808192 214.32575833 588.88830045 245.60351902 586.09662189 276.88111163 C583.61692783 304.66345298 581.13960743 332.4460049 578.66455078 360.22875977 C578.54639522 361.55505941 578.54639522 361.55505941 578.42585268 362.90815299 C578.26690743 364.69231842 578.10796239 366.47648386 577.94901756 368.26064933 C577.55312867 372.70452653 577.15723795 377.14840356 576.76134491 381.59228039 C576.6441868 382.90738184 576.6441868 382.90738184 576.52466187 384.249051 C574.08462159 411.63827049 571.6425262 439.02730676 569.20009099 466.41631278 C568.39006895 475.49976777 567.58018303 484.58323485 566.77070427 493.66673827 C566.69784245 494.48435005 566.62498063 495.30196183 566.54991088 496.14434973 C566.40318892 497.79078245 566.25646698 499.43721518 566.10974507 501.0836479 C564.78339021 515.96713036 563.45603424 530.85052301 562.12698925 545.73376551 C561.42422713 553.60388633 560.72223129 561.47407458 560.02135254 569.34436336 C559.49832688 575.21649074 558.97381122 581.08848441 558.44870502 586.96042613 C558.23624538 589.33881013 558.02426653 591.71723713 557.81281012 594.09571054 C557.52584182 597.32271058 557.23713025 600.54955007 556.94797516 603.77635479 C556.82479899 605.16856228 556.82479899 605.16856228 556.69913441 606.58889517 C556.23516463 611.74260845 555.67282702 616.86924886 555 622 C549.88737767 623.97627774 544.82604679 625.69662233 539.53369141 627.14697266 C538.82656037 627.34188577 538.11942934 627.53679888 537.39087009 627.73761845 C535.04537112 628.38323212 532.69847545 629.02360974 530.3515625 629.6640625 C528.65975898 630.1287815 526.96805525 630.59386391 525.27644348 631.0592804 C521.63845498 632.05953469 517.99987462 633.05759497 514.36080933 634.05392456 C505.53260202 636.47116407 496.70750722 638.89973116 487.88207054 641.32706261 C484.79852344 642.17503493 481.71485545 643.02256667 478.63117981 643.87007141 C459.735978 649.06473353 440.85451839 654.30835398 421.97567463 659.56210423 C415.36301278 661.40225467 408.74972962 663.24015633 402.13598633 665.07641602 C401.21447753 665.33226817 400.29296873 665.58812033 399.34353542 665.85172558 C395.68011264 666.86879364 392.01666361 667.88576706 388.35317802 668.90260887 C378.15443029 671.73343505 367.95686146 674.56838424 357.76184368 677.41261578 C351.81810603 679.07031475 345.87263878 680.72169848 339.92565632 682.3677187 C336.572075 683.2961542 333.21938097 684.2275148 329.86886597 685.16696167 C326.2754844 686.17295115 322.67923913 687.16795142 319.08203125 688.16015625 C318.0480722 688.45254181 317.01411316 688.74492737 315.94882202 689.0461731 C314.99480499 689.30687592 314.04078796 689.56757874 313.05786133 689.83618164 C312.2434407 690.06277969 311.42902008 690.28937775 310.58992004 690.52284241 C304.7926192 691.59091635 299.80750686 690.91163301 294.17871094 689.34545898 C293.52883618 689.16730117 292.87896143 688.98914335 292.2093935 688.80558681 C290.04860602 688.21091016 287.89160701 687.60353032 285.734375 686.99609375 C284.18034639 686.56563447 282.62609518 686.13597812 281.07164001 685.70706177 C276.84791224 684.5392386 272.62732899 683.36039974 268.40719223 682.17967606 C263.91497241 680.92496142 259.4198744 679.68064369 254.92504883 678.43530273 C247.38363276 676.34457491 239.84385291 674.24804217 232.30517578 672.14746094 C221.59074426 669.16231221 210.87221395 666.19211263 200.15234375 663.2265625 C196.73443401 662.28084254 193.31655114 661.33502554 189.89868164 660.38916016 C189.05539527 660.1557939 188.2121089 659.92242764 187.34326839 659.68198967 C177.95436967 657.08340367 168.56698563 654.47936104 159.1796875 651.875 C139.80646088 646.50035282 120.43184909 641.13071231 101.05684781 635.76246643 C91.50047287 633.11465444 81.94419161 630.46650436 72.38790894 627.81835938 C70.69450351 627.34910059 69.00109804 626.87984196 67.30769253 626.4105835 C63.20512784 625.27372418 59.10256375 624.1368627 55 623 C47.92345922 545.42070181 40.91809226 467.83540701 33.99978662 390.24181437 C33.3475408 382.92643084 32.69505884 375.61106838 32.04251466 368.29571146 C29.98946345 345.27981422 27.93687315 322.26387594 25.88589191 299.24779415 C25.75994396 297.83442257 25.63399591 296.421051 25.50804777 295.00767944 C25.44563526 294.30729366 25.38322275 293.60690787 25.31891895 292.88529828 C25.00306007 289.34076839 24.68719977 285.79623861 24.37133789 282.25170898 C24.30867656 281.54853201 24.24601523 280.84535503 24.18145507 280.12086966 C22.12335071 257.02532287 20.06234563 233.9300361 17.99975683 210.8348894 C15.79384352 186.13479121 13.59048924 161.43446606 11.39007634 136.73387724 C11.14928868 134.03104001 10.90849051 131.32820372 10.66768456 128.62536812 C10.60843744 127.96035771 10.54919032 127.2953473 10.48814784 126.61018506 C9.59787192 116.61805312 8.7056483 106.62609657 7.81240273 96.63422966 C6.80357925 85.34940078 5.7971437 74.06436223 4.79388402 62.77903729 C4.28320569 57.03541269 3.77137851 51.29189654 3.25647736 45.54864883 C2.78572208 40.29750735 2.31821911 35.0460869 1.85332312 29.79442353 C1.68463349 27.89537765 1.5147463 25.9964377 1.34354571 24.09761655 C1.11124345 21.51914654 0.88330172 18.94032631 0.65643787 16.36137295 C0.55526756 15.25595846 0.55526756 15.25595846 0.4520534 14.12821236 C0.36167558 13.08558757 0.36167558 13.08558757 0.26947194 12.02189964 C0.2170279 11.43378456 0.16458386 10.84566949 0.1105506 10.23973274 C-0.05772812 6.83044007 0 3.41344316 0 0 Z " fill="#E34D25" transform="translate(125,169)"/>
<path d="M0 0 C126.06 0 252.12 0 382 0 C376.9 64.6 376.9 64.6 375 76 C278.64 76 182.28 76 83 76 C83.99 84.58 84.98 93.16 86 102 C86.66245349 108.45172097 87.32217928 114.9003692 87.93530273 121.35644531 C88.19307947 124.0584845 88.45878128 126.75967978 88.72460938 129.4609375 C88.89370299 131.22391295 89.06234083 132.98693219 89.23046875 134.75 C89.3085527 135.53552246 89.38663666 136.32104492 89.46708679 137.13037109 C89.99752171 142.82800319 90 148.21455182 90 154 C181.74 154 273.48 154 368 154 C368 159.06165945 367.93152053 163.70194784 367.44702148 168.68261719 C367.26672142 170.56778046 367.26672142 170.56778046 367.08277893 172.49102783 C366.94975071 173.84298019 366.81668804 175.19492915 366.68359375 176.546875 C366.54627159 177.97121443 366.40935189 179.39559271 366.27281189 180.82000732 C365.9902285 183.76420046 365.70584854 186.70821155 365.42010498 189.65209961 C364.77677235 196.29269406 364.15711508 202.93549881 363.53515625 209.578125 C363.29223073 212.16276754 363.04922885 214.7474029 362.80615234 217.33203125 C359.81366594 249.16351765 359.81366594 249.16351765 356.875 281 C356.75670334 282.29428421 356.75670334 282.29428421 356.63601685 283.61471558 C355.24864056 298.84695476 353.99727006 314.08946032 352.753479 329.33398438 C351.12235966 349.25337466 349.14127314 369.12953606 347 389 C345.84346924 389.32105713 344.68693848 389.64211426 343.49536133 389.97290039 C334.55756537 392.45451663 325.62022743 394.93768635 316.6875 397.4375 C315.63771973 397.73116455 314.58793945 398.0248291 313.50634766 398.32739258 C306.62212954 400.25640678 299.74648599 402.21367464 292.875 404.1875 C286.09355817 406.13338087 279.29841745 408.00468586 272.4765625 409.8046875 C266.74387586 411.32695754 261.02433727 412.89759139 255.30517578 414.4697876 C253.43430578 414.98370891 251.56286493 415.49555072 249.69140625 416.00732422 C243.92280733 417.59556387 238.18257067 419.23495624 232.47265625 421.0234375 C225.72597485 423.12381945 218.91151695 424.89262414 212.0625 426.625 C209.71955137 427.21938391 207.37708495 427.81567258 205.03515625 428.4140625 C204.0181665 428.6713916 203.00117676 428.9287207 201.95336914 429.19384766 C198.94658436 429.97648438 198.94658436 429.97648438 195.86328125 431.10449219 C187.53304248 433.70982266 177.92353498 429.43840995 169.84811401 427.05062866 C165.94740302 425.89757651 162.03964685 424.76881294 158.1328125 423.63671875 C156.96289009 423.2966555 156.96289009 423.2966555 155.76933289 422.94972229 C147.89175623 420.66521008 139.97869196 418.52550731 132.05102539 416.42138672 C124.58658505 414.43849416 117.14417436 412.3821918 109.7043457 410.30932617 C105.16172539 409.04377509 100.61626034 407.7886916 96.0703125 406.53515625 C66.75714914 398.44136473 66.75714914 398.44136473 55.60009766 394.97680664 C48.45814105 392.77259468 41.22725282 390.90094122 34 389 C33.87939209 387.56672363 33.87939209 387.56672363 33.75634766 386.10449219 C33.44850427 382.45120138 33.13857995 378.79808925 32.828125 375.14501953 C32.69574908 373.58419284 32.56388773 372.02332239 32.43261719 370.46240234 C31.70724328 361.84161245 30.93814838 353.22800856 30.0625 344.62109375 C28.85872415 332.77532562 27.77885667 320.91868674 26.71289062 309.05981445 C26.48583981 306.54174873 26.25697054 304.02384638 26.02636719 301.50610352 C25.68814088 297.81300567 25.35519432 294.11946522 25.0234375 290.42578125 C24.92034271 289.31004227 24.81724792 288.19430328 24.71102905 287.04475403 C24.61738068 285.98882553 24.5237323 284.93289703 24.42724609 283.8449707 C24.34445404 282.93044632 24.26166199 282.01592194 24.17636108 281.07368469 C23.94579542 277.05530303 24 273.02499089 24 269 C49.08 269 74.16 269 100 269 C101.29861614 279.38892914 102.52014512 289.71176099 103.43261719 300.12915039 C103.62649678 302.32948692 103.82870119 304.52896212 104.03125 306.72851562 C104.72866634 314.49632442 105.20738249 322.19382988 105 330 C105.8815979 330.16761841 105.8815979 330.16761841 106.78100586 330.33862305 C113.42850653 331.63171633 119.99531456 333.1620689 126.5625 334.8125 C127.62331787 335.07820801 128.68413574 335.34391602 129.77709961 335.61767578 C136.22769191 337.25072475 142.60413781 339.02546636 148.97241211 340.953125 C155.94591607 343.03432281 162.97401818 344.91065148 170.01266479 346.75689697 C171.4081004 347.12393543 172.80275502 347.49395755 174.19656372 347.86712646 C176.173154 348.39533038 178.15244792 348.91193381 180.1328125 349.42578125 C181.28668457 349.72911377 182.44055664 350.03244629 183.62939453 350.3449707 C189.51627875 351.48900303 194.50661882 351.09782508 200.26953125 349.56640625 C201.47158203 349.25155273 202.67363281 348.93669922 203.91210938 348.61230469 C205.21228456 348.26253693 206.51241353 347.91259735 207.8125 347.5625 C209.17362617 347.20268568 210.53495891 346.84365198 211.89648438 346.48535156 C214.77426833 345.72639345 217.65059624 344.96222672 220.52587891 344.19384766 C225.03942904 342.98795053 229.556513 341.79568774 234.07421875 340.60546875 C239.77989523 339.10104076 245.4845252 337.59276302 251.1875 336.078125 C251.83228806 335.90715805 252.47707611 335.7361911 253.1414032 335.56004333 C256.51724401 334.66395815 259.89077742 333.76005848 263.26171875 332.84570312 C263.95177002 332.65933289 264.64182129 332.47296265 265.3527832 332.28094482 C267.26432141 331.76428949 269.17515193 331.24501791 271.0859375 330.72558594 C274 330 274 330 276 330 C276.33 323.4 276.66 316.8 277 310 C279.31 283.93 281.62 257.86 284 231 C196.88 231 109.76 231 20 231 C18.02 209.55 16.04 188.1 14 166 C12.46451171 150.37288732 12.46451171 150.37288732 10.92578125 134.74609375 C9.70043308 122.05397103 8.64177974 109.34797041 7.57641602 96.64160156 C6.20499977 80.2982211 4.77025517 63.96089685 3.3125 47.625 C3.20390656 46.40360321 3.09531311 45.18220642 2.98342896 43.92379761 C2.67365708 40.44128568 2.36247452 36.95890293 2.05078125 33.4765625 C1.95927795 32.44734177 1.86777466 31.41812103 1.77349854 30.35771179 C1.38992757 26.09189009 0.98362403 21.84291743 0.43432617 17.59521484 C-0.11773157 11.75438809 0 5.86685818 0 0 Z " fill="#FEFEFD" transform="translate(239,296)"/>
<path d="M0 0 C82.17 0 164.34 0 249 0 C248.40283002 9.55471972 247.79992064 19.08844608 247 28.625 C246.9175 29.64722656 246.835 30.66945312 246.75 31.72265625 C246.6675 32.71394531 246.585 33.70523438 246.5 34.7265625 C246.4278125 35.59877441 246.355625 36.47098633 246.28125 37.36962891 C246.08038216 39.2482314 245.81144436 41.12005898 245.49780273 42.9831543 C245.02517146 45.8474528 244.74048761 48.64847516 244.53515625 51.54296875 C244.45845703 52.60378662 244.38175781 53.66460449 244.30273438 54.75756836 C244.22345703 55.8894458 244.14417969 57.02132324 244.0625 58.1875 C243.97677734 59.36771729 243.89105469 60.54793457 243.80273438 61.76391602 C243.35322574 67.96147536 242.91983344 74.16000524 242.49609375 80.359375 C242.41286865 81.54635986 242.32964355 82.73334473 242.24389648 83.95629883 C242.08611208 86.20839874 241.93296761 88.46083059 241.78540039 90.71362305 C241.43154326 95.72614692 240.93397878 100.59631105 240 105.53515625 C239.07280248 110.76392136 238.73923797 115.89350891 238.5234375 121.1875 C238.07427415 132.05894528 237.04842421 142.84519646 235.9597168 153.66894531 C235.38142231 159.4240511 234.81952738 165.18075583 234.2578125 170.9375 C234.14661072 172.07509766 234.03540894 173.21269531 233.9208374 174.38476562 C233.02735135 183.583508 232.23397063 192.78734699 231.5 202 C230.26680387 217.44832686 228.75877055 232.86517577 227.23840332 248.28759766 C225.29320963 268.1052222 223.69513291 287.94033184 222.25610352 307.80078125 C222.17830154 308.86006836 222.10049957 309.91935547 222.02033997 311.01074219 C221.87548038 312.98902267 221.73367822 314.96753035 221.59550476 316.94628906 C221.53143936 317.82124023 221.46737396 318.69619141 221.40136719 319.59765625 C221.34760925 320.35570557 221.29385132 321.11375488 221.23846436 321.89477539 C220.99960355 324.00349996 220.53576856 325.9493855 220 328 C219.80166588 329.80669983 219.63824369 331.61739906 219.5 333.4296875 C219.4175 334.47253906 219.335 335.51539063 219.25 336.58984375 C219.1675 337.67394531 219.085 338.75804687 219 339.875 C218.83571445 342.018413 218.66911761 344.16165034 218.5 346.3046875 C218.4278125 347.25327637 218.355625 348.20186523 218.28125 349.17919922 C218 352 218 352 217.50708008 354.83300781 C216.89314919 358.66734167 216.62972996 362.49607505 216.38671875 366.3671875 C216.27442208 368.05373318 216.16177604 369.74025562 216.04882812 371.42675781 C215.99025635 372.3131897 215.93168457 373.19962158 215.87133789 374.11291504 C214.8457009 389.52266822 213.60188121 404.8894431 212 420.25 C210.63319422 433.36475003 209.43309163 446.47669206 208.4375 459.625 C207.47671753 472.29939627 206.3660762 484.94078899 205.06103516 497.58496094 C203.91266705 508.71293924 202.93082977 519.85194464 202 531 C201.26394531 531.19335938 200.52789063 531.38671875 199.76953125 531.5859375 C198.79371094 531.84632813 197.81789063 532.10671875 196.8125 532.375 C195.36810547 532.75785156 195.36810547 532.75785156 193.89453125 533.1484375 C191.17567853 533.9483159 188.62388628 534.93639378 186 536 C183.37822918 536.70059847 180.76304806 537.36884084 178.125 538 C176.75231558 538.33214292 175.37991663 538.66546795 174.0078125 539 C173.00681519 539.24387451 173.00681519 539.24387451 171.9855957 539.49267578 C170.03729766 539.99047036 168.10598925 540.55330651 166.17578125 541.1171875 C163.2585128 541.92813789 161.00160736 542.1819156 158 542 C158 542.66 158 543.32 158 544 C157.34773438 544.12117187 156.69546875 544.24234375 156.0234375 544.3671875 C151.19515058 545.29296523 146.65807285 546.41625523 142 548 C131.06403941 551 131.06403941 551 126 551 C126 551.66 126 552.32 126 553 C124.4221875 553.185625 124.4221875 553.185625 122.8125 553.375 C119.21567889 553.81872058 119.21567889 553.81872058 116.859375 554.875 C112.80706776 556.46935039 108.64612338 557.52235991 104.4375 558.625 C103.58736328 558.85445312 102.73722656 559.08390625 101.86132812 559.3203125 C101.03955078 559.536875 100.21777344 559.7534375 99.37109375 559.9765625 C98.62786865 560.17330566 97.88464355 560.37004883 97.11889648 560.57275391 C95 561 95 561 91 561 C91 561.66 91 562.32 91 563 C89.58460938 563.25523437 89.58460938 563.25523437 88.140625 563.515625 C80.84712488 564.89230976 73.98451484 566.54535343 66.97265625 569.02734375 C62.81096188 570.38905452 58.58393608 571.29699908 54.30078125 572.19140625 C51.70342388 572.82768196 49.28847182 573.56143844 46.76953125 574.43359375 C40.8356513 576.4589599 34.75552351 577.75145551 28.640625 579.10546875 C23.45242255 580.29285619 18.82299597 581.74678567 14 584 C8.68329684 586.14930553 6.30827406 586 0 586 C0 560.59 0 535.18 0 509 C-1.98 509 -3.96 509 -6 509 C-6 508.34 -6 507.68 -6 507 C-4.96488281 507.07863281 -3.92976562 507.15726563 -2.86328125 507.23828125 C3.62057324 507.23400336 9.66051329 505.04513322 15.8125 503.1875 C18.23551554 502.47210887 20.65869063 501.7572579 23.08203125 501.04296875 C24.2637793 500.69186035 25.44552734 500.34075195 26.66308594 499.97900391 C30.42510578 498.87527991 34.2007192 497.8358357 37.98608398 496.81567383 C41.68516986 495.81456845 45.37794124 494.79114605 49.0703125 493.765625 C50.15370659 493.46479256 50.15370659 493.46479256 51.25898743 493.15788269 C52.76739639 492.73889449 54.27577275 492.3197889 55.78411865 491.90057373 C58.17906515 491.2349743 60.57414912 490.56987104 62.96923828 489.90478516 C69.93534626 487.96959507 76.90061531 486.03179975 83.859375 484.0703125 C96.33188169 480.55466562 108.83286493 477.1652281 121.36108398 473.85473633 C129.50915782 471.6927417 137.60099805 469.40768199 145.65234375 466.91015625 C149.0947976 465.97422656 152.46152908 465.4293164 156 465 C155.97897217 464.41984131 155.95794434 463.83968262 155.9362793 463.24194336 C155.77458168 454.79304354 156.64033027 446.52440632 157.53759766 438.13806152 C158.01418691 433.67289426 158.47022516 429.20563634 158.92578125 424.73828125 C159.01856354 423.83016693 159.11134583 422.92205261 159.2069397 421.98641968 C160.07456632 413.41559653 160.80731848 404.83647772 161.5 396.25 C162.98922061 377.90510909 164.64581617 359.57765533 166.33300781 341.25 C166.83352662 335.81260688 167.33262176 330.37508461 167.83105469 324.9375 C168.60456793 316.499181 169.37914235 308.0609599 170.15441895 299.62280273 C170.46514454 296.24082785 170.77559414 292.85882782 171.08581543 289.47680664 C173.94446847 258.32040613 173.94446847 258.32040613 175.1484375 246.21875 C175.22252838 245.4714563 175.29661926 244.7241626 175.37295532 243.95422363 C175.84478935 239.29018631 176.41819438 234.65444496 177 230 C85.26 230 -6.48 230 -101 230 C-108 158 -108 158 -108 152 C-11.64 152 84.72 152 184 152 C184.33 146.39 184.66 140.78 185 135 C185.3638822 130.47940207 185.74237436 125.96496246 186.15625 121.44921875 C186.2634436 120.26197708 186.37063721 119.07473541 186.4810791 117.85151672 C186.70495999 115.38046305 186.93018371 112.90953068 187.15673828 110.4387207 C187.5034053 106.65028628 187.84372276 102.86131514 188.18359375 99.07226562 C188.40326828 96.65621564 188.6233068 94.24019872 188.84375 91.82421875 C188.94482056 90.69513596 189.04589111 89.56605316 189.15002441 88.40275574 C189.24682495 87.35678726 189.34362549 86.31081879 189.44335938 85.2331543 C189.52694702 84.31624313 189.61053467 83.39933197 189.69665527 82.45463562 C190 80 190 80 191 76 C64.94 76 -61.12 76 -191 76 C-190.34 83.26 -189.68 90.52 -189 98 C-189 101.3 -189 104.6 -189 108 C-193.90008637 98.19982726 -192 85.42365152 -192 75 C-128.64 75 -65.28 75 0 75 C0 50.25 0 25.5 0 0 Z " fill="#F16529" transform="translate(430,220)"/>
<path d="M0 0 C126.06 0 252.12 0 382 0 C376.9 64.6 376.9 64.6 375 76 C278.64 76 182.28 76 83 76 C83.99 84.58 84.98 93.16 86 102 C86.66245349 108.45172097 87.32217928 114.9003692 87.93530273 121.35644531 C88.19307947 124.0584845 88.45878128 126.75967978 88.72460938 129.4609375 C88.89370299 131.22391295 89.06234083 132.98693219 89.23046875 134.75 C89.3085527 135.53552246 89.38663666 136.32104492 89.46708679 137.13037109 C89.99752171 142.82800319 90 148.21455182 90 154 C181.74 154 273.48 154 368 154 C368 156.64 368 159.28 368 162 C367.67 162 367.34 162 367 162 C367 159.69 367 157.38 367 155 C308.92 155 250.84 155 191 155 C191 179.75 191 204.5 191 230 C222.02 230 253.04 230 285 230 C285 232.97 285 235.94 285 239 C284.67 239 284.34 239 284 239 C284 236.36 284 233.72 284 231 C196.88 231 109.76 231 20 231 C18.02 209.55 16.04 188.1 14 166 C12.46451171 150.37288732 12.46451171 150.37288732 10.92578125 134.74609375 C9.70043308 122.05397103 8.64177974 109.34797041 7.57641602 96.64160156 C6.20499977 80.2982211 4.77025517 63.96089685 3.3125 47.625 C3.20390656 46.40360321 3.09531311 45.18220642 2.98342896 43.92379761 C2.67365708 40.44128568 2.36247452 36.95890293 2.05078125 33.4765625 C1.95927795 32.44734177 1.86777466 31.41812103 1.77349854 30.35771179 C1.38992757 26.09189009 0.98362403 21.84291743 0.43432617 17.59521484 C-0.11773157 11.75438809 0 5.86685818 0 0 Z " fill="#ECE9E8" transform="translate(239,296)"/>
<path d="M0 0 C25.08 0 50.16 0 76 0 C77.29861614 10.38892914 78.52014512 20.71176099 79.43261719 31.12915039 C79.62649678 33.32948692 79.82870119 35.52896212 80.03125 37.72851562 C80.72866634 45.49632442 81.20738249 53.19382988 81 61 C81.58773193 61.11174561 82.17546387 61.22349121 82.78100586 61.33862305 C89.42850653 62.63171633 95.99531456 64.1620689 102.5625 65.8125 C103.62331787 66.07820801 104.68413574 66.34391602 105.77709961 66.61767578 C111.57983766 68.08671226 117.33300046 69.64323528 123.0625 71.375 C130.59975113 73.64605365 138.18473643 75.73805371 145.79293823 77.75689697 C147.16153453 78.12211008 148.52887945 78.49205134 149.89480591 78.86712646 C158.07126826 81.10707019 165.50540393 82.58747467 174 82 C172 84 172 84 167 85 C167 109.75 167 134.5 167 160 C169.31 159.67 171.62 159.34 174 159 C175.64481706 158.80378471 177.29054359 158.61486454 178.9375 158.4375 C179.70964844 158.35371094 180.48179687 158.26992188 181.27734375 158.18359375 C181.84582031 158.12300781 182.41429687 158.06242188 183 158 C180.16406651 159.48610702 177.35335551 160.68367491 174.3125 161.6875 C173.52488281 161.95949219 172.73726562 162.23148438 171.92578125 162.51171875 C163.06799349 163.98998773 154.25933452 160.53770085 145.84811401 158.05062866 C141.94740302 156.89757651 138.03964685 155.76881294 134.1328125 154.63671875 C132.96289009 154.2966555 132.96289009 154.2966555 131.76933289 153.94972229 C123.89175623 151.66521008 115.97869196 149.52550731 108.05102539 147.42138672 C100.58658505 145.43849416 93.14417436 143.3821918 85.7043457 141.30932617 C81.16172539 140.04377509 76.61626034 138.7886916 72.0703125 137.53515625 C42.75714914 129.44136473 42.75714914 129.44136473 31.60009766 125.97680664 C24.45814105 123.77259468 17.22725282 121.90094122 10 120 C9.87939209 118.56672363 9.87939209 118.56672363 9.75634766 117.10449219 C9.44850427 113.45120138 9.13857995 109.79808925 8.828125 106.14501953 C8.69574908 104.58419284 8.56388773 103.02332239 8.43261719 101.46240234 C7.70724328 92.84161245 6.93814838 84.22800856 6.0625 75.62109375 C4.85872415 63.77532562 3.77885667 51.91868674 2.71289062 40.05981445 C2.48583981 37.54174873 2.25697054 35.02384638 2.02636719 32.50610352 C1.68814088 28.81300567 1.35519432 25.11946522 1.0234375 21.42578125 C0.92034271 20.31004227 0.81724792 19.19430328 0.71102905 18.04475403 C0.57055649 16.46086128 0.57055649 16.46086128 0.42724609 14.8449707 C0.34445404 13.93044632 0.26166199 13.01592194 0.17636108 12.07368469 C-0.05420458 8.05530303 0 4.02499089 0 0 Z " fill="#EBEAE9" transform="translate(263,565)"/>
<path d="M0 0 C62.37 0 124.74 0 189 0 C189 8.25 189 16.5 189 25 C188.34 25 187.68 25 187 25 C186.52320703 30.83310554 186.06410911 36.66381268 185.74609375 42.5078125 C185.70476318 43.26392822 185.66343262 44.02004395 185.62084961 44.79907227 C185.54143979 46.28636204 185.46532975 47.77383236 185.39282227 49.26147461 C185.2098767 52.68219636 184.83573478 55.65706087 184 59 C183.67 63.95 183.34 68.9 183 74 C122.61 74 62.22 74 0 74 C0 49.58 0 25.16 0 0 Z " fill="#FEFEFE" transform="translate(430,297)"/>
<path d="M0 0 C13.86 0 27.72 0 42 0 C49.86917708 11.24168155 49.86917708 11.24168155 52.38671875 15.578125 C52.93263672 16.51140625 53.47855469 17.4446875 54.04101562 18.40625 C54.58435547 19.3446875 55.12769531 20.283125 55.6875 21.25 C60.62992129 29.75917123 60.62992129 29.75917123 66 38 C70.96901682 31.13004645 75.44054526 24.0851911 79.6875 16.75 C80.79398259 14.84803226 81.90201375 12.94696442 83.01171875 11.046875 C83.73041138 9.80695801 83.73041138 9.80695801 84.46362305 8.54199219 C86.218733 5.63809821 88.11785628 2.82321557 90 0 C103.86 0 117.72 0 132 0 C132 38.28 132 76.56 132 116 C118.8 116 105.6 116 92 116 C91.67 98.51 91.34 81.02 91 63 C87.7 68.28 84.4 73.56 81 79 C78.51829895 82.8275842 76.02858364 86.64178981 73.5 90.4375 C72.89414062 91.35853516 72.28828125 92.27957031 71.6640625 93.22851562 C71.08398438 94.10056641 70.50390625 94.97261719 69.90625 95.87109375 C69.39384766 96.64380615 68.88144531 97.41651855 68.35351562 98.21264648 C67 100 67 100 65 101 C64.70456299 100.52916992 64.40912598 100.05833984 64.10473633 99.57324219 C62.67560181 97.2978122 61.24403009 95.02392358 59.8125 92.75 C59.34908203 92.01136719 58.88566406 91.27273437 58.40820312 90.51171875 C52.37594524 80.93794172 46.16913543 71.49097758 40 62 C39.67 79.82 39.34 97.64 39 116 C26.13 116 13.26 116 0 116 C0 77.72 0 39.44 0 0 Z " fill="#000000" transform="translate(435,0)"/>
<path d="M0 0 C12.87 0 25.74 0 39 0 C39 12.54 39 25.08 39 38 C50.55 38 62.1 38 74 38 C74 25.46 74 12.92 74 0 C86.87 0 99.74 0 113 0 C113 38.28 113 76.56 113 116 C100.13 116 87.26 116 74 116 C74 103.46 74 90.92 74 78 C62.78 78 51.56 78 40 78 C40 90.54 40 103.08 40 116 C26.8 116 13.6 116 0 116 C0 77.72 0 39.44 0 0 Z " fill="#000000" transform="translate(182,0)"/>
<path d="M0 0 C0.33 0 0.66 0 1 0 C1.17234237 1.79112962 1.33749681 3.58295091 1.5 5.375 C1.5928125 6.37273437 1.685625 7.37046875 1.78125 8.3984375 C2.0561541 12.92453717 2 17.46555952 2 22 C89.12 22 176.24 22 266 22 C266 35.78704616 266 35.78704616 265.37329102 42.48730469 C265.30662231 43.24673874 265.23995361 44.00617279 265.17126465 44.78862 C264.95388284 47.25018731 264.72904403 49.71100603 264.50390625 52.171875 C264.34893804 53.90672097 264.19439988 55.64160541 264.04026794 57.37652588 C263.71811698 60.99073387 263.39257362 64.60461304 263.06420898 68.21826172 C262.64489967 72.83301063 262.23144563 77.44825909 261.82019138 82.06373215 C261.42505475 86.49578915 261.02712799 90.92759429 260.62890625 95.359375 C260.55406069 96.19463463 260.47921513 97.02989426 260.40210152 97.89046478 C260.18829074 100.27054159 259.97251214 102.6504316 259.75610352 105.03027344 C259.66331367 106.06691383 259.66331367 106.06691383 259.56864929 107.12449646 C259.14379403 111.76521496 258.59741421 116.37910549 258 121 C246.26468523 124.52264573 234.48193732 127.7882285 222.625 130.875 C220.96473768 131.3083364 219.30450039 131.7417687 217.64428711 132.17529297 C215.14527529 132.82773199 212.64618911 133.47987422 210.14677429 134.13076782 C205.66823003 135.29810109 201.19360363 136.47845689 196.72412109 137.68002319 C194.83357719 138.188015 192.94195009 138.69197019 191.05029297 139.19580078 C188.79365598 139.79700198 186.53864244 140.40434483 184.28564453 141.01904297 C176.53307997 143.06799746 170.40895812 143.61589882 162.5625 141.5 C160.98662109 141.08234375 160.98662109 141.08234375 159.37890625 140.65625 C158.59386719 140.4396875 157.80882812 140.223125 157 140 C157 139.67 157 139.34 157 139 C158.54074116 138.91778654 160.08280654 138.86026705 161.625 138.8125 C162.48351562 138.77769531 163.34203125 138.74289062 164.2265625 138.70703125 C167 139 167 139 173 142 C173 102.73 173 63.46 173 23 C116.24 23 59.48 23 1 23 C-0.2263757 20.54724859 -0.11415314 18.9494219 -0.09765625 16.2109375 C-0.09443359 15.26992188 -0.09121094 14.32890625 -0.08789062 13.359375 C-0.07951172 12.37453125 -0.07113281 11.3896875 -0.0625 10.375 C-0.05798828 9.38242187 -0.05347656 8.38984375 -0.04882812 7.3671875 C-0.03702145 4.9113984 -0.020554 2.45572896 0 0 Z " fill="#F0652A" transform="translate(257,505)"/>
<path d="M0 0 C35.31 0 70.62 0 107 0 C107 25.41 107 50.82 107 77 C73.67 77 40.34 77 6 77 C5.01 66.708125 4.02 56.41625 3 45.8125 C2.68675781 42.58960205 2.37351562 39.3667041 2.05078125 36.04614258 C1.80420263 33.45398488 1.55807917 30.86178383 1.3125 28.26953125 C1.21569946 27.28795296 1.21569946 27.28795296 1.11694336 26.2865448 C0.92237804 24.30853941 0.73652333 22.3296835 0.55078125 20.35083008 C0.44419189 19.2427449 0.33760254 18.13465973 0.2277832 16.99299622 C-0.094847 11.33735013 0 5.66484094 0 0 Z " fill="#E34D25" transform="translate(323,373)"/>
<path d="M0 0 C35.64 0 71.28 0 108 0 C108 12.87 108 25.74 108 39 C96.78 39 85.56 39 74 39 C74 64.41 74 89.82 74 116 C61.13 116 48.26 116 35 116 C35 90.59 35 65.18 35 39 C23.45 39 11.9 39 0 39 C0 26.13 0 13.26 0 0 Z " fill="#000000" transform="translate(311,0)"/>
<path d="M0 0 C13.2 0 26.4 0 40 0 C40 25.41 40 50.82 40 77 C58.15 77 76.3 77 95 77 C95 89.87 95 102.74 95 116 C63.65 116 32.3 116 0 116 C0 77.72 0 39.44 0 0 Z " fill="#000000" transform="translate(585,0)"/>
<path d="M0 0 C1.08628693 0.00303635 1.08628693 0.00303635 2.19451904 0.00613403 C3.3334964 0.00350555 3.3334964 0.00350555 4.4954834 0.00082397 C7.0175807 -0.00359473 9.53960847 -0.00065649 12.06170654 0.00271606 C13.80666111 0.00204303 15.55161558 0.00107301 17.29656982 -0.00018311 C20.95852549 -0.0016601 24.62045682 0.00049454 28.28240967 0.00515747 C32.98715147 0.01085476 37.69183622 0.00757577 42.39657593 0.00158501 C46.00124546 -0.00202055 49.60590136 -0.00088204 53.21057129 0.0017128 C54.94580085 0.00238208 56.68103163 0.0015536 58.41625977 -0.00076675 C60.83717142 -0.0032932 63.25798941 0.00054718 65.67889404 0.00613403 C66.40308533 0.0041098 67.12727661 0.00208557 67.87341309 0 C72.82244388 0.0212659 72.82244388 0.0212659 73.93670654 1.13552856 C74.14642562 2.73463656 74.30491325 4.34062102 74.43670654 5.94802856 C74.71848569 9.49708001 74.71848569 9.49708001 75.43670654 12.97146606 C76.00930329 15.44973638 76.13186128 17.76162613 76.21795654 20.30349731 C76.27403076 21.76626099 76.27403076 21.76626099 76.33123779 23.25857544 C76.40195314 25.31324911 76.47226108 27.36793685 76.54217529 29.42263794 C76.59824951 30.87960083 76.59824951 30.87960083 76.65545654 32.36599731 C76.68574951 33.2569812 76.71604248 34.14796509 76.74725342 35.06594849 C76.71327116 37.12532725 76.71327116 37.12532725 77.93670654 38.13552856 C78.02408299 39.98922468 78.04368807 41.84620397 78.03436279 43.70193481 C78.02952881 45.38899536 78.02952881 45.38899536 78.02459717 47.11013794 C78.01202881 48.8861438 78.01202881 48.8861438 77.99920654 50.69802856 C77.99469482 51.88589966 77.99018311 53.07377075 77.98553467 54.29763794 C77.97370329 57.24365082 77.95721941 60.18956537 77.93670654 63.13552856 C77.60670654 63.13552856 77.27670654 63.13552856 76.93670654 63.13552856 C76.28272871 55.77291578 75.6306387 48.41013837 74.9809494 41.04714584 C74.67920472 37.62811896 74.37681331 34.20915186 74.07293701 30.79031372 C73.72351068 26.85868026 73.37690962 22.92680019 73.03045654 18.99490356 C72.92108765 17.76874329 72.81171875 16.54258301 72.69903564 15.27926636 C72.59893188 14.13838562 72.49882812 12.99750488 72.39569092 11.822052 C72.30686646 10.81833557 72.21804199 9.81461914 72.12652588 8.78048706 C71.96790725 6.57028179 71.93670654 4.35141827 71.93670654 2.13552856 C46.85670654 2.13552856 21.77670654 2.13552856 -4.06329346 2.13552856 C-3.07329346 12.03552856 -2.08329346 21.93552856 -1.06329346 32.13552856 C-0.0125723 43.46429162 -0.0125723 43.46429162 0.44476318 48.80300903 C0.63083482 50.96245261 0.82385176 53.12121948 1.01678467 55.28005981 C1.65517507 62.58742164 2.08777141 69.79809232 1.93670654 77.13552856 C1.27670654 77.13552856 0.61670654 77.13552856 -0.06329346 77.13552856 C-0.14893555 75.92904663 -0.23457764 74.7225647 -0.32281494 73.47952271 C-0.64061839 69.0195468 -0.96443221 64.56002443 -1.2901001 60.10061646 C-1.43042373 58.16746741 -1.56909897 56.23419801 -1.70611572 54.30081177 C-1.90290941 51.52793902 -2.10555343 48.75554779 -2.30938721 45.98318481 C-2.36984726 45.11339493 -2.43030731 44.24360504 -2.49259949 43.34745789 C-2.42798909 39.41914685 -2.42798909 39.41914685 -4.06329346 36.13552856 C-4.20889499 34.39168756 -4.29054014 32.64241651 -4.34454346 30.89334106 C-4.40061768 29.29425903 -4.40061768 29.29425903 -4.45782471 27.66287231 C-4.49262939 26.54009888 -4.52743408 25.41732544 -4.56329346 24.26052856 C-4.63214688 22.05466882 -4.70488789 19.84892602 -4.78204346 17.64334106 C-4.81233643 16.65994751 -4.84262939 15.67655396 -4.87384033 14.6633606 C-4.96908136 12.01076259 -4.96908136 12.01076259 -6.06329346 9.13552856 C-6.24141969 6.44267897 -6.15057043 3.84111488 -6.06329346 1.13552856 C-4.36929966 -0.55846524 -2.26036908 0.00971277 0 0 Z " fill="#CE5D41" transform="translate(267.06329345703125,562.8644714355469)"/>
<path d="M0 0 C35.31 0 70.62 0 107 0 C104.62617946 2.37382054 104.15612998 2.25334618 100.93186951 2.27174377 C99.65516891 2.28632126 99.65516891 2.28632126 98.35267639 2.30119324 C97.4170134 2.30178238 96.4813504 2.30237152 95.51733398 2.30297852 C94.0416394 2.31563751 94.0416394 2.31563751 92.53613281 2.32855225 C89.27278179 2.3544172 86.00952127 2.3664895 82.74609375 2.37890625 C80.48689548 2.39506997 78.22770426 2.41224875 75.96852112 2.43040466 C70.01277922 2.47617747 64.05702811 2.51094059 58.10119629 2.54260254 C48.56318119 2.59440331 39.02526945 2.65942942 29.48738289 2.73081779 C26.14527936 2.75374037 22.80318912 2.76995367 19.46104431 2.78553772 C17.42511854 2.79893856 15.38919416 2.81255285 13.35327148 2.82641602 C12.41558426 2.82902939 11.47789703 2.83164276 10.51179504 2.83433533 C6.43223332 2.45332259 6.43223332 2.45332259 3 4 C2.90132331 5.36825469 2.86920932 6.74147445 2.8671875 8.11328125 C2.86589844 8.94923828 2.86460937 9.78519531 2.86328125 10.64648438 C2.86714844 11.52626953 2.87101562 12.40605469 2.875 13.3125 C2.87113281 14.18068359 2.86726563 15.04886719 2.86328125 15.94335938 C2.86457031 16.78318359 2.86585938 17.62300781 2.8671875 18.48828125 C2.86831543 19.25696533 2.86944336 20.02564941 2.87060547 20.81762695 C3.00021696 23.00365934 3.46972268 24.88175146 4 27 C4.07766084 28.44098431 4.10796367 29.88508629 4.09765625 31.328125 C4.09443359 32.12734375 4.09121094 32.9265625 4.08789062 33.75 C4.07951172 34.575 4.07113281 35.4 4.0625 36.25 C4.05798828 37.09046875 4.05347656 37.9309375 4.04882812 38.796875 C4.03707961 40.86461401 4.01914522 42.93231624 4 45 C3.67 45 3.34 45 3 45 C2.56456183 40.68151881 2.13775812 36.36228827 1.71826172 32.04223633 C1.5750104 30.57879754 1.42957445 29.11557062 1.28173828 27.65258789 C1.06720027 25.52545084 0.86106287 23.39762433 0.65625 21.26953125 C0.53056641 19.99698486 0.40488281 18.72443848 0.27539062 17.41333008 C-0.08614721 11.61942986 0 5.80516919 0 0 Z " fill="#D65530" transform="translate(323,373)"/>
<path d="M0 0 C0.66 0 1.32 0 2 0 C2 5.28 2 10.56 2 16 C2.66 16 3.32 16 4 16 C4.01981934 16.63276855 4.03963867 17.26553711 4.06005859 17.91748047 C4.4135586 28.71583151 4.78158065 39.50289074 5.9375 50.25 C6.01210449 50.9807373 6.08670898 51.71147461 6.16357422 52.46435547 C6.60223787 56.32573715 6.60223787 56.32573715 8.02734375 59.90136719 C9.21085595 62.45494923 9.21412646 64.25708211 9.16015625 67.0625 C9.14919922 68.02414062 9.13824219 68.98578125 9.12695312 69.9765625 C9.10568359 70.97429687 9.08441406 71.97203125 9.0625 73 C9.02798095 74.97909222 8.99786096 76.95826725 8.97265625 78.9375 C8.95468994 79.81277344 8.93672363 80.68804687 8.91821289 81.58984375 C8.99663754 83.90091291 9.40429165 85.77758214 10 88 C10.25338282 91.47345609 10.44113992 94.94162831 10.60546875 98.41992188 C10.47601838 102.01098053 10.47601838 102.01098053 12 105 C12.15795161 106.55284651 12.25111647 108.11238206 12.31640625 109.671875 C12.35838135 110.64116943 12.40035645 111.61046387 12.44360352 112.60913086 C12.50245728 114.16386108 12.50245728 114.16386108 12.5625 115.75 C12.6049585 116.7922876 12.64741699 117.8345752 12.69116211 118.90844727 C12.97568605 126.27687304 13.12738264 133.62596026 13 141 C12.67 141 12.34 141 12 141 C9.1579867 110.12676075 6.38247803 79.24774707 3.66531372 48.36328125 C3.34703834 44.74615279 3.02754003 41.12913556 2.70700073 37.51220703 C2.32508378 33.20153027 1.94579731 28.89062984 1.56850433 24.57954597 C1.42793661 22.9779999 1.28649109 21.3765306 1.14411163 19.77514458 C0.9480311 17.56767016 0.75522899 15.35993246 0.56323242 13.15209961 C0.4539592 11.91012314 0.34468597 10.66814667 0.23210144 9.38853455 C0.01679792 6.24523907 -0.04342392 3.14927854 0 0 Z " fill="#FAD7CB" transform="translate(243,344)"/>
<path d="M0 0 C0.33 0 0.66 0 1 0 C1.71878101 7.36426971 2.43004294 14.72923863 3.13623047 22.09472656 C3.37703651 24.59717006 3.61952528 27.09945224 3.86376953 29.6015625 C4.21575781 33.21051991 4.5615701 36.82002564 4.90625 40.4296875 C5.0156189 41.53738495 5.12498779 42.6450824 5.2376709 43.78634644 C5.8445263 50.21443477 6.14222174 56.54369747 6 63 C5.34 63 4.68 63 4 63 C3.93941406 61.85660156 3.87882813 60.71320313 3.81640625 59.53515625 C3.73201572 58.04425695 3.64736698 56.55337225 3.5625 55.0625 C3.52318359 54.30775391 3.48386719 53.55300781 3.44335938 52.77539062 C3.55961976 49.08055813 3.55961976 49.08055813 2 46 C1.85469013 44.30571693 1.77283477 42.60589258 1.71875 40.90625 C1.68136719 39.87628906 1.64398438 38.84632813 1.60546875 37.78515625 C1.53515625 35.59505208 1.46484375 33.40494792 1.39453125 31.21484375 C1.35714844 30.18488281 1.31976563 29.15492188 1.28125 28.09375 C1.25095703 27.14177734 1.22066406 26.18980469 1.18945312 25.20898438 C1.24114598 23.02644685 1.24114598 23.02644685 0 22 C-0.08700342 20.36527118 -0.10701063 18.72685945 -0.09765625 17.08984375 C-0.09443359 16.10048828 -0.09121094 15.11113281 -0.08789062 14.09179688 C-0.07951172 13.05087891 -0.07113281 12.00996094 -0.0625 10.9375 C-0.05798828 9.89271484 -0.05347656 8.84792969 -0.04882812 7.77148438 C-0.03699913 5.1809334 -0.02051689 2.59049441 0 0 Z " fill="#D16041" transform="translate(251,441)"/>
<path d="M0 0 C0.33 0 0.66 0 1 0 C2.90691544 10.36210652 4.35402932 20.50113856 4.7890625 31.03515625 C4.66643366 33.88481459 4.66643366 33.88481459 6 35 C6.15795161 36.55284651 6.25111647 38.11238206 6.31640625 39.671875 C6.35838135 40.64116943 6.40035645 41.61046387 6.44360352 42.60913086 C6.50245728 44.16386108 6.50245728 44.16386108 6.5625 45.75 C6.6049585 46.7922876 6.64741699 47.8345752 6.69116211 48.90844727 C6.97568605 56.27687304 7.12738264 63.62596026 7 71 C6.67 71 6.34 71 6 71 C5.30293901 63.46042475 4.60960196 55.92051331 3.91870117 48.38037109 C3.68385626 45.82202634 3.44819795 43.2637561 3.21166992 40.70556641 C0.69274747 13.45007993 0.69274747 13.45007993 0 0 Z " fill="#F8CFC0" transform="translate(249,414)"/>
<path d="M0 0 C0.99 0.495 0.99 0.495 2 1 C4.60185794 9.4857981 4.37822503 18.90933076 4.65844727 27.69604492 C4.68994873 28.62521729 4.7214502 29.55438965 4.75390625 30.51171875 C4.77783447 31.35178467 4.8017627 32.19185059 4.82641602 33.05737305 C4.79112472 35.00491395 4.79112472 35.00491395 6 36 C6.08737645 37.85369611 6.10698153 39.71067541 6.09765625 41.56640625 C6.09282227 43.2534668 6.09282227 43.2534668 6.08789062 44.97460938 C6.07951172 46.15861328 6.07113281 47.34261719 6.0625 48.5625 C6.05798828 49.75037109 6.05347656 50.93824219 6.04882812 52.16210938 C6.03699675 55.10812226 6.02051287 58.05403681 6 61 C5.67 61 5.34 61 5 61 C4.34602217 53.63738722 3.69393215 46.27460981 3.04424286 38.91161728 C2.74249817 35.4925904 2.44010676 32.0736233 2.13623047 28.65478516 C1.78680413 24.72315169 1.44020308 20.79127163 1.09375 16.859375 C0.9843811 15.63321472 0.87501221 14.40705444 0.7623291 13.14373779 C0.66222534 12.00285706 0.56212158 10.86197632 0.45898438 9.68652344 C0.37015991 8.68280701 0.28133545 7.67909058 0.18981934 6.6449585 C0.0312007 4.43475323 0 2.21588971 0 0 Z " fill="#D4684B" transform="translate(339,565)"/>
<path d="M0 0 C-3.63423209 2.32590854 -6.77088331 2.16265833 -11 2 C-11 2.66 -11 3.32 -11 4 C-11.76183594 4.18175781 -12.52367187 4.36351562 -13.30859375 4.55078125 C-18.19145637 5.73949312 -22.97459772 6.93269596 -27.6875 8.6875 C-32.23021623 10.28493867 -36.21190099 10.22800471 -41 10 C-38.04422421 8.40200561 -35.21381305 7.42048375 -31.96484375 6.578125 C-28.04848086 5.54452283 -24.14630275 4.48004446 -20.25390625 3.359375 C-18.35677083 2.82291667 -16.45963542 2.28645833 -14.5625 1.75 C-13.11327148 1.32847656 -13.11327148 1.32847656 -11.63476562 0.8984375 C-10.70470703 0.63804687 -9.77464844 0.37765625 -8.81640625 0.109375 C-7.98568604 -0.12813477 -7.15496582 -0.36564453 -6.29907227 -0.61035156 C-3.8454013 -1.0262015 -2.33899682 -0.78381098 0 0 Z " fill="#E07749" transform="translate(497,711)"/>
<path d="M0 0 C13.10750164 2.95527225 26.05704027 6.39540287 39 10 C39 10.33 39 10.66 39 11 C36.66705225 11.04241723 34.33297433 11.04092937 32 11 C31.67 10.67 31.34 10.34 31 10 C29.989375 9.87625 28.97875 9.7525 27.9375 9.625 C24.88426112 9.14035891 22.89026767 8.64157343 20.125 7.5 C15.81910065 5.76919732 11.60448436 5.30909733 7 5 C7 4.67 7 4.34 7 4 C4.69 3.34 2.38 2.68 0 2 C0 1.34 0 0.68 0 0 Z " fill="#FBDDD2" transform="translate(345,626)"/>
<path d="M0 0 C0.33 0 0.66 0 1 0 C1.1346906 6.94966093 0.75715004 13.71856383 0 20.625 C-0.09539063 21.53378906 -0.19078125 22.44257812 -0.2890625 23.37890625 C-0.52143768 25.58647043 -0.75846489 27.79342261 -1 30 C-8.65178571 32.33928571 -8.65178571 32.33928571 -12 31 C-8.86501708 29.14223235 -6.62528568 28.79859524 -3 29 C-3 26.03 -3 23.06 -3 20 C-2.34 20 -1.68 20 -1 20 C-1.01160156 18.89140625 -1.02320313 17.7828125 -1.03515625 16.640625 C-1.04453792 15.17708502 -1.05363771 13.71354322 -1.0625 12.25 C-1.07506836 11.15558594 -1.07506836 11.15558594 -1.08789062 10.0390625 C-1.10391684 6.51329442 -0.95292713 3.38965084 0 0 Z " fill="#DD7344" transform="translate(516,596)"/>
<path d="M0 0 C0.33 0 0.66 0 1 0 C1.43199411 4.55278894 1.85905562 9.10600509 2.28173828 13.65966797 C2.42592189 15.20569047 2.57140527 16.75159238 2.71826172 18.29736328 C2.9302587 20.53126343 3.13743147 22.76556908 3.34375 25 C3.40937134 25.68054443 3.47499268 26.36108887 3.54260254 27.06225586 C3.96760976 31.73305957 4.05488851 36.3161802 4 41 C2 39 2 39 1.8046875 35.3046875 C1.817991 33.82799892 1.84185165 32.35137642 1.875 30.875 C1.88853516 29.74384766 1.88853516 29.74384766 1.90234375 28.58984375 C1.9259313 26.72642746 1.96180281 24.86317407 2 23 C1.34 23 0.68 23 0 23 C0 15.41 0 7.82 0 0 Z " fill="#CF6849" transform="translate(241,329)"/>
<path d="M0 0 C0.66 0 1.32 0 2 0 C2.04241723 2.33294775 2.04092937 4.66702567 2 7 C1.67 7.33 1.34 7.66 1 8 C0.79602426 9.83897167 0.65250305 11.68472552 0.53515625 13.53125 C0.45716797 14.65144531 0.37917969 15.77164062 0.29882812 16.92578125 C0.14129284 19.30833977 -0.01235423 21.69115856 -0.16210938 24.07421875 C-0.24138672 25.19441406 -0.32066406 26.31460937 -0.40234375 27.46875 C-0.46929443 28.50451172 -0.53624512 29.54027344 -0.60522461 30.60742188 C-0.73550049 31.39697266 -0.86577637 32.18652344 -1 33 C-1.99 33.495 -1.99 33.495 -3 34 C-2.56200049 22.54285489 -1.93018815 11.31877323 0 0 Z " fill="#DF7443" transform="translate(621,296)"/>
<path d="M0 0 C0.33 0 0.66 0 1 0 C1.02726927 2.35424675 1.04696719 4.70816962 1.0625 7.0625 C1.07410156 8.37347656 1.08570313 9.68445313 1.09765625 11.03515625 C1.00452335 14.8163519 0.61448726 18.27920707 0 22 C-4.35590568 23.62849969 -8.23934612 24.34118446 -12.875 24.625 C-14.02742187 24.69976563 -15.17984375 24.77453125 -16.3671875 24.8515625 C-17.23601563 24.90054688 -18.10484375 24.94953125 -19 25 C-15.52934193 22.68622795 -12.32959845 22.11015527 -8.3125 21.375 C-7.61060547 21.2409375 -6.90871094 21.106875 -6.18554688 20.96875 C-4.45818294 20.6397283 -2.72923409 20.31904688 -1 20 C-1.01160156 19.31035156 -1.02320313 18.62070312 -1.03515625 17.91015625 C-1.09342124 11.84227348 -0.78903948 6.01642604 0 0 Z " fill="#E3835A" transform="translate(587,665)"/>
<path d="M0 0 C0.33 0 0.66 0 1 0 C0.90590803 4.57187518 0.79969581 9.14325521 0.68261719 13.71459961 C0.64451516 15.26725716 0.60963072 16.81999733 0.578125 18.37280273 C0.53206315 20.61471947 0.47414122 22.85607645 0.4140625 25.09765625 C0.40251129 25.78336197 0.39096008 26.46906769 0.37905884 27.17555237 C0.23992746 31.79809177 -0.58717587 35.64007431 -2 40 C-2.33 40 -2.66 40 -3 40 C-2.41875135 26.61598502 -1.36578313 13.32633052 0 0 Z " fill="#DF7647" transform="translate(617,334)"/>
<path d="M0 0 C-6.11144667 4.07429778 -14.72956125 5.77897558 -22 5 C-26.03293942 4.1128553 -30.01965278 3.09802682 -34 2 C-34 1.67 -34 1.34 -34 1 C-32.41705218 0.94562393 -30.83355744 0.90703729 -29.25 0.875 C-28.36828125 0.85179687 -27.4865625 0.82859375 -26.578125 0.8046875 C-23.84945516 1.01140491 -22.40085742 1.77507274 -20 3 C-15.94777609 2.7385662 -12.71007096 2.24142412 -8.875 0.9375 C-5.76223864 -0.07753088 -3.2522911 -0.154871 0 0 Z " fill="#D86942" transform="translate(448,643)"/>
<path d="M0 0 C0.33 0 0.66 0 1 0 C1.34197019 3.12411592 1.67192253 6.24939708 2 9.375 C2.14308594 10.68017578 2.14308594 10.68017578 2.2890625 12.01171875 C2.91321115 18.03029503 3.11723906 23.95079012 3 30 C2.67 30 2.34 30 2 30 C1.67 27.69 1.34 25.38 1 23 C0.67 23 0.34 23 0 23 C0 15.41 0 7.82 0 0 Z " fill="#F6D0C0" transform="translate(325,410)"/>
<path d="M0 0 C0 0.66 0 1.32 0 2 C-0.99 2 -1.98 2 -3 2 C-3 2.66 -3 3.32 -3 4 C-3.71027344 4.06058594 -4.42054688 4.12117187 -5.15234375 4.18359375 C-6.07144531 4.26738281 -6.99054687 4.35117187 -7.9375 4.4375 C-8.85402344 4.51871094 -9.77054688 4.59992187 -10.71484375 4.68359375 C-12.96159732 4.76044976 -12.96159732 4.76044976 -14 6 C-15.51928038 6.07179964 -17.04167482 6.08392007 -18.5625 6.0625 C-19.38878906 6.05347656 -20.21507812 6.04445313 -21.06640625 6.03515625 C-21.70449219 6.02355469 -22.34257813 6.01195312 -23 6 C-19.3672388 3.94267095 -15.50916232 2.92594546 -11.5 1.875 C-10.83613281 1.69324219 -10.17226563 1.51148438 -9.48828125 1.32421875 C-6.16854651 0.44293188 -3.4651581 0 0 0 Z " fill="#E4794C" transform="translate(536,699)"/>
<path d="M0 0 C0 0.66 0 1.32 0 2 C-0.85464844 2.20496094 -1.70929688 2.40992188 -2.58984375 2.62109375 C-3.69457031 2.89050781 -4.79929687 3.15992188 -5.9375 3.4375 C-7.03964844 3.70433594 -8.14179688 3.97117187 -9.27734375 4.24609375 C-11.89421254 4.72995725 -11.89421254 4.72995725 -13 6 C-15.18639453 6.07258946 -17.37500389 6.08373783 -19.5625 6.0625 C-21.35880859 6.04896484 -21.35880859 6.04896484 -23.19140625 6.03515625 C-24.11824219 6.02355469 -25.04507812 6.01195312 -26 6 C-26 5.34 -26 4.68 -26 4 C-24.96875 4.0825 -23.9375 4.165 -22.875 4.25 C-17.3662758 4.28948906 -12.38163866 2.5130043 -7.171875 0.875 C-4 0 -4 0 0 0 Z " fill="#D9673E" transform="translate(450,723)"/>
<path d="M0 0 C9.61556329 1.391453 18.73809271 4.15519377 28 7 C28 7.33 28 7.66 28 8 C18.09236012 8.66050933 8.97217093 4.83409474 0 1 C0 0.67 0 0.34 0 0 Z " fill="#D05F3F" transform="translate(295,691)"/>
<path d="M0 0 C0.33 0 0.66 0 1 0 C1 7.59 1 15.18 1 23 C0.34 23 -0.32 23 -1 23 C-1 24.98 -1 26.96 -1 29 C-1.33 29 -1.66 29 -2 29 C-1.03644647 9.03189066 -1.03644647 9.03189066 0 0 Z " fill="#E28154" transform="translate(600,521)"/>
<path d="M0 0 C0.33 0 0.66 0 1 0 C1 7.59 1 15.18 1 23 C0.34 23 -0.32 23 -1 23 C-1 24.65 -1 26.3 -1 28 C-1.33 28 -1.66 28 -2 28 C-1.4426724 18.65586912 -0.83004886 9.32480419 0 0 Z " fill="#DF794A" transform="translate(590,634)"/>
<path d="M0 0 C0.33 0 0.66 0 1 0 C1.32001346 9.76041066 0.11306313 19.32032595 -1 29 C-1.33 29 -1.66 29 -2 29 C-2.22295635 26.60472566 -2.42874063 24.20998659 -2.625 21.8125 C-2.68945312 21.13896484 -2.75390625 20.46542969 -2.8203125 19.77148438 C-3.14918201 15.55784375 -2.75067632 12.81029553 -1 9 C-0.55747943 6.5679241 -0.55747943 6.5679241 -0.375 4.1875 C-0.30023437 3.39730469 -0.22546875 2.60710937 -0.1484375 1.79296875 C-0.09945312 1.20128906 -0.05046875 0.60960937 0 0 Z " fill="#FCE3CF" transform="translate(603,480)"/>
<path d="M0 0 C2.64 0 5.28 0 8 0 C8 0.66 8 1.32 8 2 C9.2684375 1.9071875 9.2684375 1.9071875 10.5625 1.8125 C14.73619843 2.04015628 17.25432947 3.20207814 21 5 C17.87820592 6.00693162 16.01030331 5.97289724 12.890625 5.00390625 C11.75947266 4.66069336 11.75947266 4.66069336 10.60546875 4.31054688 C9.43951172 3.94026367 9.43951172 3.94026367 8.25 3.5625 C7.45722656 3.31951172 6.66445313 3.07652344 5.84765625 2.82617188 C3.89564654 2.22645805 1.94743117 1.61441879 0 1 C0 0.67 0 0.34 0 0 Z " fill="#F9D1CA" transform="translate(406,721)"/>
<path d="M0 0 C1.81293089 0.14037521 3.6253443 0.28744889 5.4375 0.4375 C6.95150391 0.55931641 6.95150391 0.55931641 8.49609375 0.68359375 C11 1 11 1 12 2 C14.32817964 2.36760731 16.6618385 2.70241581 19 3 C19 3.66 19 4.32 19 5 C19.66 5.33 20.32 5.66 21 6 C16.27826731 5.30130124 11.72224651 4.19817903 7.125 2.9375 C6.43664062 2.75123047 5.74828125 2.56496094 5.0390625 2.37304688 C3.35867486 1.91794189 1.67923678 1.45933322 0 1 C0 0.67 0 0.34 0 0 Z " fill="#D46345" transform="translate(378,634)"/>
<path d="M0 0 C0.99 0.495 0.99 0.495 2 1 C2.33 1.99 2.66 2.98 3 4 C5.29920559 4.95362501 5.29920559 4.95362501 8 5.5625 C10.75 6.25390625 10.75 6.25390625 13 7 C13.33 7.66 13.66 8.32 14 9 C9.03083364 8.48594831 4.70973649 7.76615118 0 6 C0 4.02 0 2.04 0 0 Z " fill="#F8CFBE" transform="translate(273,679)"/>
<path d="M0 0 C1.89646998 0.11493757 3.79218332 0.24239642 5.6875 0.375 C6.74324219 0.44460938 7.79898437 0.51421875 8.88671875 0.5859375 C11.90677269 0.98760089 14.24078054 1.74069019 17 3 C17 3.66 17 4.32 17 5 C11.0870696 4.35729017 5.65755469 2.80996216 0 1 C0 0.67 0 0.34 0 0 Z " fill="#F8D4CA" transform="translate(288,688)"/>
<path d="M0 0 C0.33 0 0.66 0 1 0 C1.95261487 4.76307437 2.08333357 9.1666528 2 14 C1.34 14 0.68 14 0 14 C0 16.31 0 18.62 0 21 C-0.33 21 -0.66 21 -1 21 C-0.67 14.07 -0.34 7.14 0 0 Z " fill="#E17C51" transform="translate(597,554)"/>
<path d="M0 0 C3.96 0.33 7.92 0.66 12 1 C12 1.66 12 2.32 12 3 C13.65 3 15.3 3 17 3 C17.33 3.66 17.66 4.32 18 5 C11.69632197 4.41632611 6.01339937 2.95928381 0 1 C0 0.67 0 0.34 0 0 Z " fill="#FAD4CB" transform="translate(388,716)"/>
<path d="M0 0 C6.57791873 0.41044485 12.74051886 0.86608597 19 3 C17.484375 4.1171875 17.484375 4.1171875 15 5 C12.29721652 4.49969753 9.8607765 3.91958415 7.25 3.125 C6.55261719 2.92519531 5.85523438 2.72539063 5.13671875 2.51953125 C3.42072495 2.0258892 1.7098122 1.51464497 0 1 C0 0.67 0 0.34 0 0 Z " fill="#D1664A" transform="translate(347,626)"/>
<path d="M0 0 C4.29 0.33 8.58 0.66 13 1 C13 1.66 13 2.32 13 3 C13.99 3 14.98 3 16 3 C16 3.66 16 4.32 16 5 C10.72 3.68 5.44 2.36 0 1 C0 0.67 0 0.34 0 0 Z " fill="#F7CCC4" transform="translate(323,698)"/>
<path d="M0 0 C5.56890517 0.47986031 10.67067568 1.29915181 16 3 C16 3.33 16 3.66 16 4 C9.84765625 4.09765625 9.84765625 4.09765625 8 4 C7.67 3.67 7.34 3.34 7 3 C4.67182036 2.63239269 2.3381615 2.29758419 0 2 C0 1.34 0 0.68 0 0 Z " fill="#F8D4CC" transform="translate(384,637)"/>
<path d="M0 0 C4.29 0.99 8.58 1.98 13 3 C13 3.66 13 4.32 13 5 C11.02 5 9.04 5 7 5 C7 4.67 7 4.34 7 4 C4.69 3.34 2.38 2.68 0 2 C0 1.34 0 0.68 0 0 Z " fill="#F9DED7" transform="translate(345,626)"/>
<path d="M0 0 C-3.28491373 2.18994248 -4.83095639 2.35277339 -8.6875 2.625 C-10.17830078 2.73714844 -10.17830078 2.73714844 -11.69921875 2.8515625 C-12.83810547 2.92503906 -12.83810547 2.92503906 -14 3 C-11.87033995 0.87033995 -10.95931796 0.52375338 -8.125 -0.1875 C-7.44695313 -0.36667969 -6.76890625 -0.54585937 -6.0703125 -0.73046875 C-3.77181444 -1.02970718 -2.19449036 -0.69377386 0 0 Z " fill="#E07448" transform="translate(562,693)"/>
<path d="M0 0 C3.96 0.33 7.92 0.66 12 1 C12 1.66 12 2.32 12 3 C12.66 3.33 13.32 3.66 14 4 C9.03083364 3.48594831 4.70973649 2.76615118 0 1 C0 0.67 0 0.34 0 0 Z " fill="#D6654B" transform="translate(400,640)"/>
<path d="M0 0 C1.60517097 0.08733576 3.20921662 0.19552224 4.8125 0.3125 C6.15248047 0.39951172 6.15248047 0.39951172 7.51953125 0.48828125 C10.30604 1.06313581 11.24135754 1.8206856 13 4 C8.428721 3.45144652 4.32564205 2.58255197 0 1 C0 0.67 0 0.34 0 0 Z " fill="#F8D0CA" transform="translate(360,708)"/>
<path d="M0 0 C2.67318976 5.16816686 2.98463588 8.20158873 2 14 C0.09391902 10.78817851 -0.22266247 8.46117397 -0.125 4.75 C-0.09792969 3.41195312 -0.09792969 3.41195312 -0.0703125 2.046875 C-0.04710937 1.37140625 -0.02390625 0.6959375 0 0 Z " fill="#F5EAE3" transform="translate(259,511)"/>
<path d="M0 0 C-1.32 0.33 -2.64 0.66 -4 1 C-4 1.99 -4 2.98 -4 4 C-6.97 3.505 -6.97 3.505 -10 3 C-6.74534559 -0.25465441 -4.4822096 -1.60078914 0 0 Z " fill="#E46934" transform="translate(516,706)"/>
<path d="M0 0 C1.36125 0.37125 1.36125 0.37125 2.75 0.75 C-0.69450737 3.04633824 -3.18812283 3.29016485 -7.25 3.75 C-4.05 -0.31153846 -4.05 -0.31153846 0 0 Z " fill="#DB4F2E" transform="translate(459.25,850.25)"/>
<path d="M0 0 C0 0.66 0 1.32 0 2 C-7.38461538 4.21538462 -7.38461538 4.21538462 -10.5 3.125 C-10.995 2.75375 -11.49 2.3825 -12 2 C-10.7625 1.67 -9.525 1.34 -8.25 1 C-7.55390625 0.814375 -6.8578125 0.62875 -6.140625 0.4375 C-4 0 -4 0 0 0 Z " fill="#E57A50" transform="translate(450,723)"/>
<path d="M0 0 C-2.71182212 2.60334924 -3.89133813 2.99456691 -7.75 3.1875 C-8.8225 3.125625 -9.895 3.06375 -11 3 C-7.72430636 -0.27569364 -4.48909309 -0.12469703 0 0 Z " fill="#E37849" transform="translate(548,696)"/>
<path d="M0 0 C5.94 1.485 5.94 1.485 12 3 C12 3.33 12 3.66 12 4 C7.01137151 4.29344873 4.03770942 4.05887078 0 1 C0 0.67 0 0.34 0 0 Z " fill="#F9D4C5" transform="translate(372,633)"/>
<path d="M0 0 C0.66 0 1.32 0 2 0 C2.93065133 2.60582371 3.14917407 3.64198224 2.0625 6.25 C1.5365625 7.11625 1.5365625 7.11625 1 8 C0 7 0 7 -0.0625 3.4375 C-0.041875 2.303125 -0.02125 1.16875 0 0 Z " fill="#F6E6E3" transform="translate(273,672)"/>
</svg>
