<?xml version="1.0" encoding="UTF-8"?>
<svg version="1.1" xmlns="http://www.w3.org/2000/svg" width="500" height="500">
<path d="M0 0 C38.42191318 -0.11435926 76.8438008 -0.20250503 115.26584964 -0.25532665 C119.7984085 -0.26158044 124.33096703 -0.26805202 128.86352539 -0.2746582 C129.76590412 -0.27596976 130.66828285 -0.27728131 131.59800639 -0.2786326 C146.22331456 -0.3004094 160.84852481 -0.33984339 175.47377483 -0.38576398 C190.4724378 -0.43246544 205.47104936 -0.46028201 220.46978205 -0.47044247 C229.73033325 -0.47731477 238.9906077 -0.49904635 248.25107374 -0.53958233 C254.59500441 -0.56594289 260.93879131 -0.57401625 267.28277282 -0.56750689 C270.94704165 -0.56429348 274.61082577 -0.56933598 278.27500916 -0.59602737 C282.24157094 -0.62471153 286.20749402 -0.61498523 290.17414856 -0.60127258 C291.34047642 -0.61583679 292.50680428 -0.630401 293.70847541 -0.64540654 C294.76643402 -0.6354513 295.82439263 -0.62549606 296.91441059 -0.61523914 C298.28880833 -0.61808705 298.28880833 -0.61808705 299.69097167 -0.62099248 C302 0 302 0 303.69284934 2.28845245 C304.12420906 3.18326314 304.55556877 4.07807383 305 5 C305.38662644 5.65791757 305.77325288 6.31583513 306.17159528 6.9936896 C307.19759956 9.47856565 307.25187312 11.41391063 307.25447559 14.10096645 C307.26030779 15.13693224 307.26613998 16.17289803 307.27214891 17.24025673 C307.26836958 18.37691546 307.26459026 19.51357419 307.26069641 20.68467712 C307.26452196 21.89329849 307.26834751 23.10191986 307.27228898 24.34716612 C307.28083338 27.70341641 307.28038113 31.05944806 307.27610838 34.41569221 C307.27364551 38.03471338 307.28264984 41.65370861 307.29014587 45.27272034 C307.30290702 52.36322438 307.30468481 59.45369058 307.30234561 66.54420417 C307.30056391 72.30637053 307.3023089 78.06852539 307.30657005 83.83069038 C307.30716524 84.65021174 307.30776043 85.46973309 307.30837366 86.31408842 C307.30958538 87.97884563 307.31079952 89.64360284 307.31201603 91.30836005 C307.32289698 106.92678189 307.32072643 122.54518216 307.31463119 138.16360522 C307.30946123 152.45749029 307.32071856 166.75130723 307.33972941 181.04517882 C307.35909265 195.71628706 307.36736649 210.38736304 307.36360615 225.05848414 C307.36169185 233.29755143 307.364204 241.53656072 307.37832069 249.7756176 C307.39021619 256.78937725 307.39166002 263.8030432 307.37953053 270.8168041 C307.37362897 274.39615824 307.37257742 277.97534083 307.38453293 281.55468369 C307.39733552 285.43265454 307.38695762 289.31036354 307.3742218 293.18833923 C307.38159609 294.32276724 307.38897037 295.45719525 307.39656812 296.62599987 C307.38936158 297.66457341 307.38215503 298.70314694 307.37473011 299.77319241 C307.37478513 300.66830326 307.37484014 301.56341411 307.37489682 302.48564953 C306.91466185 305.57234418 305.7110282 307.41107017 304 310 C303.31903578 311.32608822 302.64669414 312.65686601 302 314 C263.68842832 314.04573683 225.37686074 314.08099853 187.0652673 314.10213066 C182.54644118 314.1046322 178.02761511 314.10722083 173.50878906 314.10986328 C172.60913864 314.1103879 171.70948821 314.11091252 170.78257565 314.11145304 C156.19866802 314.12016538 141.61477609 314.1359399 127.03087778 314.15430559 C112.076285 314.17298161 97.12170046 314.18411185 82.1670965 314.18817699 C72.93274673 314.19092683 63.69844134 314.19962467 54.46410523 314.21583293 C48.13936371 314.22637149 41.81464527 314.22960776 35.4898956 314.22700275 C31.83603657 314.22571656 28.1822553 314.22774458 24.52840996 314.23841095 C20.57478836 314.24986871 16.62126951 314.24599803 12.66763306 314.24050903 C10.91960843 314.24924756 10.91960843 314.24924756 9.13627017 314.25816262 C8.083786 314.25418052 7.03130183 314.25019842 5.94692421 314.24609566 C5.0333171 314.2468551 4.11970998 314.24761454 3.1784178 314.24839699 C1 314 1 314 -1 312 C-5.54178846 305.76945081 -5.56559643 300.51602188 -5.50120544 292.95455933 C-5.50673984 291.74337468 -5.51227424 290.53219004 -5.51797634 289.28430283 C-5.52921283 285.93457871 -5.52257028 282.5857651 -5.50823963 279.23611093 C-5.4971151 275.61917605 -5.5090772 272.00230653 -5.51808167 268.38537598 C-5.53200526 261.30525668 -5.52446492 254.2253159 -5.50940608 247.14520513 C-5.49253767 238.90026386 -5.49575721 230.65536695 -5.49950016 222.41041376 C-5.50537694 207.7008192 -5.49121335 192.99131028 -5.46655273 178.28173828 C-5.44262375 164.00696606 -5.4355521 149.73230821 -5.44604492 135.45751953 C-5.45745171 119.9114968 -5.45938784 104.36552695 -5.44494683 88.81950486 C-5.44342098 87.16223344 -5.44190063 85.50496201 -5.44038582 83.84769058 C-5.439628 83.03228242 -5.43887019 82.21687425 -5.43808941 81.37675675 C-5.43334541 75.62872538 -5.43519878 69.88071762 -5.43945122 64.13268661 C-5.44437547 57.12996552 -5.43840408 50.12735261 -5.41855692 43.1246563 C-5.40867918 39.55136607 -5.40358497 35.97824062 -5.41144943 32.40494156 C-5.41979547 28.53368054 -5.40493798 24.66270961 -5.38768005 20.79147339 C-5.3936901 19.65909174 -5.39970014 18.52671009 -5.40589231 17.36001384 C-5.39745237 16.3232904 -5.38901243 15.28656696 -5.38031673 14.21842766 C-5.37877304 12.87820071 -5.37877304 12.87820071 -5.37719816 11.51089847 C-4.91404448 8.42781909 -3.70885029 6.58675724 -2 4 C-1.31903578 2.67391178 -0.64669414 1.34313399 0 0 Z " fill="#F6E01D" transform="translate(99,93)"/>
<path d="M0 0 C0.94746094 -0.020625 1.89492188 -0.04125 2.87109375 -0.0625 C14.79382287 -0.12774065 25.19975569 3.44675836 33.96875 11.6875 C37.88548023 15.85212455 40.42084135 18.5517337 41.375 24.25 C38.11144232 26.4277843 34.83802416 28.5902644 31.5625 30.75 C30.63373047 31.37003906 29.70496094 31.99007813 28.74804688 32.62890625 C27.85537109 33.21542969 26.96269531 33.80195313 26.04296875 34.40625 C25.22078857 34.95087891 24.3986084 35.49550781 23.55151367 36.05664062 C21.375 37.25 21.375 37.25 18.375 37.25 C17.653125 36.1775 16.93125 35.105 16.1875 34 C13.32381802 29.78568592 10.2415888 27.72657721 5.375 26.25 C0.62104485 25.45631041 -3.26314961 25.75220685 -7.5625 28 C-11.10478415 30.48943944 -11.10478415 30.48943944 -12.625 34.25 C-13.26156187 39.87296315 -12.08768705 43.822355 -8.625 48.25 C-6.24715277 49.82049885 -4.25263145 50.937364 -1.6875 52.0625 C-1.00163818 52.38597412 -0.31577637 52.70944824 0.39086914 53.04272461 C2.70981858 54.13267967 5.04114791 55.19235751 7.375 56.25 C10.10834826 57.50211468 12.83815054 58.76091993 15.56274414 60.03198242 C17.34533734 60.86210773 19.1333478 61.6807358 20.92749023 62.4855957 C33.60442525 68.35384687 44.06932668 77.16121087 49.375 90.25 C52.14821281 99.85982312 51.73382192 112.79948097 47.69140625 121.8984375 C41.36527422 133.1991244 32.46224373 139.98211422 20.11254883 143.81152344 C2.60667475 148.44846593 -15.4871733 145.56772131 -31.2890625 137.265625 C-39.70339253 132.18155674 -45.70557409 125.70901285 -50.625 117.25 C-49.18350006 113.60500167 -47.55961219 112.29473407 -44.16015625 110.41796875 C-43.27779297 109.93005859 -42.39542969 109.44214844 -41.48632812 108.93945312 C-40.56271484 108.44380859 -39.63910156 107.94816406 -38.6875 107.4375 C-37.30788086 106.6650293 -37.30788086 106.6650293 -35.90039062 105.87695312 C-30.77786131 103.08590324 -30.77786131 103.08590324 -28.625 102.25 C-25.17251824 103.40082725 -24.93847275 103.9975427 -23.0625 106.9375 C-18.99228944 112.62352279 -13.2087905 116.05540317 -6.625 118.25 C5.57256244 119.17999348 5.57256244 119.17999348 16.375 114.25 C18.96146323 111.98684468 20.17347916 110.52166601 20.71484375 107.10546875 C20.92059446 102.14276161 20.23442403 99.40289712 17.375 95.25 C11.04259263 90.29223011 3.31368614 87.35209673 -4.0625 84.3125 C-17.83295648 78.45419879 -32.34962295 71.73018389 -38.87109375 57.26953125 C-39.24427734 56.26986328 -39.24427734 56.26986328 -39.625 55.25 C-40.15867187 53.950625 -40.15867187 53.950625 -40.703125 52.625 C-41.91885789 48.17418129 -41.95464842 44.02984589 -41.9375 39.4375 C-41.95361328 38.58607422 -41.96972656 37.73464844 -41.98632812 36.85742188 C-41.99428773 26.40645767 -38.77576591 18.84500187 -31.625 11.25 C-22.25424105 2.66172805 -12.36622583 0.06569044 0 0 Z " fill="#040301" transform="translate(330.625,235.75)"/>
<path d="M0 0 C9.57 0 19.14 0 29 0 C29.06795836 13.72654231 29.12292134 27.45297165 29.15543652 41.17964458 C29.17104743 47.55447868 29.19220187 53.92919103 29.22631836 60.30395508 C29.25907523 66.46368915 29.27688737 72.62330661 29.28463173 78.78312111 C29.29014602 81.12528123 29.30091358 83.46743546 29.31719017 85.80954552 C29.5485309 120.4989726 29.5485309 120.4989726 17.66796875 133.40625 C8.03500158 142.61058397 -5.65120169 144.63560802 -18.50170898 144.47021484 C-30.52327866 143.98535913 -42.09805983 139.33519842 -50.39453125 130.4296875 C-58.04239525 120.976652 -58.04239525 120.976652 -57.91381836 118.01464844 C-56.64040977 115.20722987 -54.99980164 114.35820423 -52.37890625 112.765625 C-51.44369141 112.19199219 -50.50847656 111.61835938 -49.54492188 111.02734375 C-48.56072266 110.44082031 -47.57652344 109.85429687 -46.5625 109.25 C-45.09200195 108.34701172 -45.09200195 108.34701172 -43.59179688 107.42578125 C-36.30079897 103 -36.30079897 103 -34 103 C-32.66796875 104.828125 -32.66796875 104.828125 -31.1875 107.25 C-28.15590224 111.9526736 -25.4329538 115.1890154 -20 117 C-15.09299817 117.51519296 -11.12202524 117.48961101 -6.5625 115.5 C-1.36371274 110.42801243 -0.66062703 104.28616114 -0.5632782 97.34120178 C-0.56471329 96.38813644 -0.56614838 95.43507111 -0.56762695 94.453125 C-0.5574353 93.42783188 -0.54724365 92.40253876 -0.53674316 91.34617615 C-0.50671687 87.98072776 -0.49736289 84.6155645 -0.48828125 81.25 C-0.47142692 78.9072984 -0.45327567 76.5646058 -0.43388367 74.22192383 C-0.38645972 68.07353529 -0.35660099 61.92518326 -0.33044434 55.77667236 C-0.30060056 49.49557284 -0.25408329 43.21459899 -0.20898438 36.93359375 C-0.12303756 24.62244725 -0.05719578 12.31131368 0 0 Z " fill="#040300" transform="translate(235,237)"/>
<path d="M0 0 C97.68 0 195.36 0 296 0 C296 0.33 296 0.66 296 1 C198.32 1 100.64 1 0 1 C0 0.67 0 0.34 0 0 Z " fill="#FEF63E" transform="translate(102,407)"/>
<path d="M0 0 C0.33 0 0.66 0 1 0 C1 97.68 1 195.36 1 296 C0.67 296 0.34 296 0 296 C0 198.32 0 100.64 0 0 Z " fill="#FBF43C" transform="translate(407,102)"/>
<path d="M0 0 C0.33 0 0.66 0 1 0 C1 97.68 1 195.36 1 296 C0.67 296 0.34 296 0 296 C0 198.32 0 100.64 0 0 Z " fill="#F9F63F" transform="translate(92,102)"/>
<path d="M0 0 C97.68 0 195.36 0 296 0 C296 0.33 296 0.66 296 1 C198.32 1 100.64 1 0 1 C0 0.67 0 0.34 0 0 Z " fill="#FBFA3F" transform="translate(102,92)"/>
<path d="M0 0 C0.33 0 0.66 0 1 0 C1.02338874 14.48208756 1.04094197 28.96417217 1.05181217 43.44627476 C1.05696244 50.17097671 1.06398092 56.89566692 1.07543945 63.62036133 C1.08630926 70.11073367 1.09228554 76.6010938 1.09487724 83.09147453 C1.0967241 85.56696706 1.10033052 88.04245892 1.10573006 90.51794624 C1.11299475 93.98666958 1.11398864 97.45534254 1.11352539 100.92407227 C1.11712067 101.94618805 1.12071594 102.96830383 1.12442017 104.02139282 C1.10448703 117.82585495 1.10448703 117.82585495 -2 123 C-2.99 123 -3.98 123 -5 123 C-4.7183197 122.06108414 -4.4366394 121.12216827 -4.14642334 120.15480042 C-0.53040052 107.16985084 -0.39555971 94.55675464 -0.390625 81.15234375 C-0.3756122 78.80008321 -0.35887867 76.44783308 -0.34051514 74.09559631 C-0.2971775 67.96210189 -0.2769176 61.82874957 -0.26177979 55.69512939 C-0.24208659 49.41320508 -0.20013101 43.13143157 -0.16015625 36.84960938 C-0.08521863 24.56645315 -0.03470748 12.28333127 0 0 Z " fill="#EDDD46" transform="translate(264,238)"/>
<path d="M0 0 C0.66 0 1.32 0 2 0 C2.56543391 17.06772731 2.56543391 17.06772731 -1 25 C-1.26554687 25.80695313 -1.53109375 26.61390625 -1.8046875 27.4453125 C-3.29033016 30.62050956 -5.14037121 32.35860401 -7.75 34.6875 C-8.59046875 35.45449219 -9.4309375 36.22148437 -10.296875 37.01171875 C-13.14224367 39.10462721 -15.61103193 40.07348388 -19 41 C-16.8073796 38.72304805 -14.67450254 36.75941492 -12.125 34.875 C-4.98302167 29.00190107 -1.52283181 20.00636121 -0.5859375 11.03515625 C-0.51632812 9.72417969 -0.44671875 8.41320312 -0.375 7.0625 C-0.33632813 6.37865234 -0.29765625 5.69480469 -0.2578125 4.99023438 C-0.16477588 3.32720487 -0.08136213 1.66364153 0 0 Z " fill="#DCCB3B" transform="translate(381,334)"/>
<path d="M0 0 C0.99 0.66 1.98 1.32 3 2 C-1.29 2 -5.58 2 -10 2 C-10.33 2.99 -10.66 3.98 -11 5 C-12.32 5 -13.64 5 -15 5 C-15.66 8.96 -16.32 12.92 -17 17 C-17.66 16.67 -18.32 16.34 -19 16 C-19.32764303 11.90446218 -19.23069669 9.46139337 -17.375 5.75 C-12.57745381 0.19494651 -7.08948324 -1.03979087 0 0 Z " fill="#D6C540" transform="translate(336,261)"/>
<path d="M0 0 C2.58484592 0.9804588 3.94843031 1.93922143 5.75 4.0625 C7.47620025 8.11907058 7.8529282 11.65920469 7 16 C5.56360781 18.44386172 4.05588014 19.99551687 2 22 C0.66667905 19.3333581 1.32897967 17.83319697 2 15 C2.33 15 2.66 15 3 15 C3.2236337 13.58566794 3.42826476 12.16832382 3.625 10.75 C3.74101562 9.96109375 3.85703125 9.1721875 3.9765625 8.359375 C4.00319395 5.67847541 3.36592084 4.27305911 2 2 C1.34 2 0.68 2 0 2 C0 1.34 0 0.68 0 0 Z " fill="#DBCC38" transform="translate(345,329)"/>
<path d="M0 0 C0.99 0 1.98 0 3 0 C1.61268136 4.35463906 -0.35886583 6.66116966 -3.75 9.6875 C-4.59046875 10.45449219 -5.4309375 11.22148437 -6.296875 12.01171875 C-9.14224367 14.10462721 -11.61103193 15.07348388 -15 16 C-12.78652946 13.70139597 -10.57513768 11.66553391 -8.0625 9.6875 C-5.66335909 7.74880028 -4.02699567 5.74891521 -2.3125 3.1875 C-1.549375 2.135625 -0.78625 1.08375 0 0 Z " fill="#E6D344" transform="translate(377,359)"/>
<path d="M0 0 C0.99 1.485 0.99 1.485 2 3 C5.62425509 8.30941828 9.48838419 12.56442071 14.4609375 16.65234375 C14.96882813 17.09707031 15.47671875 17.54179687 16 18 C16 18.33 16 18.66 16 19 C14.35 19 12.7 19 11 19 C10.9175 18.38125 10.835 17.7625 10.75 17.125 C10.5025 16.42375 10.255 15.7225 10 15 C9.3915625 14.71640625 8.783125 14.4328125 8.15625 14.140625 C5.46400977 12.71646894 4.41542821 11.15678733 2.75 8.625 C2.22921875 7.85414063 1.7084375 7.08328125 1.171875 6.2890625 C0 4 0 4 0 0 Z " fill="#DECF3A" transform="translate(291,291)"/>
<path d="M0 0 C2 2 2 2 2.046875 4.96875 C1.94890625 6.1340625 1.8509375 7.299375 1.75 8.5 C1.66234375 9.6653125 1.5746875 10.830625 1.484375 12.03125 C1 15 1 15 -1 17 C-1.99 17 -2.98 17 -4 17 C-2.68 11.39 -1.36 5.78 0 0 Z " fill="#D5C735" transform="translate(263,344)"/>
<path d="M0 0 C0.99 0.33 1.98 0.66 3 1 C2.49396008 3.16874252 2.00016187 4.99967627 1 7 C0.38125 7.144375 -0.2375 7.28875 -0.875 7.4375 C-3.36710392 8.09717457 -4.3329446 9.08288629 -6 11 C-6.66 10.67 -7.32 10.34 -8 10 C-5.36 6.7 -2.72 3.4 0 0 Z " fill="#EDDC32" transform="translate(259,361)"/>
<path d="M0 0 C0.33 0.99 0.66 1.98 1 3 C0.34 3 -0.32 3 -1 3 C-1.33 3.99 -1.66 4.98 -2 6 C-3.98 6.33 -5.96 6.66 -8 7 C-8 7.99 -8 8.98 -8 10 C-7.34 10 -6.68 10 -6 10 C-6 10.66 -6 11.32 -6 12 C-7.875 11.6875 -7.875 11.6875 -10 11 C-10.66 10.01 -11.32 9.02 -12 8 C-8.04 5.36 -4.08 2.72 0 0 Z " fill="#E3D635" transform="translate(370,260)"/>
<path d="M0 0 C0.99 0.33 1.98 0.66 3 1 C1.7391988 2.03319813 0.46596742 3.05124379 -0.8125 4.0625 C-1.87404297 4.91521484 -1.87404297 4.91521484 -2.95703125 5.78515625 C-3.63121094 6.18605469 -4.30539062 6.58695312 -5 7 C-5.99 6.67 -6.98 6.34 -8 6 C-3.375 2 -3.375 2 0 2 C0 1.34 0 0.68 0 0 Z " fill="#241601" transform="translate(367,368)"/>
<path d="M0 0 C0.99 0 1.98 0 3 0 C2.3125 2.4375 2.3125 2.4375 1 5 C-1.625 5.8125 -1.625 5.8125 -4 6 C-2.1875 3 -2.1875 3 0 0 Z " fill="#E6D328" transform="translate(377,359)"/>
<path d="M0 0 C0.99 1.98 1.98 3.96 3 6 C0.13275314 5.42655063 -0.8614515 5.1385485 -3 3 C-5.10820797 3.3185177 -5.10820797 3.3185177 -7 4 C-2.25 0 -2.25 0 0 0 Z " fill="#2E2604" transform="translate(201,340)"/>
<path d="M0 0 C2.97 1.65 5.94 3.3 9 5 C5 6 5 6 2.8125 5.3125 C1 4 1 4 0 0 Z " fill="#E5D138" transform="translate(294,369)"/>
<path d="M0 0 C0.33 1.32 0.66 2.64 1 4 C0.401875 4.144375 -0.19625 4.28875 -0.8125 4.4375 C-2.56150404 4.8872439 -4.28677023 5.42892341 -6 6 C-6.99 5.67 -7.98 5.34 -9 5 C-6.03 3.35 -3.06 1.7 0 0 Z " fill="#231B02" transform="translate(291,344)"/>
<path d="M0 0 C0.66 1.32 1.32 2.64 2 4 C0.35 5.32 -1.3 6.64 -3 8 C-3.1875 5.125 -3.1875 5.125 -3 2 C-2.01 1.34 -1.02 0.68 0 0 Z " fill="#E6DB37" transform="translate(349,343)"/>
<path d="M0 0 C2.125 0.375 2.125 0.375 4 1 C2.02 3.97 2.02 3.97 0 7 C-2 4 -2 4 -2 2 C-1.34 1.34 -0.68 0.68 0 0 Z " fill="#E4D435" transform="translate(294,248)"/>
<path d="M0 0 C1.98 0 3.96 0 6 0 C6 0.99 6 1.98 6 3 C6.66 3 7.32 3 8 3 C7.67 3.66 7.34 4.32 7 5 C3.535 3.02 3.535 3.02 0 1 C0 0.67 0 0.34 0 0 Z " fill="#221302" transform="translate(191,372)"/>
<path d="" fill="#EBDC17" transform="translate(0,0)"/>
<path d="" fill="#EAD909" transform="translate(0,0)"/>
<path d="" fill="#EED426" transform="translate(0,0)"/>
<path d="" fill="#EED121" transform="translate(0,0)"/>
<path d="" fill="#FEFF14" transform="translate(0,0)"/>
<path d="" fill="#F9FE0B" transform="translate(0,0)"/>
<path d="" fill="#FFF621" transform="translate(0,0)"/>
<path d="" fill="#F1EE20" transform="translate(0,0)"/>
<path d="" fill="#F8F219" transform="translate(0,0)"/>
<path d="" fill="#FAFF19" transform="translate(0,0)"/>
<path d="" fill="#F0F060" transform="translate(0,0)"/>
<path d="" fill="#EEFA52" transform="translate(0,0)"/>
<path d="" fill="#F0F657" transform="translate(0,0)"/>
<path d="" fill="#F2FF5B" transform="translate(0,0)"/>
<path d="" fill="#FBFF1A" transform="translate(0,0)"/>
<path d="" fill="#F5FB11" transform="translate(0,0)"/>
<path d="" fill="#FDFB36" transform="translate(0,0)"/>
<path d="" fill="#FAF320" transform="translate(0,0)"/>
<path d="" fill="#FFFF23" transform="translate(0,0)"/>
<path d="" fill="#F8FD0C" transform="translate(0,0)"/>
</svg>
