<?xml version="1.0" encoding="UTF-8"?>
<svg version="1.1" xmlns="http://www.w3.org/2000/svg" width="537" height="512">
<path d="M0 0 C35.8324143 28.87893922 55.07584713 70.84410087 63.08349609 115.43945312 C63.31721924 116.73894897 63.31721924 116.73894897 63.55566406 118.06469727 C64.89333056 126.21557575 65.18570159 134.01224104 65.70849609 142.37695312 C54.15849609 139.07695312 42.60849609 135.77695313 30.70849609 132.37695312 C29.87318359 127.48882812 29.87318359 127.48882812 29.02099609 122.50195312 C23.88706502 93.91678425 13.61495739 64.89100775 -5.29150391 42.37695312 C-6.02111328 41.508125 -6.75072266 40.63929687 -7.50244141 39.74414062 C-23.37142533 21.5365696 -42.686118 9.51254956 -67.04150391 7.56445312 C-96.46395497 5.88438191 -127.20573558 17.0627322 -149.29150391 36.37695312 C-184.84641952 70.25128189 -196.8703517 121.10076957 -198.29150391 168.37695312 C-198.69173133 212.80219671 -188.26888405 259.38537004 -164.47119141 297.33007812 C-163.29150391 299.37695312 -163.29150391 299.37695312 -163.29150391 301.37695312 C-162.33630859 301.33054687 -161.38111328 301.28414063 -160.39697266 301.23632812 C-148.70602581 300.90996072 -139.6115655 302.57222404 -130.36181641 310.33007812 C-121.89492228 318.70112062 -118.06408291 327.45182896 -117.85400391 339.25195312 C-117.94083265 351.11854776 -121.97403961 359.85914641 -130.13916016 368.28320312 C-139.02885512 376.62502424 -148.45018091 378.88731475 -160.39306641 378.65429688 C-171.38639825 377.87220613 -179.5002079 372.50416748 -186.97900391 364.75195312 C-193.32688009 357.00637944 -195.71859766 349.13228977 -195.79150391 339.25195312 C-195.79786865 338.52443848 -195.8042334 337.79692383 -195.81079102 337.04736328 C-195.71112368 332.75155648 -195.0007422 329.48795548 -193.43994141 325.47851562 C-192.10706398 321.30906332 -192.32928541 319.22038906 -194.23681641 315.28320312 C-195.26916557 313.46519908 -196.33100452 311.66373084 -197.41650391 309.87695312 C-198.55879483 307.84376478 -199.69263995 305.80581281 -200.81884766 303.76367188 C-201.69259033 302.18851807 -201.69259033 302.18851807 -202.58398438 300.58154297 C-218.76891699 270.20644638 -228.20924217 235.44406298 -232.29150391 201.37695312 C-232.3872168 200.59521729 -232.48292969 199.81348145 -232.58154297 199.00805664 C-235.08613133 175.61170027 -234.58310044 150.48102763 -230.29150391 127.37695312 C-230.10346191 126.33812988 -229.91541992 125.29930664 -229.72167969 124.22900391 C-225.27782743 100.44007641 -218.24766209 76.53208416 -206.29150391 55.37695312 C-205.70755859 54.30960937 -205.12361328 53.24226563 -204.52197266 52.14257812 C-200.60381808 45.17303907 -196.16333926 38.71125312 -191.29150391 32.37695312 C-190.61474609 31.49394531 -189.93798828 30.6109375 -189.24072266 29.70117188 C-169.70895756 5.02758927 -142.86258932 -14.32024307 -112.29150391 -22.62304688 C-111.59202637 -22.81914551 -110.89254883 -23.01524414 -110.171875 -23.21728516 C-71.49363988 -33.65725019 -31.29453774 -24.27762482 0 0 Z " fill="#754ABA" transform="translate(340.29150390625,26.623046875)"/>
<path d="M0 0 C4.25110306 3.55020435 8.68018307 7.82130365 11.1796875 12.8203125 C12.13931396 12.83489502 13.09894043 12.84947754 14.08764648 12.86450195 C88.95765023 14.08841773 159.64267184 33.13833659 215.890625 84.77734375 C217.46790625 86.18505381 219.09474928 87.53849735 220.7578125 88.84375 C222.97443518 90.65280012 224.72674604 92.44374114 226.5546875 94.6328125 C228.74857306 97.20803869 230.97177241 99.62264154 233.4296875 101.9453125 C255.79034543 124.00515441 271.78313201 154.50303565 279.1796875 184.8203125 C279.65921875 186.73457031 279.65921875 186.73457031 280.1484375 188.6875 C284.82573799 209.92223657 284.4951425 236.03794763 278.1796875 256.8203125 C277.85822754 257.88088867 277.85822754 257.88088867 277.53027344 258.96289062 C272.90650356 273.59473301 265.52814332 286.45576963 255.1796875 297.8203125 C254.68758789 298.36155762 254.19548828 298.90280273 253.68847656 299.46044922 C227.59019405 327.7881931 189.56212394 345.17255103 151.10009766 347.0390625 C117.96233562 348.35840015 77.64335532 344.65999427 49.1796875 325.8203125 C52.81900668 322.03105882 56.63973488 318.76543932 60.8046875 315.5703125 C64.38585228 312.81455331 67.94570881 310.0692004 71.328125 307.0703125 C72.73964844 305.8328125 72.73964844 305.8328125 74.1796875 304.5703125 C75.0046875 303.82265625 75.8296875 303.075 76.6796875 302.3046875 C79.1796875 300.8203125 79.1796875 300.8203125 81.9765625 300.91015625 C85.85190477 302.01132058 89.63396573 303.28598356 93.4296875 304.6328125 C127.08698627 316.17404122 163.37505206 318.4193857 196.26171875 303.4140625 C219.79357044 291.29465391 236.70595944 270.41261342 245.4921875 245.6953125 C252.93001848 221.43457627 249.12758382 196.75839564 239.1796875 173.8203125 C238.88046387 173.12309082 238.58124023 172.42586914 238.27294922 171.70751953 C229.35596444 151.19428988 216.54319097 133.95315681 201.1796875 117.8203125 C200.19935547 116.76070312 200.19935547 116.76070312 199.19921875 115.6796875 C184.17570492 99.91941286 164.35808834 87.84308959 145.1796875 77.8203125 C144.38626953 77.39927246 143.59285156 76.97823242 142.77539062 76.54443359 C107.27721484 57.91809193 68.99878857 49.67014646 29.1796875 47.6953125 C27.51820153 47.60860086 25.8567429 47.52136374 24.1953125 47.43359375 C20.19039181 47.22313857 16.18517435 47.01968933 12.1796875 46.8203125 C11.88634521 47.75746094 11.59300293 48.69460937 11.29077148 49.66015625 C8.3308079 58.07891448 0.71089785 63.88426423 -7.0703125 67.69921875 C-16.94363475 71.72428052 -27.19323767 71.80739948 -37.1953125 68.0078125 C-48.22190698 63.08365547 -55.3046011 55.98611453 -59.8203125 44.8203125 C-63.32683312 35.15911767 -62.41971796 25.32817599 -58.8203125 15.8203125 C-53.48144852 4.44404159 -45.55046974 -1.93649161 -33.8203125 -6.1796875 C-21.80516415 -9.17399892 -10.06325778 -7.12664875 0 0 Z " fill="#754ABA" transform="translate(254.8203125,163.1796875)"/>
<path d="M0 0 C0.34611328 1.31097656 0.34611328 1.31097656 0.69921875 2.6484375 C1.02535156 3.87820312 1.35148437 5.10796875 1.6875 6.375 C1.86176514 7.03604736 2.03603027 7.69709473 2.21557617 8.37817383 C3.23533347 12.22111916 4.29648597 16.04755566 5.4140625 19.86328125 C5.64649658 20.66652832 5.87893066 21.46977539 6.1184082 22.29736328 C6.57501712 23.86971688 7.03949182 25.43981122 7.51245117 27.00732422 C8.5853216 30.72776869 9.31026398 33.31949404 8 37 C6.2421875 38.61328125 6.2421875 38.61328125 3.875 40.3125 C-22.61520332 60.73045041 -43.77592441 92.07230362 -48.68359375 125.5859375 C-51.17974111 152.51967572 -44.57089442 179.64153383 -27.4375 201 C-25.97787119 202.68380389 -24.50033305 204.35236152 -23 206 C-22.41476563 206.65484375 -21.82953125 207.3096875 -21.2265625 207.984375 C-2.07286169 228.30708102 27.32024365 235.28027315 54.19140625 236.28515625 C114.17415561 237.58842077 171.72402114 208.30925693 214.48046875 167.45654297 C214.98191406 166.97588379 215.48335938 166.49522461 216 166 C216.52980469 165.49742676 217.05960937 164.99485352 217.60546875 164.47705078 C234.81562396 148.07937023 249.10955856 128.66145977 259 107 C258.38382812 106.25234375 257.76765625 105.5046875 257.1328125 104.734375 C250.67136159 96.45046357 247.918316 86.45627871 249 76 C250.84039757 65.46797695 255.34399039 56.34770109 263.71875 49.53515625 C273.76401329 42.77524448 284.7730235 40.31875751 296.72265625 42.49609375 C307.93069422 45.56228034 316.39966869 52.13995284 322.41796875 62 C327.62341294 71.87106453 328.33583922 81.76214081 325.5 92.4375 C321.98514313 102.89574078 315.87656854 110.94084863 306 116 C302.55534827 117.56744045 299.21374113 118.8519856 295.42944336 119.31347656 C292.89325588 119.77674424 292.89325588 119.77674424 291.55297852 121.79980469 C291.16553467 122.58258789 290.77809082 123.36537109 290.37890625 124.171875 C289.92588135 125.05343262 289.47285645 125.93499023 289.00610352 126.84326172 C288.29151978 128.28209717 288.29151978 128.28209717 287.5625 129.75 C278.26666013 147.5729713 267.09851658 163.76842638 254 179 C253.2575 179.87269531 252.515 180.74539063 251.75 181.64453125 C241.52968915 193.3165908 230.4106158 204.66786163 218 214 C217.36932617 214.48001465 216.73865234 214.9600293 216.08886719 215.45458984 C204.90416112 223.92777309 193.33225669 231.31370617 181 238 C180.01580078 238.53850586 180.01580078 238.53850586 179.01171875 239.08789062 C129.01813867 266.15480821 66.15332577 280.23932284 10.53564453 264.29345703 C-11.47523676 257.61841336 -30.24399373 246.74486796 -47 231 C-47.90492187 230.20916016 -47.90492187 230.20916016 -48.828125 229.40234375 C-62.75379803 216.68052563 -71.12116112 196.81070096 -76 179 C-76.29632324 177.93990723 -76.29632324 177.93990723 -76.59863281 176.85839844 C-79.82639399 164.73448369 -80.39288766 152.72221722 -80.4375 140.25 C-80.4467601 139.15697571 -80.4467601 139.15697571 -80.45620728 138.04187012 C-80.5340981 123.74457691 -78.60515419 109.8836389 -74.375 96.1875 C-74.12121582 95.36258057 -73.86743164 94.53766113 -73.60595703 93.68774414 C-66.44258244 71.2921257 -54.77040254 51.38301513 -39 34 C-38.19433594 33.08605469 -37.38867188 32.17210937 -36.55859375 31.23046875 C-28.93143008 22.62248539 -20.98214388 15.19062338 -12 8 C-11.05640625 7.22398437 -10.1128125 6.44796875 -9.140625 5.6484375 C-7.80257812 4.55402344 -7.80257812 4.55402344 -6.4375 3.4375 C-5.22900391 2.44556641 -5.22900391 2.44556641 -3.99609375 1.43359375 C-2 0 -2 0 0 0 Z " fill="#754ABA" transform="translate(80,237)"/>
<path d="M0 0 C1 3 1 3 0 6 C-1.0828125 6.61875 -1.0828125 6.61875 -2.1875 7.25 C-5.41214315 9.25644463 -7.31715753 11.5364978 -9.66796875 14.4765625 C-11 16 -11 16 -13 17 C-13.33 17.99 -13.66 18.98 -14 20 C-15.32 19.67 -16.64 19.34 -18 19 C-17.49025635 18.49549316 -16.9805127 17.99098633 -16.45532227 17.47119141 C-14.15511905 15.19172966 -11.85877123 12.90842239 -9.5625 10.625 C-8.76005859 9.8309375 -7.95761719 9.036875 -7.13085938 8.21875 C-6.36708984 7.45820313 -5.60332031 6.69765625 -4.81640625 5.9140625 C-4.10943604 5.2123291 -3.40246582 4.5105957 -2.67407227 3.78759766 C-0.92780016 2.09306909 -0.92780016 2.09306909 0 0 Z " fill="#6D4DAD" transform="translate(310,388)"/>
<path d="M0 0 C0.93423645 3.01031744 1.04449911 3.86650268 0 7 C0.99 7.33 1.98 7.66 3 8 C1.3125 8.6875 1.3125 8.6875 -1 9 C-3.75 7.5625 -3.75 7.5625 -6 6 C-4 4 -2 2 0 0 Z " fill="#6F4DB0" transform="translate(310,483)"/>
<path d="M0 0 C1.32 0.33 2.64 0.66 4 1 C5.16063604 5.25566547 4.76173392 8.6835078 4 13 C2.42445965 10.11371599 1.53723627 7.46657616 0.875 4.25 C0.70742187 3.45078125 0.53984375 2.6515625 0.3671875 1.828125 C0.24601562 1.22484375 0.12484375 0.6215625 0 0 Z " fill="#6E4FAF" transform="translate(113,257)"/>
<path d="M0 0 C0.66 0 1.32 0 2 0 C2 1.32 2 2.64 2 4 C2.99 4 3.98 4 5 4 C5 4.66 5 5.32 5 6 C-1.625 5.25 -1.625 5.25 -5 3 C-4.360625 2.87625 -3.72125 2.7525 -3.0625 2.625 C-2.0415625 2.315625 -2.0415625 2.315625 -1 2 C-0.67 1.34 -0.34 0.68 0 0 Z " fill="#7149AB" transform="translate(394,160)"/>
<path d="M0 0 C1.65 0.33 3.3 0.66 5 1 C4.21654285 2.17219543 3.42297164 3.33763668 2.625 4.5 C2.18414063 5.1496875 1.74328125 5.799375 1.2890625 6.46875 C0.86367188 6.9740625 0.43828125 7.479375 0 8 C-0.66 8 -1.32 8 -2 8 C-2 7.34 -2 6.68 -2 6 C-1.34 6 -0.68 6 0 6 C0 4.02 0 2.04 0 0 Z " fill="#6D4DB4" transform="translate(514,448)"/>
<path d="M0 0 C-1.44253657 3.36591866 -3.33264727 5.51047079 -6 8 C-5.62403791 5.21788056 -5.32681541 3.4120716 -3.5625 1.1875 C-2 0 -2 0 0 0 Z " fill="#6E50B1" transform="translate(400,339)"/>
<path d="M0 0 C1.32 0.33 2.64 0.66 4 1 C0.535 3.97 0.535 3.97 -3 7 C-2.67 5.68 -2.34 4.36 -2 3 C-1.34 3 -0.68 3 0 3 C0 2.01 0 1.02 0 0 Z " fill="#6951AC" transform="translate(502,464)"/>
<path d="M0 0 C0.33 0.66 0.66 1.32 1 2 C1.66 2 2.32 2 3 2 C3 2.66 3 3.32 3 4 C-1.455 3.01 -1.455 3.01 -6 2 C-6 1.67 -6 1.34 -6 1 C-4.02 0.67 -2.04 0.34 0 0 Z " fill="#704FAC" transform="translate(93,498)"/>
</svg>
