<?xml version="1.0" encoding="UTF-8"?>
<svg version="1.1" xmlns="http://www.w3.org/2000/svg" width="500" height="375">
<path d="M0 0 C1.10649902 0.29801514 1.10649902 0.29801514 2.23535156 0.60205078 C20.51859339 5.70621804 37.03587478 14.23198354 47.15234375 30.8984375 C48.232691 32.89606072 49.13882202 34.89872572 50 37 C50.45052734 38.07701172 50.45052734 38.07701172 50.91015625 39.17578125 C57.38863113 58.06882193 52.68295559 79.4466047 44.26879883 96.84570312 C38.2539522 108.69756375 30.16497123 118.4861426 21 128 C20.29488281 128.77988281 19.58976562 129.55976563 18.86328125 130.36328125 C12.18217265 137.52797486 4.2380612 142.79711894 -4 148 C-4.57927246 148.37012207 -5.15854492 148.74024414 -5.75537109 149.12158203 C-34.91283402 167.33536283 -79.16595666 175.75645131 -113 168.1640625 C-125.03991032 164.95302551 -137.1948454 158.175846 -144.4921875 147.8984375 C-146.94790015 143.51202663 -147.4145745 139.97489398 -147 135 C-143.87534853 134.67826451 -142.4553282 134.6595598 -139.89453125 136.57421875 C-139.20746094 137.27160156 -138.52039063 137.96898437 -137.8125 138.6875 C-125.59672576 150.07815605 -110.12613719 151.85180862 -94.0234375 151.41015625 C-56.31046989 149.43730668 -18.85604677 131.83944681 6.43212891 103.83398438 C14.07362059 94.89550952 19.51247141 85.2411968 23 74 C23.19851563 73.37867187 23.39703125 72.75734375 23.6015625 72.1171875 C25.1006362 64.15152137 25.31993044 54.14047025 21.390625 46.890625 C13.16238804 35.70392082 -0.03330758 31.89367156 -13.125 29.40625 C-73.81123865 23.04398305 -137.68371208 52.72342743 -184.16796875 89.96118164 C-185.79177119 91.29268991 -187.39947145 92.64062034 -189 94 C-189.55623047 94.47115234 -190.11246094 94.94230469 -190.68554688 95.42773438 C-205.69808684 108.30790899 -220.1579719 125.71572104 -223 146 C-224.09863281 160.69029014 -221.23321568 172.89612509 -211.9609375 184.56640625 C-209.70445966 187.11391392 -207.37711948 189.564902 -205 192 C-203.85724609 193.21816406 -203.85724609 193.21816406 -202.69140625 194.4609375 C-196.02135739 201.40479789 -188.64929285 207.19766981 -181 213 C-169.10639294 222.04079517 -157.30953502 231.12982561 -147 242 C-142.87654188 240.72303117 -139.19042605 239.17912684 -135.39453125 237.12890625 C-133.80886353 236.27582886 -133.80886353 236.27582886 -132.19116211 235.40551758 C-131.07620361 234.79732178 -129.96124512 234.18912598 -128.8125 233.5625 C-127.66080322 232.93432373 -126.50910645 232.30614746 -125.32250977 231.65893555 C-122.9846458 230.38130886 -120.64962026 229.09881323 -118.31542969 227.81445312 C-115.34965046 226.1913551 -112.36964009 224.59949948 -109.3828125 223.015625 C-101.05011583 218.51256966 -94.85515336 214.57661326 -89.21484375 206.76953125 C-80.87441348 196.34031597 -67.38164641 187.69179018 -54.125 185.9375 C-48.19439654 185.6957869 -44.57316773 187.14160108 -39.75 190.625 C-34.12186012 198.26318983 -34.64951132 206.87431324 -35 216 C-33.80375 215.773125 -32.6075 215.54625 -31.375 215.3125 C-27.1037829 214.77481132 -24.63666175 215.57555884 -21 218 C-18.37815236 221.93277146 -19.1552077 224.59490435 -20 229 C-20.66335934 232.05724744 -21.4264922 235.08220004 -22.21484375 238.109375 C-22.4306459 238.95743713 -22.64644806 239.80549927 -22.86878967 240.67926025 C-23.78251149 244.26948115 -24.707401 247.85679825 -25.6315918 251.44433594 C-30.37943958 268.49097194 -30.37943958 268.49097194 -32 286 C-29.2073534 283.54685363 -27.81736473 280.95995339 -26.20703125 277.62890625 C-25.39770142 275.9593689 -25.39770142 275.9593689 -24.57202148 274.25610352 C-23.98491789 273.02518664 -23.39843013 271.79397589 -22.8125 270.5625 C-22.50998322 269.93141327 -22.20746643 269.30032654 -21.89578247 268.65011597 C-14.58301038 253.38610422 -7.72892295 237.91830893 -0.93847656 222.41650391 C0.63588322 218.82415133 2.2238971 215.23805377 3.81695557 211.65396118 C11.94223972 193.5822978 11.94223972 193.5822978 17.97265625 174.73828125 C19.15415311 171.58912042 20.0794164 170.60230183 23 169 C27.46731805 167.64729915 31.87126769 167.81599075 36.5 167.8125 C37.78197266 167.79413086 37.78197266 167.79413086 39.08984375 167.77539062 C39.91613281 167.77345703 40.74242187 167.77152344 41.59375 167.76953125 C42.71813477 167.76336792 42.71813477 167.76336792 43.86523438 167.75708008 C46.32092343 168.03651862 47.91180255 168.68965181 50 170 C51.97375173 174.63402581 50.11763832 178.73041617 48.625 183.25 C43.65468619 199.39288501 44.39301868 213.66990025 52 229 C58.06834995 219.80466501 63.59004205 210.33671986 68.82296753 200.64489746 C69.47313381 199.44093188 70.12583058 198.23832874 70.78128052 197.03723145 C77.11983208 185.39666195 81.75175595 173.72096107 85.0078125 160.8984375 C86.43540238 156.72807651 86.43540238 156.72807651 89 155 C94.27089332 153.04466861 99.08346104 152.66302324 104.625 152.6875 C105.36234375 152.67138672 106.0996875 152.65527344 106.859375 152.63867188 C111.43636135 152.63457063 114.32160746 153.24484037 118 156 C117.59972465 161.70392367 116.54865207 166.75614224 114.9375 172.25 C112.94277656 179.28796983 112.41774902 185.7124716 113 193 C113.05929687 193.8765625 113.11859375 194.753125 113.1796875 195.65625 C114.3090786 204.80156331 118.90411705 212.87491127 123 221 C123.53874756 220.8138916 124.07749512 220.6277832 124.63256836 220.43603516 C130.22661424 218.53344582 135.84865033 216.87644955 141.5625 215.375 C142.36107422 215.1584375 143.15964844 214.941875 143.98242188 214.71875 C166.28388648 208.8298547 190.71427881 210.77845423 211 222 C223.87338304 229.9939556 232.25082109 240.4665926 237.3125 254.6875 C239.3673875 264.52302951 239.27741492 275.25060157 234 284 C229.20505894 290.53339125 223.58294238 295.90492148 216 299 C212.625 299.1875 212.625 299.1875 210 299 C209.67 297.68 209.34 296.36 209 295 C209.59167969 294.56429688 210.18335938 294.12859375 210.79296875 293.6796875 C218.13487159 288.14631211 223.66127554 283.17499596 226 274 C227.04768949 266.06749384 223.80922045 258.16529654 219.25 251.75 C208.55623705 238.74765795 193.44967232 232.83313481 177 231 C152.59573582 229.15489364 152.59573582 229.15489364 130 237 C130.2165625 237.73863281 130.433125 238.47726563 130.65625 239.23828125 C133.71761998 250.39243945 134.8239877 260.54853693 129 271 C119.38007649 283.86422657 105.83561355 292.90770548 90.09765625 296.69921875 C84.91318827 297.42426465 81.41467788 297.12257703 77 294 C73.19899229 289.66259704 72.88379315 285.63215856 73 280 C75.5427597 261.46007249 88.12026024 248.4535719 101 236 C99.77042932 232.15832703 98.38647066 228.4229858 96.84228516 224.69677734 C89.72760363 207.50481992 89.72760363 207.50481992 90 199 C89.34 199 88.68 199 88 199 C87.79117187 199.76828125 87.58234375 200.5365625 87.3671875 201.328125 C85.46424263 206.43889123 82.81857723 211.01788164 80.125 215.75 C79.55652344 216.76408936 78.98804688 217.77817871 78.40234375 218.82299805 C75.59043875 223.76594529 72.69835798 228.54839201 69.3671875 233.16015625 C68.80112793 233.9500293 68.23506836 234.73990234 67.65185547 235.55371094 C66.57909984 237.02062419 65.47767164 238.46714333 64.34423828 239.88769531 C62.13678719 242.90285782 60.84137549 244.73573358 61.31933594 248.54516602 C62.08526876 251.0993011 62.99505841 253.53146615 64 256 C66.69801803 266.31028318 67.18291575 277.23813799 62.22265625 286.9453125 C54.25642482 300.3326535 41.86968536 307.52085094 26.9375 311.375 C18.68993823 313.35746477 10.90483221 314.5785389 3 311 C1.1875 309.875 1.1875 309.875 0 308 C-0.95374969 301.85361311 0.28536145 298.56883063 3.90234375 293.609375 C7.48985784 289.14669453 11.21327207 284.8065714 14.97265625 280.48828125 C19.09693322 275.75021864 23.09523148 270.92058468 27 266 C28.17175781 264.54013672 28.17175781 264.54013672 29.3671875 263.05078125 C30.11226563 262.08527344 30.85734375 261.11976563 31.625 260.125 C32.29789062 259.26132812 32.97078125 258.39765625 33.6640625 257.5078125 C35.20307385 255.12425523 35.20307385 255.12425523 34.9140625 252.62890625 C33.7396325 249.25116528 32.26871263 246.04451907 30.75 242.8125 C26.79343406 234.13978936 24.3169821 225.22521904 22 216 C19.75982038 218.24017962 19.07278892 219.93713555 17.890625 222.86328125 C17.47337158 223.8800293 17.05611816 224.89677734 16.6262207 225.94433594 C16.17206787 227.05583008 15.71791504 228.16732422 15.25 229.3125 C7.00068883 249.10424406 -2.40469498 268.31826734 -12.39981079 287.28112793 C-13.08046 288.57256587 -13.75874631 289.86525252 -14.43441772 291.15930176 C-27.58033252 316.26396065 -27.58033252 316.26396065 -38.33203125 319.7578125 C-42.07983853 320.3420478 -44.36638231 320.27548595 -47.875 318.75 C-53.57799552 314.05341546 -55.39924672 309.37318905 -56.22705078 301.96923828 C-56.61696239 297.31837263 -56.8322034 292.66358826 -57 288 C-57.3623877 288.77601563 -57.72477539 289.55203125 -58.09814453 290.3515625 C-59.46634925 293.2699349 -60.84277377 296.18425135 -62.22460938 299.09619141 C-62.81737251 300.3495447 -63.40697795 301.60439706 -63.99316406 302.86083984 C-73.51631401 323.25598181 -73.51631401 323.25598181 -82.875 326.6875 C-89.056695 327.59657279 -93.46696424 326.97144513 -99 324 C-108.70103157 316.14678397 -113.06008002 301.94600637 -115 290 C-115.31698014 286.22476996 -115.38023851 282.47493919 -115.375 278.6875 C-115.37556396 277.65020752 -115.37612793 276.61291504 -115.37670898 275.54418945 C-115.22239108 264.48979891 -113.50328863 253.5098659 -110 243 C-113.79468568 245.11964246 -117.58521331 247.24661269 -121.375 249.375 C-122.45523438 249.97828125 -123.53546875 250.5815625 -124.6484375 251.203125 C-125.6796875 251.78320312 -126.7109375 252.36328125 -127.7734375 252.9609375 C-128.72653809 253.49509277 -129.67963867 254.02924805 -130.66162109 254.57958984 C-133.08046049 255.92229604 -133.08046049 255.92229604 -135 258 C-134.72285156 258.72445313 -134.44570312 259.44890625 -134.16015625 260.1953125 C-133.79792969 261.16210938 -133.43570313 262.12890625 -133.0625 263.125 C-132.70285156 264.07632812 -132.34320313 265.02765625 -131.97265625 266.0078125 C-125.48340293 285.97073636 -129.60699012 309.86413954 -138.25 328.5 C-141.75720977 335.02098094 -146.01826912 340.54462408 -151 346 C-151.68707031 346.77988281 -152.37414062 347.55976563 -153.08203125 348.36328125 C-166.07641157 362.32199406 -185.05069271 371.44877581 -204.10546875 372.28515625 C-226.44315742 372.84688518 -226.44315742 372.84688518 -235.3125 366.0625 C-242.31901874 359.31548195 -246.04126887 349.90034355 -246.29248047 340.31469727 C-246.46440571 321.50984989 -239.94057013 308.35466837 -227 295 C-226.47623779 294.45359863 -225.95247559 293.90719727 -225.4128418 293.34423828 C-221.42579161 289.25487003 -217.2726205 285.65073769 -212.6875 282.25 C-212.00091309 281.73904785 -211.31432617 281.2280957 -210.60693359 280.70166016 C-199.63679334 272.67502991 -187.83892768 265.95895729 -176 259.3125 C-175.2280127 258.8779248 -174.45602539 258.44334961 -173.66064453 257.99560547 C-168.24358111 255 -168.24358111 255 -166 255 C-173.91706501 246.81190034 -183.48015159 240.62532621 -192.85131836 234.23461914 C-207.27512076 224.37094282 -221.22031512 213.9445383 -234 202 C-234.91007812 201.15566406 -235.82015625 200.31132812 -236.7578125 199.44140625 C-249.48146612 187.23166065 -261.86202753 170.8084103 -262.48266602 152.54418945 C-262.69488037 123.69200386 -245.05574492 100.97686854 -226 81 C-225.31164062 80.27039063 -224.62328125 79.54078125 -223.9140625 78.7890625 C-218.66696357 73.37062973 -212.90743173 68.67736968 -207 64 C-206.06929687 63.24074219 -205.13859375 62.48148437 -204.1796875 61.69921875 C-167.15641837 32.16760329 -120.15155435 10.32194205 -74 0 C-72.8241333 -0.26901123 -72.8241333 -0.26901123 -71.62451172 -0.54345703 C-49.64917091 -5.33850973 -21.7387115 -5.97411997 0 0 Z M-66.5 215 C-81.03354299 230.35931248 -89.21261006 254.03615741 -89.1875 274.875 C-89.18669434 275.57391357 -89.18588867 276.27282715 -89.18505859 276.99291992 C-89.10750349 283.54784647 -88.71172019 289.43241971 -85 295 C-82.06850259 294.68591099 -81.09486213 294.10452223 -79.08203125 291.88671875 C-76.80877624 288.73486987 -75.06877589 285.50997559 -73.4375 282 C-73.10306885 281.28287842 -72.7686377 280.56575684 -72.42407227 279.8269043 C-56.06446712 245.58258554 -56.06446712 245.58258554 -49 209 C-49.66 208.34 -50.32 207.68 -51 207 C-57.42442195 207 -61.86636491 210.74808313 -66.5 215 Z M109 247 C100.11862078 254.9354335 94.85553677 264.79164754 91 276 C91 276.99 91 277.98 91 279 C98.36801451 278.13317476 102.97546415 273.46914255 107.51953125 267.9921875 C112.01149081 261.94759812 111.20982264 255.20391076 111 248 C110.34 247.67 109.68 247.34 109 247 Z M-199.34472656 298.31347656 C-207.92185397 307.05253204 -214.59950181 318.58455623 -215 331 C-214.58439641 335.05213498 -213.60671459 338.19104722 -211.125 341.5 C-205.12111716 344.38186376 -199.05659683 343.78868194 -192.71484375 342.15234375 C-176.72515826 336.53022549 -165.34677605 325.43651573 -157 311 C-156.5978125 310.33226562 -156.195625 309.66453125 -155.78125 308.9765625 C-148.4461572 295.8067368 -148.23461788 279.28828035 -152 265 C-164.81128765 265 -190.11914682 289.57532426 -199.34472656 298.31347656 Z M43 269 C41.34479511 271.06442529 39.72892675 273.14622966 38.125 275.25 C32.77113326 282.18461707 27.02040493 288.64189344 21 295 C21.66 295.33 22.32 295.66 23 296 C31.78817171 290.55970323 39.32739477 284.98867906 43 275 C43.7783777 271.68416549 43.7783777 271.68416549 44 269 C43.67 269 43.34 269 43 269 Z " fill="#CC6898" transform="translate(262,3)"/>
<path d="M0 0 C1.1875 1.625 1.1875 1.625 2 4 C0.77755904 7.39566932 -0.09372988 9.4303445 -3.1875 11.375 C-3.785625 11.58125 -4.38375 11.7875 -5 12 C-3.68938409 7.76570244 -2.05643741 3.92592596 0 0 Z " fill="#C06D95" transform="translate(108,306)"/>
<path d="M0 0 C0.66 0 1.32 0 2 0 C2 1.65 2 3.3 2 5 C1.01 5.495 1.01 5.495 0 6 C-0.65555119 8.52733235 -0.65555119 8.52733235 -1 11 C-1.99 11 -2.98 11 -4 11 C-2.7874262 7.27566618 -1.49140021 3.62197194 0 0 Z " fill="#BD6E94" transform="translate(252,245)"/>
<path d="M0 0 C1.32 0 2.64 0 4 0 C3.01 2.97 2.02 5.94 1 9 C0.67 9 0.34 9 0 9 C-0.87890625 2.84765625 -0.87890625 2.84765625 -1 1 C-0.67 0.67 -0.34 0.34 0 0 Z " fill="#C16D99" transform="translate(277,222)"/>
<path d="M0 0 C0.66 0.33 1.32 0.66 2 1 C1.43697042 4.94120709 0.3208055 7.7508723 -2 11 C-2.66 11 -3.32 11 -4 11 C-2.7874262 7.27566618 -1.49140021 3.62197194 0 0 Z " fill="#C06B91" transform="translate(340,185)"/>
<path d="M0 0 C2.91227269 3.28804981 4.49701212 5.59885603 5 10 C4.01 9.67 3.02 9.34 2 9 C0.875 6.5625 0.875 6.5625 0 4 C-0.33 3.34 -0.66 2.68 -1 2 C-0.67 1.34 -0.34 0.68 0 0 Z " fill="#C06B8F" transform="translate(307,32)"/>
<path d="M0 0 C1 3 1 3 0.109375 4.82421875 C-0.33921875 5.43910156 -0.7878125 6.05398438 -1.25 6.6875 C-1.68828125 7.31011719 -2.1265625 7.93273437 -2.578125 8.57421875 C-3.04734375 9.04472656 -3.5165625 9.51523437 -4 10 C-4.99 10 -5.98 10 -7 10 C-7 9.34 -7 8.68 -7 8 C-6.21625 7.38125 -5.4325 6.7625 -4.625 6.125 C-2.13770844 4.11147826 -1.14461734 2.91357141 0 0 Z " fill="#C16F94" transform="translate(185,290)"/>
<path d="M0 0 C0.66 0.33 1.32 0.66 2 1 C0.35 2.98 -1.3 4.96 -3 7 C-3.66 5.68 -4.32 4.36 -5 3 C-2.625 1.4375 -2.625 1.4375 0 0 Z " fill="#BD6D91" transform="translate(193,219)"/>
<path d="M0 0 C0.89694794 3.58779175 1.08304117 6.34618837 1 10 C0.01 10.33 -0.98 10.66 -2 11 C-1.34 7.37 -0.68 3.74 0 0 Z " fill="#BC7195" transform="translate(346,167)"/>
<path d="M0 0 C0.33 0.99 0.66 1.98 1 3 C-0.65 4.32 -2.3 5.64 -4 7 C-4.66 6.67 -5.32 6.34 -6 6 C-4.02 4.02 -2.04 2.04 0 0 Z " fill="#C16D93" transform="translate(34,299)"/>
</svg>
